<mxfile host="65bd71144e">
    <diagram id="xVdB74F5v4736xja0ciQ" name="Page-1">
        <mxGraphModel dx="791" dy="761" grid="1" gridSize="10" guides="1" tooltips="1" connect="1" arrows="1" fold="1" page="1" pageScale="1" pageWidth="850" pageHeight="1100" background="none" math="0" shadow="0">
            <root>
                <mxCell id="0"/>
                <mxCell id="1" parent="0"/>
                <mxCell id="65" value="" style="rounded=0;whiteSpace=wrap;html=1;dashed=1;strokeColor=none;fillColor=#FFFFFF;" parent="1" vertex="1">
                    <mxGeometry x="40" y="190" width="660" height="520" as="geometry"/>
                </mxCell>
                <mxCell id="YrqY-wz_RY2QtS6upmUe-33" value="" style="rounded=0;whiteSpace=wrap;html=1;fillColor=#FFF2E6;align=left;verticalAlign=top;dashed=1;strokeColor=none;" parent="1" vertex="1">
                    <mxGeometry x="70" y="200" width="400" height="360" as="geometry"/>
                </mxCell>
                <mxCell id="YrqY-wz_RY2QtS6upmUe-1" value="" style="rounded=0;whiteSpace=wrap;html=1;fillColor=none;align=left;verticalAlign=top;strokeColor=#FF8000;dashed=1;" parent="1" vertex="1">
                    <mxGeometry x="180" y="220" width="250" height="240" as="geometry"/>
                </mxCell>
                <mxCell id="38" value="" style="rounded=0;whiteSpace=wrap;html=1;fillColor=none;align=left;verticalAlign=top;strokeColor=#FF8000;dashed=1;" parent="1" vertex="1">
                    <mxGeometry x="200" y="357.5" width="190" height="81.5" as="geometry"/>
                </mxCell>
                <mxCell id="YrqY-wz_RY2QtS6upmUe-9" value="" style="sketch=0;aspect=fixed;pointerEvents=1;shadow=0;dashed=0;html=1;strokeColor=none;labelPosition=center;verticalLabelPosition=bottom;verticalAlign=top;align=center;fillColor=#000000;shape=mxgraph.azure.laptop" parent="1" vertex="1">
                    <mxGeometry x="339.99999999999994" y="623.56" width="83.33" height="50" as="geometry"/>
                </mxCell>
                <mxCell id="YrqY-wz_RY2QtS6upmUe-10" value="" style="verticalLabelPosition=bottom;html=1;verticalAlign=top;align=center;strokeColor=none;fillColor=#000000;shape=mxgraph.azure.mobile;pointerEvents=1;" parent="1" vertex="1">
                    <mxGeometry x="457.14" y="623.56" width="35" height="50" as="geometry"/>
                </mxCell>
                <mxCell id="YrqY-wz_RY2QtS6upmUe-15" value="browse" style="endArrow=classic;html=1;rounded=0;strokeColor=#666666;" parent="1" source="YrqY-wz_RY2QtS6upmUe-9" target="78" edge="1">
                    <mxGeometry x="-0.1486" y="1" width="50" height="50" relative="1" as="geometry">
                        <mxPoint x="446.03999999999996" y="387.65999999999997" as="sourcePoint"/>
                        <mxPoint x="312.317985893417" y="529.9999999999999" as="targetPoint"/>
                        <mxPoint as="offset"/>
                    </mxGeometry>
                </mxCell>
                <mxCell id="YrqY-wz_RY2QtS6upmUe-17" value="" style="endArrow=classic;html=1;rounded=0;strokeColor=#666666;" parent="1" source="YrqY-wz_RY2QtS6upmUe-10" target="78" edge="1">
                    <mxGeometry width="50" height="50" relative="1" as="geometry">
                        <mxPoint x="266.66520000000014" y="579.6499999999999" as="sourcePoint"/>
                        <mxPoint x="317.7800000000001" y="525.3515810980415" as="targetPoint"/>
                    </mxGeometry>
                </mxCell>
                <mxCell id="YrqY-wz_RY2QtS6upmUe-37" value="browse" style="edgeLabel;html=1;align=center;verticalAlign=middle;resizable=0;points=[];" parent="YrqY-wz_RY2QtS6upmUe-17" vertex="1" connectable="0">
                    <mxGeometry x="0.3103" y="1" relative="1" as="geometry">
                        <mxPoint x="38" y="19" as="offset"/>
                    </mxGeometry>
                </mxCell>
                <mxCell id="YrqY-wz_RY2QtS6upmUe-19" value="scrapes" style="endArrow=classic;html=1;rounded=0;strokeColor=#666666;" parent="1" source="38" target="43" edge="1">
                    <mxGeometry width="50" height="50" relative="1" as="geometry">
                        <mxPoint x="418.6100000000001" y="344.0414121853121" as="sourcePoint"/>
                        <mxPoint x="500" y="328.5443652166575" as="targetPoint"/>
                    </mxGeometry>
                </mxCell>
                <mxCell id="YrqY-wz_RY2QtS6upmUe-23" value="notifications" style="endArrow=classic;html=1;rounded=0;strokeColor=#666666;" parent="1" source="49" target="30" edge="1">
                    <mxGeometry x="0.3215" y="2" width="50" height="50" relative="1" as="geometry">
                        <mxPoint x="660" y="397.27272727272725" as="sourcePoint"/>
                        <mxPoint x="405" y="320" as="targetPoint"/>
                        <mxPoint as="offset"/>
                    </mxGeometry>
                </mxCell>
                <mxCell id="YrqY-wz_RY2QtS6upmUe-24" value="" style="endArrow=classic;html=1;rounded=0;strokeColor=#666666;" parent="1" source="30" target="YrqY-wz_RY2QtS6upmUe-10" edge="1">
                    <mxGeometry width="50" height="50" relative="1" as="geometry">
                        <mxPoint x="737.75" y="643.666884917578" as="sourcePoint"/>
                        <mxPoint x="680" y="370" as="targetPoint"/>
                    </mxGeometry>
                </mxCell>
                <mxCell id="YrqY-wz_RY2QtS6upmUe-25" value="notifications" style="edgeLabel;html=1;align=center;verticalAlign=middle;resizable=0;points=[];" parent="YrqY-wz_RY2QtS6upmUe-24" vertex="1" connectable="0">
                    <mxGeometry x="0.1932" y="1" relative="1" as="geometry">
                        <mxPoint x="6" y="-23" as="offset"/>
                    </mxGeometry>
                </mxCell>
                <mxCell id="YrqY-wz_RY2QtS6upmUe-27" value="posts data" style="endArrow=classic;html=1;rounded=0;strokeColor=#666666;" parent="1" source="38" target="78" edge="1">
                    <mxGeometry x="0.1884" width="50" height="50" relative="1" as="geometry">
                        <mxPoint x="360.74562500000025" y="380" as="sourcePoint"/>
                        <mxPoint x="500" y="426.16352711919455" as="targetPoint"/>
                        <mxPoint as="offset"/>
                    </mxGeometry>
                </mxCell>
                <mxCell id="13" value="" style="sketch=0;points=[[0,0,0],[0.25,0,0],[0.5,0,0],[0.75,0,0],[1,0,0],[0,1,0],[0.25,1,0],[0.5,1,0],[0.75,1,0],[1,1,0],[0,0.25,0],[0,0.5,0],[0,0.75,0],[1,0.25,0],[1,0.5,0],[1,0.75,0]];outlineConnect=0;fontColor=#232F3E;gradientColor=#F78E04;gradientDirection=north;fillColor=#D05C17;strokeColor=#ffffff;dashed=0;verticalLabelPosition=bottom;verticalAlign=top;align=center;html=1;fontSize=12;fontStyle=0;aspect=fixed;shape=mxgraph.aws4.resourceIcon;resIcon=mxgraph.aws4.ecs;" parent="1" vertex="1">
                    <mxGeometry x="179" y="220" width="20" height="20" as="geometry"/>
                </mxCell>
                <mxCell id="15" value="" style="shape=image;verticalLabelPosition=bottom;labelBackgroundColor=#ffffff;verticalAlign=top;aspect=fixed;imageAspect=0;image=data:image/png,iVBORw0KGgoAAAANSUhEUgAAAIAAAACACAYAAADDPmHLAAAACXBIWXMAAAsTAAALEwEAmpwYAAATaElEQVR4nO1dB7QdRRleG1awF2zYFREUj1EpKk0EBUEk2IJUUUIvEqVJr6EEBQ4CASNEIHQETkBCERLKCyW893bve5AA0klCSSKhJL/zzX9fuXf/2Z3dndm777nfOXNu4O3O/DuzO+Uv3x8ENWrUqFGjRo0aNWrUqFGjRo0aNWrUqNEZ9NFKQTd9Tv2uGTToM8Fj9PZOi5QJkLeXvhKEtL6SfyP177WCiD7QabGqjT76suqkSar0q45brn5psPB/z1NlsurMX6hrP9hpcVtA9CYl27qqHK1kvVeVZS3yDz3HQ/qabvpIp0WuDvC1h3S2sdPkjsS1M9TLsJXu/E4hpI82B/1Za9m5LFH37KFkf0PHZK8E+ujjqiN6MnZee3lUlT+oelYsUW7MVheq8moh2fHiE72xNLkrBQxYRHMKDv7wznxOlb28zghYx0M6Xf2+5lDu473JW2mE9HeLDsre0SE9oH43dCorr/F7q7qfzyjPE+qex9Xv4gR5l6ulbGOn8lYeIa1n7IyIzlUd8u3gfnpn89oV1U76a+p3R1UuT+zM9unVxbKAU0hI/7Yc8C5VDlVlTMvJBS8QTgPmevqDLnpLYVlHDEK6TRgwbOzGpd47j96mrt1elfstXoKH1e86ueWMaGdVXkpp5xXVzt/0kTUN3bSCuv4yg6w75pZzRCGk1Q0deVrmuiLaQJWZKS/B6+r3mOBmerN1vd30LnXPpRb1npn5SDeP3tNcFtrrnJ318UcmQjpW6MwXdKfnAY5S0A3waSDpS70hmEPvTa0PU3765nSGKmvkkhfADCbX+6XcdY4YRDRLeAH+UrherLl4ufjLNA1cX2In84wyP+Grf1G9bNs5kTWiBUIbuxWuu9LgqTV+dsamzxWgkQtpbsIgvqB+NxHu2ylIPnXcou79lEM5zxRku8JZ/ZVESD8QOnaJ8x0wtIsRnZ+yfu80eH1EE2Lq5+Gb05AOcq6wadDPhbaeH93awYj2ETr5Zo/tjTd+1RjwBu2nFTHmrx4ngC29yNagj4ltjmo7QUgnCQPxV69t8rourbdppU8N0qpeZYP20udyWDmEdLHQ0Yd6b7ePPpvR5jBTfYnv8y6XrMv4mfd2O4aQbhdmgHIUIDgCSieQuDzXDWohfSOkfwrt/76UtjuCiO4RHvinpbWPU0hIjyS8AF2lqmSh9o7L8KfS2i8drCtvX/O2KrH98Slf/3JVflmaPNj/xGU4vLT2Swe8ZdofuEE/KaVtrK12TifQU7i1JpplOkto/8hS2u4IOvUC4CQQ0tIMm8CF2unDv1ySMuhY7+12DCHdKjzwDl7b7KUv6AGVB3qGuC/h8kjwEH3Iq2zSHiCkI7y22VHIFrYDvLXHXkfdhvX+geBhencALx+2EUjX3K5NuL4Q0TVCm3t4a6/jkKa8iE700hZUt1IHcyc/3KJxYz2B7NjpwlBlQkh3C22Oaj3AEUIHT/HUlknFu1AvC+1gI5Jpn7CT0EJxsKt7e1sbeGmrEgjpd8ID3+G8HejvZePOa2rwv58g3w6GWWCplcdPFsDoE9J/hbZWd9pOpSD5AsIC5hLsw2dy3tw79X54Jsn39us9gyv00CpiO/AYGrWYQx8WH9qVBayP3hrAtUoewHOt6oDrGJ8OpDoucSInENGmwsfwuLP6KwvZMudm3WOffWngZmtnUlsg9Ez22yO9jLmRdX+h/huc1F1pYM2Pd+p+Durd1LDuv6SWhV9rhVNEY5tlnLp2l5bCfoX895A2V9fvqf4ddy8L6WUd+Flc3slC3acUrrfywLEqPkiXWt0L/3qsndhLYMPGp4rJ+sspGqaVrSxSbV/ZfJYDVNkmQCxAlqBVWQG1c95uHTkI6VfCgz/Rcg0scvC6ZbepowL2pe8reZDzlpea5/vJzWl+Ex0DORzsGxn3VGrQt8ocis6A3a6ltRVT7qkBnDEwzXZ+IF2XJ1W5SvsX9tIE4e9LvGodK4WInqnAgFSt3NLpYfGLBn1Vvf2HNYM3y+pULBkLtOo3pPsC9ke4R/37RrHw31HmNF3LF6bEGbgroZZ1ml4iR40uoIc+HyAsi2P0XHbWc0bf/5Bmab1ClmNfGhDIMZe+qOp/SmgTPgYNHTTi8sUN6foAdgHoNkYUOOpl24ADKWRfe7tBfr3ZsYgIPrpJDbOmtvBhgGV9wmK9x/AF9iuIPxNmF2xc4Uga0tpKht+o35PV36YHvPYXeRnwnKfpCOlKg5UnxzYjb/I+bI92iuyl7wVJod0h/UO8v5d29/6ciASWZd/HeA/HAGzZnA2lWcT2o7hVB9dUCr20cvNtt4vbH3qYuCEEtvs0sJ+/VN/tpdCt9NL7VVvxTSzHDa6ceC8fb6WZK+s+Y7Z2pu0ovUwXvSPAGT3LkY33AhMDxOw36LviNUnBGOhAyb+fZSgvshZrs/yMFyTe16AfCrIvU/uVVbUzKmwNUDLZ9+fdndEd9NJmxk2YvIZNiplT2WHjCeH6Q4ztYnmQ2yjflTqkaw2Dsn7CPVOE629ruQabV37Bpls5sfKe5PxyQsrYhWqa5dv5L63JS9rFymrhOYZrQckWZ+vArNIJIkmccGQHkgdFMgpmNonvj5L2Ld30yYApZ2w2kgv9Othiig2p1+JthBvWGKs6TVxBkvNFROcZ2tzc9aNag9XUUl+MF64dK8j+utWXCw0hDFoRRRYf3hS9PDt+UBg70jZ5l2W2ksG4I5tdW+limCQqPh0itCpbe2AT+bpWSEU0tbmrvrG5s99blU9nqo/3QfFII/gXtjuP8Lm+/bqbMsoPtjJYMv+TMhaz3bGphrR1kEyc0B/AFJsXOBrF65zfohfHchLvvKXamdMWDfqRnp7Tv6DrtdbSFtiNy/UcN3hNP31C1Cjiq84DvHisVZVOUgPth3rZLAR+OFN8/TJtji1qwAi1hk2qf2v9dx446SFPsKqfvYTMZBGmpQwdbP8MEuvZy8EAowg2tvG/v1h4qmb3tzsTnqWhdRC5gHUYFGhyBz2T6FyZFRLTF6ZmnvIkv/75Vvpy3njFB8e+/NlS/jEGreeFzWeYJ/ztrKLdpsFH4+MTtK5d2TfJ/NWYmLIiPaW5BFSn0lfIzhbSC7inVb12bKRpxY64CToAaZbs03uLeL0N+maRLosBJwCzW7vdizzsYY42dHyPl/Mmb6ak8C3Ju7ffatmJaAsHg89TOY5jaYDTB2z68YGOs4DAduADYCOVNut4Ea2ZR7B7lB4E067rL3842BnEZkDSw7ex2zeFhOUrky2fYaLlM2xfsLfMwN5JXg4sHU5lIicI/WNvQgOI1kmzHmIGstF/Qz3qbvApYCaz9A0bxxkmU8viiOjSVC2BbTPt7S7XyiuLm28Sbr7Vq8ADYPNp0kBsY1mPSUGTv+A0YgMQPCTXdVSRLrIC09HGl08r+hlJXQmVbhmQjCVDZY619ctEyFyk2HL3sLrcxEr2Sv5jWUZg4xdvPyWwhXf/0tvvly5tALx2mzh8xlrXk0Ygne8FONm6fSkIFqWXrsrTLbkg8RGDrj4RMGJI63CZ3iimWP0+2sy6DomIovgLYJ/ZIxS1myjT83RJLkS0q9C+BSmn5PeGc3oZaNB3Egahy5pGNaSLPLwAe1m1nbQE8EZstSJdZA3Jcwl6EYsbrxSEf7AUDlv2/0saBLuTSCT63RcrcGCxa/vIlGc4p0gXWYFtD3GlkJXLHJsdJcH9EjpC6PQcQXYbQfZGdvkCzLdKOGF3DFzqnXtImgFhjLIyDrFW7mlB+MVembNsj262xJJY79xN/3bMXTBQ2dV3YJGuSgSWKrndacUrQeZLG7VoVnAunfhLF4pqzR6rrxG69iJu6cO/fhvDE3v+xjWoku0ePhA+GEk5llKKn3w128fLFiwTfdq8wGXiBIBDs6W2TDaJ31rVC1/BYl/+Mu3/aNeWFO69TC1H48S6XetWOBbBlLI2B/sokjebqVae0u5criA5fDBj9wqB7Hz6dGCTEo55eM7JOfhw4NjVSn4Oe5M8li5qPl/cZp/VG8gE1t2cmjDbzciUMKvtwTYyep3wpqJ4Jg0sKfKbO64pQzyzBhd7lSqHacu+DXJZoLWStpBV2K8MeixJIfGcsKJYFBOcaST21aEyuzjtPfvvJ/mqdxWybeMlinfOC4PGF/6KJa+XJZmskxgM9gNMooyFSfoEq+xiA0D8v/yBDLF9sKu3pBvIxwvM4XcTEscFLwaCWJyAvXeT0p9iujwtV1Sr7Ona6i0DW7Yck3dxjmdZUTOUh3RwwPryU5szxIaZN2a8RIWCXM/HOl9iH8NmMEuuY1aVw0E3LUXeHe4jjOEWnu5UiTPwJM0GZoNeWstQTzzbpzmRYzwDWFlA1nL5g9g/dq05YWY6MzmWWbi/mzfmQ8sK+t8b0QRTm8Rdn+JlkZ5K0yxfsgNFQ9Q6Mp2rFIYWdYRZgxVX0qzYbwyGkRNmmHMmMdfxeMNGuL0s8O6zMQhoC6UASWlpQAgVplxpkCTegCRvXJOtvZf+6PFpZZgipJL8BiLaV7hnYUvfcMjcBk1dfnrALX/1U0szMw8CawzWUFsGDbww2BhhU4l1DwEa8nVmqlTODiqRTSzJFCNQFHL+Q9J2lCTAb1A68bAfxJiAtaFJKW3a23vA2kbhDTAVp3vytAsOR0nJ67iR2h6vhVK9M0oxWCGhlDQl83E5PbJISiGfFOAh999crQzLfb73AfaNv6Kg+vUq7XyStjOO6GpDx+zi/Tml3IdczFHNzG+4WgDmFOkFyPLFwym2UgPfDsQHslo0G2FEa1mkO4qjh3fTCqnhZ36OmpUihV/06rkc0jfEJQ9HwYGNH2RD0AwSP4R0RsDMqEX6AhbSa/QyMaLSyvIOdufArXsWOrI7QPyelIOQyw1eOuo+7WgZj47mGW9WwG7oRQa6vXTr4+SoSCULSxQHMyapLd0VHpSFTUscXMxA/QbSquGUcNjFX6IL074Op4y7K4DOY4AqLpsaueigH6dnmlEL1v27pFQbLWVJtdd2V4ApWeqAXr2x63dkw69e4WhqqI0vCMCOLnk/jeovfwAywdKjg39n/QKYwPbVWjJE95oSOlW3PKnNvdgEwg8Pzq7Qog6HlDDKNuh1RAPKoPiDX5R6H4wrOGqyIWevgMOfLmm+IGXPHPC6mRnwHmJiwETXW+iQetu0MlI/pLGMjQrIu/d9C9dr9hvAcRE5g7cNWpNEIIHVBL3Tbv3/SBw1VtW3nfqN71V4Kl+vsLyyF1RX4XorDzkMfF0ndZtYPDHdZuHc5QAZWWEDRZALMAFHe/2LR9ZZPyvMSaMKeq00wenh40SSPHBnWNcDL2B5NulyRt7MPD9xu4APp9vKQGIHhZHIJZhzyOSbn+7jx0wb0n5ika7bJSTDTy9t7LSNSkGmgrkt/caMkNPS8OYticmzoSlbZR0F6nQvp0Qd59+e0TFI6VxDOttLW3KeYpT5oumYqd4fMgy+2WmjCPDs8bYO8tJWJSCzfR7qpS3215MZwqCQGe6zx0xbkms6yixvSRug9o3LZh+GPuIgBZ765PhnanfTV32Xtu2z17EpB8BTsYxfLiGRX/tKpl0JyISK6aRPxdpcPWFTeHXCjv9VrcHzK9uOQn9c57XNjkL2Kvbv1QtnyazJn6AQ8g1ZeVUeiUTpkNk/3OQNToN0AjEPfo5Yuhzg3ErtbV9bStsdgcTdV+a51y5YdGpp2jhWO7e3Xx6PUOmQUrvb0q+5k8GUGh7lsVJjDHDmj88Al5fWfumQSaG3Lq19tiKmkVFO8RK7L8tzsCCDHSvpiISk+UpKt+YKfNQ7LMMe4MbAJvy8KGRF0GHe2+0Y5BxBk7y2yZG0UzOdAHgg7gwKJ1xIAae9b2/XLxdTRxEJ1Ok+z73M4G0OqESaWUQYm18EePas7UU2jvSVuJjSg0VHLKTsH+ACyBIibQvoF5LjF6cPagKTyZ3guzfBuXwcKNLeF8vd5fqpIkCPJrOB2GUZswHbAE5K3OzBBa19t49Q7+QN4gWZiCPSgMCRuFz3Oqu/spBDpN0YQDBdJ3EYsDvXgcZzPruNJWVCRaLL/AmyWmWVYiQmOqm70pCYNMGo0e41mwXsMHqmYXYZWmpsdA6gu5Ezmg4v5xXaIJoocSuXGNoHYJyR6V6yzwJMWHFIaqBJqLOS23vzYHDNoWcDZbFWGWd9cXmJin/9oIv5vwgMAaToXv567SjhEYbNGzcTL//wKf+kXBk62DH0iFQjEoe6H2Ply8dUL6cb6vHHHlo5mFK6cL6+U2KpTeCQwcyfIHOamTjVD9U11wl5AuqwoWgZYkPZXae/aQcTQJjC2p8tRfFUKZidMAYKbPj9zfVYoj81DQRo4E502qHswQt3tjQy6+FyYDPZaHopJ89UZWVkqRT6aKXAJpWrfYcvD5glO1v+3yyIaI0gKxtKenGTQHJEggmWi6V346n3cr2slAWOXXTBezC1NMNTZcEZNs5PtdLFB/457VTZQ6t0THYQWLKdIRt/AC9TEwrT7I4qcIr4s43qW/7S7wo4IdM6lToy8UsMVvBp+jhnHvjH9XF3VEf/uADTqa2tuYGgNMEZvhNkkHkBPQJeUvgi4mgLziCfe5MaNWrUqFGjRo0aNWrUqFGjRo0aNWrUSMT/AHzU6vL4mgVtAAAAAElFTkSuQmCC;" parent="1" vertex="1">
                    <mxGeometry x="369.65999999999997" y="632.31" width="24" height="24" as="geometry"/>
                </mxCell>
                <mxCell id="19" value="" style="shape=image;verticalLabelPosition=bottom;labelBackgroundColor=#ffffff;verticalAlign=top;aspect=fixed;imageAspect=0;image=data:image/png,iVBORw0KGgoAAAANSUhEUgAAAIAAAACACAYAAADDPmHLAAAACXBIWXMAAAsTAAALEwEAmpwYAAATaElEQVR4nO1dB7QdRRleG1awF2zYFREUj1EpKk0EBUEk2IJUUUIvEqVJr6EEBQ4CASNEIHQETkBCERLKCyW893bve5AA0klCSSKhJL/zzX9fuXf/2Z3dndm777nfOXNu4O3O/DuzO+Uv3x8ENWrUqFGjRo0aNWrUqFGjRo0aNWrUqNEZ9NFKQTd9Tv2uGTToM8Fj9PZOi5QJkLeXvhKEtL6SfyP177WCiD7QabGqjT76suqkSar0q45brn5psPB/z1NlsurMX6hrP9hpcVtA9CYl27qqHK1kvVeVZS3yDz3HQ/qabvpIp0WuDvC1h3S2sdPkjsS1M9TLsJXu/E4hpI82B/1Za9m5LFH37KFkf0PHZK8E+ujjqiN6MnZee3lUlT+oelYsUW7MVheq8moh2fHiE72xNLkrBQxYRHMKDv7wznxOlb28zghYx0M6Xf2+5lDu473JW2mE9HeLDsre0SE9oH43dCorr/F7q7qfzyjPE+qex9Xv4gR5l6ulbGOn8lYeIa1n7IyIzlUd8u3gfnpn89oV1U76a+p3R1UuT+zM9unVxbKAU0hI/7Yc8C5VDlVlTMvJBS8QTgPmevqDLnpLYVlHDEK6TRgwbOzGpd47j96mrt1elfstXoKH1e86ueWMaGdVXkpp5xXVzt/0kTUN3bSCuv4yg6w75pZzRCGk1Q0deVrmuiLaQJWZKS/B6+r3mOBmerN1vd30LnXPpRb1npn5SDeP3tNcFtrrnJ318UcmQjpW6MwXdKfnAY5S0A3waSDpS70hmEPvTa0PU3765nSGKmvkkhfADCbX+6XcdY4YRDRLeAH+UrherLl4ufjLNA1cX2In84wyP+Grf1G9bNs5kTWiBUIbuxWuu9LgqTV+dsamzxWgkQtpbsIgvqB+NxHu2ylIPnXcou79lEM5zxRku8JZ/ZVESD8QOnaJ8x0wtIsRnZ+yfu80eH1EE2Lq5+Gb05AOcq6wadDPhbaeH93awYj2ETr5Zo/tjTd+1RjwBu2nFTHmrx4ngC29yNagj4ltjmo7QUgnCQPxV69t8rourbdppU8N0qpeZYP20udyWDmEdLHQ0Yd6b7ePPpvR5jBTfYnv8y6XrMv4mfd2O4aQbhdmgHIUIDgCSieQuDzXDWohfSOkfwrt/76UtjuCiO4RHvinpbWPU0hIjyS8AF2lqmSh9o7L8KfS2i8drCtvX/O2KrH98Slf/3JVflmaPNj/xGU4vLT2Swe8ZdofuEE/KaVtrK12TifQU7i1JpplOkto/8hS2u4IOvUC4CQQ0tIMm8CF2unDv1ySMuhY7+12DCHdKjzwDl7b7KUv6AGVB3qGuC/h8kjwEH3Iq2zSHiCkI7y22VHIFrYDvLXHXkfdhvX+geBhencALx+2EUjX3K5NuL4Q0TVCm3t4a6/jkKa8iE700hZUt1IHcyc/3KJxYz2B7NjpwlBlQkh3C22Oaj3AEUIHT/HUlknFu1AvC+1gI5Jpn7CT0EJxsKt7e1sbeGmrEgjpd8ID3+G8HejvZePOa2rwv58g3w6GWWCplcdPFsDoE9J/hbZWd9pOpSD5AsIC5hLsw2dy3tw79X54Jsn39us9gyv00CpiO/AYGrWYQx8WH9qVBayP3hrAtUoewHOt6oDrGJ8OpDoucSInENGmwsfwuLP6KwvZMudm3WOffWngZmtnUlsg9Ez22yO9jLmRdX+h/huc1F1pYM2Pd+p+Durd1LDuv6SWhV9rhVNEY5tlnLp2l5bCfoX895A2V9fvqf4ddy8L6WUd+Flc3slC3acUrrfywLEqPkiXWt0L/3qsndhLYMPGp4rJ+sspGqaVrSxSbV/ZfJYDVNkmQCxAlqBVWQG1c95uHTkI6VfCgz/Rcg0scvC6ZbepowL2pe8reZDzlpea5/vJzWl+Ex0DORzsGxn3VGrQt8ocis6A3a6ltRVT7qkBnDEwzXZ+IF2XJ1W5SvsX9tIE4e9LvGodK4WInqnAgFSt3NLpYfGLBn1Vvf2HNYM3y+pULBkLtOo3pPsC9ke4R/37RrHw31HmNF3LF6bEGbgroZZ1ml4iR40uoIc+HyAsi2P0XHbWc0bf/5Bmab1ClmNfGhDIMZe+qOp/SmgTPgYNHTTi8sUN6foAdgHoNkYUOOpl24ADKWRfe7tBfr3ZsYgIPrpJDbOmtvBhgGV9wmK9x/AF9iuIPxNmF2xc4Uga0tpKht+o35PV36YHvPYXeRnwnKfpCOlKg5UnxzYjb/I+bI92iuyl7wVJod0h/UO8v5d29/6ciASWZd/HeA/HAGzZnA2lWcT2o7hVB9dUCr20cvNtt4vbH3qYuCEEtvs0sJ+/VN/tpdCt9NL7VVvxTSzHDa6ceC8fb6WZK+s+Y7Z2pu0ovUwXvSPAGT3LkY33AhMDxOw36LviNUnBGOhAyb+fZSgvshZrs/yMFyTe16AfCrIvU/uVVbUzKmwNUDLZ9+fdndEd9NJmxk2YvIZNiplT2WHjCeH6Q4ztYnmQ2yjflTqkaw2Dsn7CPVOE629ruQabV37Bpls5sfKe5PxyQsrYhWqa5dv5L63JS9rFymrhOYZrQckWZ+vArNIJIkmccGQHkgdFMgpmNonvj5L2Ld30yYApZ2w2kgv9Othiig2p1+JthBvWGKs6TVxBkvNFROcZ2tzc9aNag9XUUl+MF64dK8j+utWXCw0hDFoRRRYf3hS9PDt+UBg70jZ5l2W2ksG4I5tdW+limCQqPh0itCpbe2AT+bpWSEU0tbmrvrG5s99blU9nqo/3QfFII/gXtjuP8Lm+/bqbMsoPtjJYMv+TMhaz3bGphrR1kEyc0B/AFJsXOBrF65zfohfHchLvvKXamdMWDfqRnp7Tv6DrtdbSFtiNy/UcN3hNP31C1Cjiq84DvHisVZVOUgPth3rZLAR+OFN8/TJtji1qwAi1hk2qf2v9dx446SFPsKqfvYTMZBGmpQwdbP8MEuvZy8EAowg2tvG/v1h4qmb3tzsTnqWhdRC5gHUYFGhyBz2T6FyZFRLTF6ZmnvIkv/75Vvpy3njFB8e+/NlS/jEGreeFzWeYJ/ztrKLdpsFH4+MTtK5d2TfJ/NWYmLIiPaW5BFSn0lfIzhbSC7inVb12bKRpxY64CToAaZbs03uLeL0N+maRLosBJwCzW7vdizzsYY42dHyPl/Mmb6ak8C3Ju7ffatmJaAsHg89TOY5jaYDTB2z68YGOs4DAduADYCOVNut4Ea2ZR7B7lB4E067rL3842BnEZkDSw7ex2zeFhOUrky2fYaLlM2xfsLfMwN5JXg4sHU5lIicI/WNvQgOI1kmzHmIGstF/Qz3qbvApYCaz9A0bxxkmU8viiOjSVC2BbTPt7S7XyiuLm28Sbr7Vq8ADYPNp0kBsY1mPSUGTv+A0YgMQPCTXdVSRLrIC09HGl08r+hlJXQmVbhmQjCVDZY619ctEyFyk2HL3sLrcxEr2Sv5jWUZg4xdvPyWwhXf/0tvvly5tALx2mzh8xlrXk0Ygne8FONm6fSkIFqWXrsrTLbkg8RGDrj4RMGJI63CZ3iimWP0+2sy6DomIovgLYJ/ZIxS1myjT83RJLkS0q9C+BSmn5PeGc3oZaNB3Egahy5pGNaSLPLwAe1m1nbQE8EZstSJdZA3Jcwl6EYsbrxSEf7AUDlv2/0saBLuTSCT63RcrcGCxa/vIlGc4p0gXWYFtD3GlkJXLHJsdJcH9EjpC6PQcQXYbQfZGdvkCzLdKOGF3DFzqnXtImgFhjLIyDrFW7mlB+MVembNsj262xJJY79xN/3bMXTBQ2dV3YJGuSgSWKrndacUrQeZLG7VoVnAunfhLF4pqzR6rrxG69iJu6cO/fhvDE3v+xjWoku0ePhA+GEk5llKKn3w128fLFiwTfdq8wGXiBIBDs6W2TDaJ31rVC1/BYl/+Mu3/aNeWFO69TC1H48S6XetWOBbBlLI2B/sokjebqVae0u5criA5fDBj9wqB7Hz6dGCTEo55eM7JOfhw4NjVSn4Oe5M8li5qPl/cZp/VG8gE1t2cmjDbzciUMKvtwTYyep3wpqJ4Jg0sKfKbO64pQzyzBhd7lSqHacu+DXJZoLWStpBV2K8MeixJIfGcsKJYFBOcaST21aEyuzjtPfvvJ/mqdxWybeMlinfOC4PGF/6KJa+XJZmskxgM9gNMooyFSfoEq+xiA0D8v/yBDLF9sKu3pBvIxwvM4XcTEscFLwaCWJyAvXeT0p9iujwtV1Sr7Ona6i0DW7Yck3dxjmdZUTOUh3RwwPryU5szxIaZN2a8RIWCXM/HOl9iH8NmMEuuY1aVw0E3LUXeHe4jjOEWnu5UiTPwJM0GZoNeWstQTzzbpzmRYzwDWFlA1nL5g9g/dq05YWY6MzmWWbi/mzfmQ8sK+t8b0QRTm8Rdn+JlkZ5K0yxfsgNFQ9Q6Mp2rFIYWdYRZgxVX0qzYbwyGkRNmmHMmMdfxeMNGuL0s8O6zMQhoC6UASWlpQAgVplxpkCTegCRvXJOtvZf+6PFpZZgipJL8BiLaV7hnYUvfcMjcBk1dfnrALX/1U0szMw8CawzWUFsGDbww2BhhU4l1DwEa8nVmqlTODiqRTSzJFCNQFHL+Q9J2lCTAb1A68bAfxJiAtaFJKW3a23vA2kbhDTAVp3vytAsOR0nJ67iR2h6vhVK9M0oxWCGhlDQl83E5PbJISiGfFOAh999crQzLfb73AfaNv6Kg+vUq7XyStjOO6GpDx+zi/Tml3IdczFHNzG+4WgDmFOkFyPLFwym2UgPfDsQHslo0G2FEa1mkO4qjh3fTCqnhZ36OmpUihV/06rkc0jfEJQ9HwYGNH2RD0AwSP4R0RsDMqEX6AhbSa/QyMaLSyvIOdufArXsWOrI7QPyelIOQyw1eOuo+7WgZj47mGW9WwG7oRQa6vXTr4+SoSCULSxQHMyapLd0VHpSFTUscXMxA/QbSquGUcNjFX6IL074Op4y7K4DOY4AqLpsaueigH6dnmlEL1v27pFQbLWVJtdd2V4ApWeqAXr2x63dkw69e4WhqqI0vCMCOLnk/jeovfwAywdKjg39n/QKYwPbVWjJE95oSOlW3PKnNvdgEwg8Pzq7Qog6HlDDKNuh1RAPKoPiDX5R6H4wrOGqyIWevgMOfLmm+IGXPHPC6mRnwHmJiwETXW+iQetu0MlI/pLGMjQrIu/d9C9dr9hvAcRE5g7cNWpNEIIHVBL3Tbv3/SBw1VtW3nfqN71V4Kl+vsLyyF1RX4XorDzkMfF0ndZtYPDHdZuHc5QAZWWEDRZALMAFHe/2LR9ZZPyvMSaMKeq00wenh40SSPHBnWNcDL2B5NulyRt7MPD9xu4APp9vKQGIHhZHIJZhzyOSbn+7jx0wb0n5ika7bJSTDTy9t7LSNSkGmgrkt/caMkNPS8OYticmzoSlbZR0F6nQvp0Qd59+e0TFI6VxDOttLW3KeYpT5oumYqd4fMgy+2WmjCPDs8bYO8tJWJSCzfR7qpS3215MZwqCQGe6zx0xbkms6yixvSRug9o3LZh+GPuIgBZ765PhnanfTV32Xtu2z17EpB8BTsYxfLiGRX/tKpl0JyISK6aRPxdpcPWFTeHXCjv9VrcHzK9uOQn9c57XNjkL2Kvbv1QtnyazJn6AQ8g1ZeVUeiUTpkNk/3OQNToN0AjEPfo5Yuhzg3ErtbV9bStsdgcTdV+a51y5YdGpp2jhWO7e3Xx6PUOmQUrvb0q+5k8GUGh7lsVJjDHDmj88Al5fWfumQSaG3Lq19tiKmkVFO8RK7L8tzsCCDHSvpiISk+UpKt+YKfNQ7LMMe4MbAJvy8KGRF0GHe2+0Y5BxBk7y2yZG0UzOdAHgg7gwKJ1xIAae9b2/XLxdTRxEJ1Ok+z73M4G0OqESaWUQYm18EePas7UU2jvSVuJjSg0VHLKTsH+ACyBIibQvoF5LjF6cPagKTyZ3guzfBuXwcKNLeF8vd5fqpIkCPJrOB2GUZswHbAE5K3OzBBa19t49Q7+QN4gWZiCPSgMCRuFz3Oqu/spBDpN0YQDBdJ3EYsDvXgcZzPruNJWVCRaLL/AmyWmWVYiQmOqm70pCYNMGo0e41mwXsMHqmYXYZWmpsdA6gu5Ezmg4v5xXaIJoocSuXGNoHYJyR6V6yzwJMWHFIaqBJqLOS23vzYHDNoWcDZbFWGWd9cXmJin/9oIv5vwgMAaToXv567SjhEYbNGzcTL//wKf+kXBk62DH0iFQjEoe6H2Ply8dUL6cb6vHHHlo5mFK6cL6+U2KpTeCQwcyfIHOamTjVD9U11wl5AuqwoWgZYkPZXae/aQcTQJjC2p8tRfFUKZidMAYKbPj9zfVYoj81DQRo4E502qHswQt3tjQy6+FyYDPZaHopJ89UZWVkqRT6aKXAJpWrfYcvD5glO1v+3yyIaI0gKxtKenGTQHJEggmWi6V346n3cr2slAWOXXTBezC1NMNTZcEZNs5PtdLFB/457VTZQ6t0THYQWLKdIRt/AC9TEwrT7I4qcIr4s43qW/7S7wo4IdM6lToy8UsMVvBp+jhnHvjH9XF3VEf/uADTqa2tuYGgNMEZvhNkkHkBPQJeUvgi4mgLziCfe5MaNWrUqFGjRo0aNWrUqFGjRo0aNWrUSMT/AHzU6vL4mgVtAAAAAElFTkSuQmCC;" parent="1" vertex="1">
                    <mxGeometry x="463.89" y="637.81" width="21.5" height="21.5" as="geometry"/>
                </mxCell>
                <mxCell id="30" value="" style="shape=image;verticalLabelPosition=bottom;labelBackgroundColor=#ffffff;verticalAlign=top;aspect=fixed;imageAspect=0;image=data:image/png,iVBORw0KGgoAAAANSUhEUgAAA+kAAAPoCAYAAACiYb/aAAAACXBIWXMAAAsSAAALEgHS3X78AAAgAElEQVR4nOzdT4xV150v+p1AF2lKwoVbpM19SFWR1UYCtSEDIqGWMBkkA1qm3YPTM8dEsifu8JIrlXtky45s3SvFJaWvSHsSS8HtpzepQXKJLoP0IJjBLSlcycZX5jWWrFRd8druRteUkeDFxE4//Tbn4AKqoOr822ut/flIJTu2A+fsfTh7f/f6/X7rSxWwbhMLnZmqqma6//3+qqqmun//QPd/r7Ty3wMAlObMHe9nsaqqpe7fL1dV9U7v728cnH/H2Yf1EdKha2KhM7UiWO+/I3gfdpwAAAb2TjfA9wL9Yu/nxsH5RYcXhHRaaGKhc7i7Gh4/+7qhXAgHAGheL8S/tSLAv3Pj4Pyyc0NbCOkUq1uavr/789iKYA4AQF56gf2tFcFdCT1FEtIpQjeQH+6ujO+3Mg4A0Apnuqvv5wV3SiGkk6VuyXovlB82oA0AgBUD697qBXil8uRGSCcLK0L5Y1bJAQDYgHe6gb0O7kI7qRPSSdLEQidK1p8QygEAGLJeaP+vNw7O37mNHDROSCcJK3rK/0r5OgAAY/SL7ir7L2wDRwqEdBqzYrX8r1bsRw4AAE1Z7Ib2NwyhoylCOmPVDeZPdcO57dAAAEjVcjewR1n8L5wlxkVIZ+QmFjq91fInlLEDAJAhgZ2xEdIZCSvmAAAUSmBnpIR0hqY7/O1YN5wL5gAAlE4PO0MnpDOQiYXOVHe1/ClbpQEA0GIR0t+oquqkvdgZhJBOX7rl7N/XZw4AAHc52V1dtw87Gyaks24rVs2/b8s0AAC4ryiH/y9W19kIIZ376vaaf7/bb27VHAAANi5W1/+L3nXuR0hnTRMLncMrStoBAIDBnemWwp90LFmNkM5dJhY6sWL+ogntAAAwMkrhWZWQTq3bb/6D7sq5knYAABiP5RVhfdExR0hvOeEcAACSESXwPxTW201Ib6nuMLgXu8PgAACAdAjrLSakt4xwDgAA2RDWW0hIbwnhHAAAsiWst4iQXrgVPecvtv1YAABA5oT1FhDSC2UgHAAAFOvvu2Hd1m0FEtIL1N3n/MfCOQAAFKu3ddvfC+tlEdILMrHQOVxV1c+qqppp+7EAAICWWOyuqp90wssgpBegOxQuwvnhth8LAABoqXeqqvqPNw7On/EByJuQnrFu3/mL3d5zAACAX3TDuuFymRLSM6XvHAAAWEPdr37j4PxLDlB+hPTMTCx09nfDudJ2AADgXmI1/btK4PMipGdCaTsAANCnX3TDuinwGRDSMzCx0HmiOxhOaTsAANCP5e4U+L939NImpCesu3oe4fyJth8LAABgKM50B8u943Cm6cttPwCpmljoRFn7bwV0AABgiGK21dsTCx1D5RJlJT0x9jwHAADG5J1ur7pV9YRYSU9Id/X8bQEdAAAYg/1W1dNjJT0Bes8BAICGWVVPhJX0hnUnt+s9BwAAmhSr6r/uVvfSICvpDemunv+4qqpjrTwAAABAqmIC/F/bV70ZQnoDJhY68ZTq51VVzbTuzQMAADlY7pa//8LZGi/l7mO2YjicgA4AAKQqKn9/PrHQ+bEzNF5W0sfEcDgAACBT73TL3xedwNET0sdAeTsAAJA55e9jotx9xJS3AwAABVD+PiZW0kfE9HYAAKBQUf7+TdPfR0NIH4FuefvPunsNAgAAlGa5G9TfcWaHS7n7kE0sdGIw3K8FdAAAoGBROfz2xEJH5fCQCelDNLHQeak7IG6qmDcFAACwtp9NLHR+5vgMj3L3IdB/DgAAtJw+9SER0gfUDejK2wEAgLZb7O6nrk99AEL6ALoD4n6tvB0AAKC23A3qZxyO/uhJ79OKAXECOgAAwE11pbGBcv0T0vvQ/cAZEAcAALC6GCj3Y8dm45S7b1D3g/aDrF40AABAM07eODj/Xcd+/YT0DehuLaBsAwAAYP1Mft8AIX0duhPcI6A/kfyLBQAASI+gvk5C+n3YYg0AAGAoIqh/1xZt9yak34OADgAAMFTL3RV1QX0NpruvYcUe6AI6AADAcPS2aJOz1mAlfRUrArot1gAAAIbPivoahPQ7COgAAABjIaivQrn7CgI6AADA2PRK3+2itYKV9C4BHQAAoDEx9f2kwy+k1wR0AACAxrU+qFdCuoAOAACQkOhRP9PmE9LqkC6gAwAAJKX1w+RaG9IFdAAAgCS1Oqi3MqRPLHQimL9dVdVMAi8HAACA27U2qLduC7ZuQP+1gA4AAJCs3vZs+9t2ilq1kr4ioLfuRAMAAGQoVtS/duPg/HJbTl7bVtIFdAAAgHz0VtRbM0usNSF9YqHzMwEdAAAgO/vbFNRbEdK7Af1YAi8FAACAjYug/rM2HLfiQ/rEQucHAjoAAED2nuguwBat6JA+sdCJcP7jBF4KAAAAgzvWXYgtVrHT3buj+t9O4KUAAAAwXN+9cXD+ZInHtMiQPrHQmekG9NZMAAQAAGiZr984OP9OaW+5uHL37sS/nwvoAAAARft1d4G2KCX2pP/cVmsAAADFqxdoS9uaraiQPrHQiSFxhxN4KQAAAIxecVuzFRPSu5Pci57yBwAAwF1ia7aXSjksRQyO605y/7U+dAAAgNb66xsH53+R+5vPPqR3+w9ikntxAwMAAABYt+Wqqr6Z+8T3Esrdfy6gAwAAtF4s4P4s90FyWYd0g+IAAABYIftBctmG9ImFzhMGxQEAAHCHGCSXbVbMsie9u2H92wbFAQAAsIav59ifnutK+s8FdAAAAO7h5zn2p2cX0rt96PsTeCkAAACkaybH/vSsQro+dAAAADYgu/70bHrSu2UKv1XmDgAAwAZl05+e00q6PnQAAAD6kc3+6VmE9G55gv3QAQAA6EfMNXsxhyOXfLn7xEJnf3e7NQAAABjEX984OP+LlI9gDivp2U3jAwAAIEnJl70nHdInFjov2W4NAACAIZlKfSE42XJ3Ze4AAACMSLJl70mG9G75wdvdzecBAABgmJarqvrajYPzy6kd1VTL3X8goAMAADAiyZa9J7eSrswdAACAMUmu7D3FlXTT3AEAABiH5Ka9JxXSTXMHAABgjCKg/zilA55MufvEQid60H+bwEsBAACgXb554+D8mRTecUor6crcAQAAaEIyeTSJkD6x0DlWVdXhBF4KAAAA7TPTbb9uXOPl7t0m/d92ewEAAACgKbF3+mKTRz+FlfQXBXQAAAAS0HjZe6Mr6fZEBwAAIDGN7p3e9Ep6UqPuAQAAaL1Gc2pjIX1iofOEYXEAAAAkptEhco2Uu3eHxUWZ+0wTvz8AAADcw3JVVV9vYohcUyvpPxDQAQAASNRUd8j52I19Jd2WawAAAGQiVtPfGedLbWIl/ccCOgAAABkY+xC5sa6kTyx0Zrqr6AAAAJCDb944OH9mXK9z3CvpjW8MDwAAABsw1hw7tpA+sdA5bMs1AAAAMhNbsh0b10se50p6I5PxAAAAYEBjy7NjCelW0QEAAMjY2FbTx7WSbhUdAACAnP24u6X4SI08pFtFBwAAoAAR0H8w6rcxjpV0q+gAAACU4PujXk0faUi3ig4AAEBBRr6aPuqVdKvoAAAAlGSkq+kjC+lW0QEAAChQBPQnRvW2RrmSbhUdAACAEo0s744kpFtFBwAAoGAj2zd9VCvpVtEBAAAo2Uhy79BD+sRCZ8YqOgAAAIWL1fSh96aPYiXdKjoAAABt8P1hv8cvDfMX666i/3aYvyYAAAAk7Js3Ds6fGdbLG/ZK+kga5wEAACBRTw3zZQ07pA99qR8AAAASdqxbVT4UQwvp3fHzUz45AAAAtMzQqsqHuZJuFR0AAIA2GloeHkpIn1joxJZr+4fxawEAAEBmprrV5QMb1kr6UBvlAQAAIDNDWU0feAu2iYVO9KFfyezgAQAAwLB9/cbB+XcG+TWHsZJu2zUAAAAYwmr6MEK6gXEAAABQVU90q837NlBI7w6MG9p+cAAAAJCxCOhPDPLyB11JNzAOAAAAvjBQtXnfg+O6S/i/7T4pAAAAAG762o2D84v9HItBVtKfENABAADgLn2vpg8S0pW6AwAAwN367kvvK6RPLHRiWNxhJwIAAADuMjOx0OkrqPe7kj7QtDoAAAAo3F/18/b6Den2RgcAAIC1jWclfWKhs9/e6AAAAHBPUxMLnWMbPUT9rKQbGAcAAAD3t+GS935Cun50AAAAuL8nJhY6G9q6fEMhXak7AAAAbMiGFro3upKu1B0AAADWb0Ml7xsN6UrdAQAAYP1Gs5Ku1B0AAAA2bmKhs+6gvpGV9MPOBQAAAGzYukveNxLS9aMDAADAxg13JX1ioRNl7vudCAAAANiwqYmFzrqq09e7kq7UHQAAAPq3rpL39Yb0DY2MBwAAAG5jJR0AAAASsb/bSn5P9w3p3br5KWcVAAAABnLfBfD1rKQrdQcAAIDB3TdfryekK3UHAACAwQ22kj6x0Jmy9RoAAAAMRWzFds+Mfb+VdKvoAAAAMDxP3OtXul9If8yJAAAAgKG5Z862kg4AAADjc8+cvWZI148OAAAAw9fd6nxV91pJt4oOAAAAw9dXSNePDgAAAMO3Zt62kg4AAADjtWZr+b1Cun50AAAAGL4190tfNaTfq4kdAAAAGNj6Q7pSdwAAABipVfvS1wrp+5wLAAAAGJkNraTrRwcAAIDRWV9In1joTFVVNeNEAAAAwOisNg9utZV0q+gAAAAwenfl782r/JaGxgHAkE1tnqwe3Xp7odr0lh3VzJYdq/5G8e+mt3x1ZKdh6dN/q5Y+vbzqvzt/fbFa/uz6bf/s3fqfXRvZ6wGAlrprHtxqId3QOAC4h32TM9UDmybr/+CxbXtu/YePTs5UU91//sDmrdW+rSl3j+1Zx3+ztgjyn3SD/PLn16p3ry3e+m/funqh/usnn1+rzq/45wDAXe5aSf/Snf9gYqHzWz3pALRRb/V6akXAPrRtb/3Xm/9u9VVv7i9W7Xsr92evvlf/tbdif69VfQAo3Y2D87fl8tVC+r/7FABQol4I3zc5Xa9491a+H+3+b5p1c0V+6dbK/HK9Er8kxANQum/eODh/pvcebyt3X22yHADkpBfEowz9gc2T9Yq4VfA8xIOSQ932gaPbD9z1mnsl9rESL8ADUJDbKtnv7ElX5g5AFqIvPIJ3hPBHV/w95fqiBeHufvqzVy/cWoGPMB/BXT88AJkQ0gHIx8qVcWGctay1Ah+BPYJ7hPYYaGdKPQAJemzlS7ozpD/mjAHQlJWr4zGwTa84g4rPUu+hzvPdX6vX+x5l8xHiz3dDPAA0xEo6AM2rw/jkzTB+M5QPtiUYrFev933lZ05wB6BBt+Xw26a7m+wOwChMbZ6sHt06c6tkPcKRFXJSF8E9et2jXD5K5XtbxwHACHz9xsH5d6qVIb072f3XjjYAg4pV8nqFvBvI9ZBTilhlP9sN7FbbARiiv75xcP4X1R3l7lOOMAD9iDDeWymPcG67M0rV63E//tCR+h1GSI/A3ltpF9oB6NP+qqruCun7HU0A1qO3Un70wQNK12m1+LPw5I7D9U8ltAPQv+ne/3NlSH/AAQVgNb1QbqUc7u1eof2XV87Z/g2AtdzqDVzZkx796IcdMgDCzVXyvXrKYYh6Pe2nPj5nEB0AKy3eODj/teqOkP62kneA9ooVwF4wP7r9gE8CjFhvenwvsCuNB2i3Gwfn63y+MqTbfg2gZXp95RHKlbBDs3qr7G9ePlNPjgegdb524+D8Yh3SJxY6Mdn9is8AQNliv/LHtx+oe8sff/CAgW+QqFhl/+XH56pTV87VwV0vO0ArfPPGwfkzvcFxytwBCrVyErsydshDPEBbOYAuwnqUxRs+B1C0elv0zc4xQHl6/eVxg2/oG+QvHrD1HrLVfexXflOHdn3sAEWp90q3kg5QCMEc2uFQvRXinmpu+ljdxx497AI7QDl6IX3KOQXIj2AO7RZ/7vdNH7sV2E98eFpJPEC+9lUrQvoDTiRAHnrD3/SYAytFYH/94Wfrf6KHHSBLt/WkK3cHSFxvxVwwB+5nZQ97XQ7fDe0ApM/gOICE7Zuc6U54fsx2aUBfelPiY1u3Ny+/ZR92gHTVW3r09kl/22o6QBqinD1C+fGH/rLuOQcYtt7AuQjtyuEB0nHj4PyXeiH9350XgGYpZweaoBweIB1COkDDYqX8O91SVKvmQJNiC7cI7P94+Yzt3ACa800hHaABVs2BlMXKem//dQDG6ptfmljoRC/62447wGhFr/nxh45YNQeyESvqJz76b3rXAcanDukxQe7XDjrAaBzatrf6zo7H6nAOkKtYWT/x0WmT4QFGS0gHGJUI5cd3Hqn2bZ1xjIFinL16oe5bj9AOwND9RyEdYIh6Je3f23nEvuZA0XqD5mJ1XSk8wND8UEgHGILoMX9hV0dJO9BKEdZfvjRvKjzA4H64uaqq/Q4kQH+i3zzC+aFtexxBoLWe7G4lGVPhT3x4ujp79T0fBoA+RUifcvAANka/OcDdYlvJ+NG3DtC/zY4dwPpFOI+Vc1uoAawtqoviJ74vowxeWAdYv02bnt4bDZSaKAHWEMPgnvsPT1Tzu5+r/uZP/qL+3wDcX3xfHn3wQPWdmNfxpap6/3f/Uv3uD7935ADWtiikA6yhF87f/LPvV9+e2l995csTDhVAH+L7NL5Hn/nTb1V//OWJ6t3rS8I6wOqWlbsD3ME2agCjEd+pz+/q1N+vP/nwtO3bAFYhpAN0CecA4yGsA6xNSAdaTzgHaIawDnA3IR1oLeEcIA3COsAXhHSglV7o3gwK5wDp6IX12O7S1m1AW33ZmQfaJG783v/6P9Q3gQI6QJqmt+yoXn/42fr7Or63AdpESAda4dC2vfXNXtz0xc0fAOnrhfXfPPqj+nscoA2UuwNFi5u6KG0/tG2PEw2QqX1bZ6p/2vNidfbqhWp26WR1/tqiUwkUS0gHihSrLy90+xoBKEM8cP3Nn/+o7lWPnvWlTy87s0BxhHSgKL2J7dFzDkCZ4gHs4w8eMAkeKJKedKAYcdN28es/EdABWqA3CT5W1lVNASUR0oHsRd95DBWK4UImtgO0S2+43D/teclwOaAIQjqQrbgxm9/9XD1MKIYKAdBe0a8e14P6ge1mD2yBfAnpQJZiKFysnh/dfsAJBOCWXuvT8Z1HHBQgS0I6kJXefufRh6i0HYDVxPVhbvpYfb1QAg/kRkgHsrCytD3+HgDuJ64XSuCB3AjpQPKiZFFpOwD9UgIP5MQ+6UCy9k3OVD99+FlD4QAYWK8E/uj2b1SzSyer89cWHVQgSVbSgeRESeLczLF671sBHYBhiinwcX2JAaRK4IEUCelAUuo9z//8R9Xxh5QkAjA6MYA0rjcGywGpEdKBJMRqhsFwAIxTb7BcVG9ZVQdSIaQDjTv64IF6oI/BcAA0Iaq3YlU9rkcATRPSgcb0Vs/nH3nOnucANKre6vOR5+rrklV1oElCOtAIq+cApCiuS/X1yao60BAhHRgrq+cApC6uT3Gd0qsONEFIB8YmJuhaPQcgF71edRPggXES0oGR6+17HhN0rZ4DkJOVE+ABxkFIB0Zq3+SMfc8ByF69qv7oj+rrGsAoCenAyLywq1MHdPueA1CCfVu7D553evAMjI6QDgzdzdLAl6rnd3UcXACKMzd9rL7OGSoHjIKQDgxVbFkT5YCHtu1xYAEoVlznYhiqoXLAsAnpwNDEUB1bqwHQFnG9M1QOGDYhHRhYlLfH6rnhcAC0UW+onBkswDAI6cBAeuXtMUwHANqqHir36I/q6yLAIIR0oG/K2wHgC3E9jOui8ndgEJsdPWCjopxvfvdzVs8BYBVR/h7XyM77r1bLn11ziIANsZIObEhMsVXeDgD3Zvo70C8hHVi3F3Z16im2ytsB4P5609+P7zRYFVg/IR24r6nNk3V5+/O7Og4WAGzQ3PSx6vWHn62vpwD3I6QD97Rvcqb61Z4Xq6PbTasFgH49ueNwfT21TRtwP0I6sKbYRiZuKPSfA8Dgetu06VMH7kVIB1YV/XO2VwOA4er1qcfKOsBqhHTgNtEvF31z0T8HAIxGXGvjB+BOQjpwSwT0X3m6DwBjEdfbKH83UA5YSUgHajEgLvZz1X8OAOMT1916/suk6y9wk5AO3BoQp/8cAMavF9QNlAMqIR2IUjsD4gCgWQbKAT2bHQlorxhY42YAANIR1+aZLTuqly/NOyvQUlbSoYV6E9wFdABIz/O7Oia/Q4tZSYeW6U1wNyAOANIVD9Knt3y16rz/arX82TVnClrESjq0yPSWHQI6AGTi0LY9Nwe72qINWkVIh5aIrV1iL1YBHQDyEdft3/z5j2zRBi0ipEMLxIXdFmsAkKdblXCCOrSCkA6Fswc6AOQvruOCOrSDkA4Fswc6AJQjrudR+m53FiibkA6Figu47VsAoDy2UYWyCelQIAEdAMomqEO57JMOhXlhV6d6flfHaQWAwvUeyL95+YxTDQUR0qEgnqoDQLsI6lAe5e5QCAEdANop7gHmZo45+1AIIR0KIKADQLsdf+iIeTRQCCEdMiegAwCVwbFQDCEdMiagAwArCeqQPyEdMiWgAwCrifsDPeqQLyEdMiSgAwD3Ej3q7hUgT0I6ZCb2QXfRBQDux0N9yJOQDhmJC+3zuzpOGQCwLoI65EdIh0wYBAMA9ENQh7wI6ZABAR0AGISgDvkQ0iFxAjoAMAxxP7FvcsaxhMQJ6ZCwuJDOzTzlFAEAQ/GrPS8K6pA4IR0SFRfQuJBObZp0igCAoYj7CkEd0iakQ4Kmt+wQ0AGAkYj7i/lHnqumNrvPgBQJ6ZCYuGDO735OQAcARubWgoCgDskR0iEhcaGsS9C2KkEDAEYr7jdiRR1Ii5AOCZmbfkpABwDG5tC2PXaRgcQI6ZAI+5cCAE2I+48XdnUce0iEkA4JiIujgA4ANOX5XR33IpAIIR0advTBA8rMAIDGxf2IrdmgeUI6NCguhD8V0AGARNhDHZonpEND6q3WHrHVGgCQjrgviQUEW7NBc4R0aEg8qY49SgEAUmJrNmiWkA4NqHu+bLUGACQqtmabmznm9EADhHQYM5PcAYAcHH/oiHsWaICQDmN0aNtek9wBgGzMzTxlkByMmZAOYxL95/O7Zx1uACAbMUiuHnRrkByMjZAOYzK/2yR3ACA/9UKDQXIwNkI6jIFBcQBAzgySg/ER0mHEDIoDAEoQg+SOPnjAuYQRE9JhhGLQSgxcAQAowU+jOtAgORgpIR1GJAasxIVMHzoAUIq4r6nvbwySg5ER0mFEfqoPHQAoUNzfzE2rFIRREdJhBI7vPFId3a5nCwAok5k7MDpCOgxZ9Gk9v6vjsAIARYu5O7E9GzBcQjoMkT50AKAt4n5nfrf902HYhHQYolhB14cOALRF3Z9u/3QYKiEdhiT2DY39QwEA2iTufw5t2+ucw5AI6TAEvTJ3AIA2mt89a1s2GBIhHYZg/pHn9KEDAK3V2z8dGJyQDgOK7dYObdvjMAIArRbbz9qWDQYnpMMAbLcGAPAF27LB4IR0GIDt1gAAvhD3Ra8//LeOCAxASIc+vWC7NQCAu0QbYLQDAv0R0qEPytwBANYW90nK3qE/Qjr0wfRSAIC1KXuH/gnpsEHK3AEA7k/ZO/RHSIcNiLItZe4AAOuj7B02TkiHDVC2BQCwfsreYeOEdFinKNeKsi0AANYv7p+OPnjAEYN1EtJhHaY2TypzBwDoUwzdjfsp4P6EdFiH+sKyyYUFAKAfcR9lwQPWR0iH+zi0bW91dLsSLQCAQRx/6Eh9XwXcm5AO9/G6PdEBAIZibuYpBxLuQ0iHe3jBtiEAAEOzb+uMvdPhPoR0WEOE8++5iAAADFX0phsiB2sT0mENczPHDIsDABiyuL+am1b2DmsR0mEVhsUBAIzOkzsOGyIHaxDSYRWGmgAAjNYLtmSDVQnpcIcYZhJDTQAAGJ1D2/bUK+rA7YR0WCGGmDzvqS4AwFi8YIgc3EVIhxWOP3TEsDgAgDGJ3XTi/gv4gpAOXXGRsIoOADBeseWt1XT4gpAOXYaXAACMny3Z4HZCOlRVtW9yxuASAICGxH1YVDUCQjrU5qaPORAAAA1S1Qg3Cem03qFte+stQAAAaE6spsd9GbSdkE7reWoLAJAG92UgpNNyVtEBANIR92VW02k7IZ1We/3hZ9t+CAAAkmI1nbYT0mktU0QBANJjNZ22E9JpLU9pAQDS5D6NNhPSaSWr6AAA6bKaTpsJ6bSSp7MAAGlzv0ZbCem0TjyVtYoOAJA2q+m0lZBO63gqCwCQB/dttJGQTqvYFx0AIB9x37ZvcsYZo1WEdFrF01gAgLwcf+iIM0arCOm0RjyFtYoOAJAXu/LQNkI6reEpLABAnlRD0iZCOq0QT1/jKSwAAPl5/MED1dTmSWeOVhDSaYXvCOgAANma2jSpKpLWENIpXjx1/d5OX+oAADlTFUlbCOkU7/HtB+qnrwAA5Ev7Im0hpFM8g0YAAMqghZE2ENIp2qFte23ZAQBQiNhON7bVhZIJ6RTtuF50AICiGCBH6YR0ihUr6Ee3H3CCAQAKEn3ptmOjZEI6xdKzBABQpid3PObMUiwhnWKZ/gkAUKbjD/2lM0uxhHSKdPTBAwbGAQAUKu7zYkAwlEhIp0hW0QEAyvYdJe8USkinOAbGAQCUzwA5SiWkU5wodQcAoHyPW5ihQEI6xTFIBACgHY7vtGc65RHSKcq+yRkD4wAAWmLfVvd+lEdIpygGxgEAtMvxnaooKYuQTlGeNOUTAKBVDAymNEI6xYiBcVObTPgEAGiTKHePlkcohZBOMTxFBQBoJy2PlGSzs0kpHrf1WpLOXr0wtpf16OS0aopELH16uf4Zh1hBaXJoUJvea058BhmnBzZvrQeY0ZxoeZxdPOkMUAQhnSIodU/PK5fmqxMfna6WP7s21tcWT9LnZp7yeWhIPJR5+dJ8dfbqe2N9AVHmOFETYEMAACAASURBVDd9rDq0bc/Yfs/z1xer2cU3WvFec9LUZ/DQtr3VC7s6rfgMsrp4UDM3c0xlX0Piuh/3g6c+PtfK909ZNm16em/UhqgPIWvP/Ycn9CIlYvnza9Xj//yfqzcvn6l+94ffj/1FvXt9sZr/3/+9OvTA3uqhP5pK9CiVKc555/1XG1nR+9ffL9e//8yY+hJPXTlX/c37c9XF/+//Hfnvdadxv9ecNPkZjN9znOclfq/H//k/WUFPyCefX6+vP3FOjqrua8Snf/h9/f0MmVvUk04RlLqn45UGVrDuFDdIz3zwWrLHqESxovd0Asc8XsOoWyx6n69xV4ncKd6rm9EvxHlv02dwdumNkf4e9C8eoPiz2Qz3g5RCSCd7St3TETeOJz48ncTrOX9tsb5RYjyi5DYVT3/wDyN9JVFK3XRA74mHBVZSb4rzkopRv5aUPoOsTm90M+J+MFpPIHdCOtnT+5WO1ELxP15+K4FXUb5ocUipJzZCa6zsj8ovE1ohi6AW5d1tF+c8pc9gvJZRPjzxADJ9Nz+T4xucyhe0GlACIZ3sKW1KxyiDUT8MUxqPd68tJfeaPvns+kh+3fiMp7aCGVUjs0vtXrVLsZpgVK9J8MuHa1AzLN5QAiGdrEVJk1L3dCyPKBhBKkYV/gcVbSZ6YAFuTtk3VJPcCelkTUkTwE360wFusppO7oR0suZLGOCmKMNPYbo5QNO0QpI7IZ1sRTlT/ABwU/TAvpLQlHOAJuzbOuMekawJ6WRLqTvA3WJ7LsPFgLazFRs5E9LJli9fgNXFtmyxNR5AW1nMIWdCOtnSjw6wunr/9Itzjg7QWoe27XHyyZaQTpasogPcm/50oM1ii15bsZErIZ0sKWECuL/oTz9/fdGRAlpJ1SW5EtLJkhImgPXpXNSfDrSTyktyJaSTnanNk/XWGgDc39Knl6tn7J8OtJBFHXIlpJMdX7gAG3Pq43PViY9OO2pA61hNJ0dCOtnxZQuwcbOLJ/WnA63zmMUdMiSkkx0r6QD90Z8OtI3FHXIkpJMV/egA/dOfDrSNxR1yJKSTlUcFdICBRH/6m5fPOIhAa1hNJzdCOlnRVwQwuNmlN/SnA62xb3LaySYrQjpZ8SQUYHDLn12ry971pwNt4P6R3AjpZEVfEcBwnL+2WM0uvuFoAsVz/0huhHSysW9SPzrAMEVvuv50oHRTmyar6S07nGeyIaSTDUPjAIZPfzrQBhZ7yImQTjZ8uQIMX68/HaBktvAlJ0I62fDlCjAadX/60klHFyiW4XHkREgnG4Z+AIzOiQ9PV6eunHOEgSI9ahs2MiKkkwWl7gCjF2XvS59edqSB4hgeR06EdLJgaBzA6EV/euf9Vx1pGALl1emx6EMuhHSyMOPJJ8BY6E+HwcWKrTa99JhvRC6EdLLgaTTA+OhPh8HMzRxzBBP0qJV0MiGkkwXDPgDGK/rTlz+/5qjDBh3feaQ6uv2Aw5YgPenkQkgneVObJ+thHwCMT92ffnHOEYd1in7n+d3PVXPTVtFTpdydXGx2pkidoXEAzTh79b3qlUvz1fO7Os4Aa3pyx+HqOzsOt/oAxQqtVdo8xMOUmL0BKRPSSZ6LHkBzXr40X88FMQSLtcwYkkZG4r5SSCd1yt1JnsnuAM2Kbdn0pwMlUPJODoR0kmeyO0Cz9KcDpVChSQ6EdJL3wOatThJAw3r96QA5m97yVeeP5AnpJE9ZEkAaoj/9/HW9nEC+bOtLDoR0kqYkCSAtnYv604F82daXHAjpJE1JEkBalj69XD3zwWvOCpAt845InZBO0qykA6Tn1MfnqhMfnXZmAGAEhHSSZvs1gDTNLp7Unw5k6TH7+pM4IZ2kWUkHSJf+dAAYPiGdpOlJB0hX9KfPLr7hDAFZ0ZNO6oR0AKBvb14+U/8AAMMhpJO0Q3qGAJI3u/SG/nQgG9opSZ2QDgAMZPmza/W2bPrTgRwI6aROSCdZvkAB8nH+2qL+dAAYAiGdZBkaB5AX/elALgyPI2VCOgAwNNGfHlPfAYD+COkkS7k7QH6iP73z/qvOHAD0SUgnWTNCOkCW6v70pZNOHpCsfZPTTg7JEtIBgKE78eHp6tSVcw4skKSpTZNODMkS0gGAkYht2fSnA8DGCOkky9RNgLzpTweAjRPSAYCR0Z8OpMhiECnb7OwAAKMU/elHt3+jOrRtj+NcoLeuXqiqS/Otff+xG830lq/6fANDI6QDACMXZe8Xv/4Tw5oKdPbqe/VP20VYf2FXp3pyx+G2HwpgQMrdSdYDm7c6OQCFqPvTL845nRQrhiQ+/cFr9Q/AIIR0krVv64yTA1CQWG19pcVl0bTDm5fPVCc+Ou1sA30T0gGAsXn50nx1NnqYoWAeRqUv2hMgVUI6ADBW0Z++/Pk1B51iRXuHh1FpE9JJmZAOABk7vvNIdjeb+tNpA8P0gH4J6QCQsZiW/vrDf5vdG4gAo28XAO4mpANA5mJ/5tj6KTeziyer89cXffwAYAUhHQAK8PyuTnVo297s3kjnov50AFhJSAeAQszvnq2mNk9m9WZib+ln7CsNALcI6QBQiOhPn3/kuezezKmPz+lPB4AuIR0ACqI/HQDyJqQDQGGiP33f5Ex2b0p/OgAI6QBQpCh7z7E/fXbxjQReCQA0R0gHgAJNb9lR/fThZ7N7Y29ePlP/AEBbCekAUKij2w9Ux3ceye7NzS69oT8dgNYS0gGgYHPTx7LrT1/+7Fq9LZv+dADaSEgHgMLl2J9+/tqi/nQAWklIB4DC6U8HuF0MqoRUCekA0ALRn/7kjsPZvdHoT3czDQyb7xVSJqSTrLNXLzg5AEM0N/NUlv3pnfdfTeCVAMB4COkA0BJTmybrsvcs+9OXTibwSgBg9IR0AGiRfVtnqrnpp7J7wyc+PF2dunIugVcCAKMlpANAy0Rveo796bEtmz5SAEonpANAC+lPB9rs7NX3nH+SJaSTLF+eAKPT60/PTfSnv3Jp3icDgGIJ6QDQUnV/+syx7N78y5fm7QACQLGEdABoseMPHamOPngguwMQZe/Ln19L4JUAOfL9QcqEdJK1aDgQwFhE2fv0lh1ZHey6P/3iXAKvBMjR+WtLzhvJEtJJlgm+AOMR/enzu5/L7mjH7BL96QCURkgHADLvTzdolPQ8sHnSWUnYJ8rdSZiQTrKWPv03JwdgjHLtT3/ZajoJOrRtj9OSsNgpAlIlpJMs5e4A4xf96VNWAGEgMeMhqlMA+iGkAwC31P3pj+TXnw4pybF1pE0sBJE6IZ2k2QcXYPyiTPeFXR1HHvrw+sPPVke359c20iZCOqkT0gGAuzy/q1Md2rbXgYF1ij8v/7TnperJHYcdssTZI53UbXaGSNn564sGrwA0ZH73bLX77e/Ve5LDWiKUfqflwfTRyem6VYQ8vGtoHIkT0knaJ24MARrT60//1oWXnATWNLNlhwfqAEOk3J2kLeoZAmiU/nSgNG+ZeUTihHSSZrAHQPOiP33fpO2kAGAchHSStvTpvzlBAAmIsnf7pwMlOHv1PeeRpAnpJM1KOkAaprfsqH768LPOBpA1k93JgZBO8mLCOwDNi72fj+884kwA2Xr32pKTR/KEdJL3yWfXnSSARMxNH9OfDmRLKyU5ENJJnr4hgLToTwdypZWSHAjpJM82bABpif70uemnnBUgO7ZfIwdCOsnzxBMgPU/uOFz/AOTkE4PjyICQTvLeNTgOIElzM0/pTweycv6a+0rSJ6STvOXPrtkuAyBBU5sm623Z9KcDObBjELkQ0smC7TIA0rRv64z+dCAL71pFJxNCOlnw5BMgXfrTgRyYc0QuhHSyoH8IIG3Rnx5T3wFSZbI7uRDSyYLhcQBpi/70+d3POUtAstxPkgshnSxYSQdIX92fPnPMmQKSE6XuMYwYciCkkw196QDpO/7QkerogwecKSAp7iPJiZBONkzkBMhDbMumPx1IiftIciKkkw1PQAHyoD8dSI2hceRESCcbZ325AmRDfzqQEkPjyImQTjYMjwPIS/SnH9q211kDGhXVmIbGkRMhnaxYTQfIy/zu2Wpq86SzBjTG/SO52eyMkZOzV9+rDm3b45yxbq9cmm/1wXpg82T9ZyZKj6EJdX/6I89V37rwkuNfqLrXt+XftY9OztTftfF5Jz2qMcmNkE5WDI9jo15u+Y1jT5Qcz808JazTiAgvL+zq+PNYqHiAHj9tFxUj0eLx/K5O2w9Fcnw+yY1yd7KiXAn6Ezco377wQw+6aEwEF/3plCx6nuNB1NMfvOY8J2Tp08v1D+RESCcrcQEUMqA/8ecngvry54bn0Az96bTBm5fPtL7VKiVW0cmRkE523tVXBH2LoP6TD087gDSi158OpTvxke/ZVNgfnRwJ6WTHly0M5tSVc44gjYn+9OM7jzgBFC0eiGrRS4OVdHIkpJMdX7YwGFNuadrc9LFq36QhhpTN/Urz9KOTKyGd7MSXrb50gLxF2bv+dGCUPCghV0I6WVJCBpC36S07qp8+/KyzCIyM9i5yJaSTJU9GAfJ3dPsB/enAyFjUIVdCOlnypQtQBv3pwCjEvWIM8IMcCelkydRUgHLoTweG7dSV3zimZEtIJ1u+fAHKEP3pc9NPOZvA0FjMIWdCOtny5QtQjid3HK5/AAZV7wRku1EyJqSTrfjytfclQDnmZp7Snw4MzFR3ciekkzVT3gHKMbVpst6WTX86MAj3h+ROSCdrnpQClGXf1hn96UDflj+/Vp362P0heRPSyZovYYDy6E8H+vVL94YUQEgne1bTAcoT/ekx9R1gI9wXUgIhnexZTQcoT/Snz+9+zpkF1k2pO6UQ0sneLz0xBShS3Z8+c8zJBdZFqTulENLJ3vJn15Q2ARTq+ENHqqMPHnB6gftyP0gphHSKoLQJoFyxLZv+dOBelLpTEiGdIih5ByiX/nTgfpS6UxIhnSIoeQcoW/Snv7Cr4ywDqzrx0WkHhmII6RRDiRNA2Z7f1akObdvrLAO3Wfr0cnX+2qKDQjGEdIqh5B2gfPO7Z6upzZPONHDLm5fPOBgURUinGFHy7ksaoGx1f/oj+tOBL/yj+z8KI6RTFH3pAOU7tG2P/nSgdvbqhbrcHUoipFOU6EuPLTgAKJv+dKCyik6hhHSK8+blt5xUgBbQnw7tFgszWh0pkZBOcXxZN2dq89a2vnVaYnrLDqc6IdGf/tOHn23Ve37A92w2HvAAaeQszFAqIZ3ixBYc56/bhqMJSk/zcPTBA0N9nY9OTif3vkcVpuPXTW3l9vEhn8/cHN1+oDq+80hyr3pUfy5iv3jVA3mI2QmM1okP/5sjTJGEdIp04sPTTmwD4maZ9p2nWM18csfhof6ag4iHRaNc8T7+UDqBMN5nhLa2m5s+Vu2bTOc4xGcw/lyMyuO+a5Pnz+boGRhHyYR0ihR7phsgN35xU2LictoiPIwiUMd5T2F1L17D3MxTI/09vrfzSDIrma8//LcJvIo0xLZsbfkMxq9vNT1t/myOnoFxlExIp0ixZ/ovP7YdWxNi4nJKq6p8IVYaY9DWKMQDml/tebHR4FCHo+mnRr56FSukTb/Xqg4BzyqnXSGVz2C8hrZ8BlmdP5ujFyvoZhBRsk2bnt4bd9PuqCnO0o3L1TN/+i0ntgHR8xyB8F9//4lStAREePk/d/5l9eaf/aD6ypcnRvaCHvqjqepv/uQvquXPr1f/68bl6nd/+P1Y3nwElc6f/EX1f/3ZD8Y2FyHea3y//PGXJ6p3ry+N7b1W3T9fcS6/PbV/bL9nLnrn5dN//331/u/+pZHP4O4//j/G8nv23mt8z47zzxtr82dzfH7y0em63B0KtfiliYXOS1VVvegMU6LfPPojPWEJcCFtTgyvGmVv7L3EA5pRP6SJBxApTFwfx3uNqd6+zzbGZ5Bx8Gdz/P70f3y3rpqEQp3Z7MxSshgg93rLtudJkbK/dkolvIxDm95rTnwGoTxR5i6gUzo96RSt/iI3QA4AoAgnPrKDD+UT0ineT2zHBgCQvWifO39t0YmkeEI6xbNFBwBA/l6+NO8s0gpCOsWzTQcAQN7ifu7s1fecRVpBSKcV/vHyW040AECmrKLTJkI6rRBPXm0DBgCQH1WRtI2QTmvoTQcAyI9VdNpGSKc14glsPIkFACAPVtFpIyGdVvEkFgAgHwI6bSSk0ypW0wEA8rD8+bXqxEennS1aR0indTyRBQBI308+PF0tf3bNmaJ1hHRaJ57IxpNZAADSZBWdNhPSaZ14IhtPZgEASNMrl+atotNaQjqtZDUdACBNMT/ohAUVWkxIp5WspgMApMluPLSdkE5rWU0HAEiLfdFBSKfFrKYDAKTFKjoI6bSc1XQAgDScvXrBKjqtVwnptJ3VdACANFhFh5uEdFovLgjR/wQAQDNiFf3s1fccfVqvEtLhJk9uAQCa8/QH/+DoQ5eQDlVV9z9ZTQcAGL+YEeQ+DL4gpEPX0x+85lAAAIxRDPB9RUUj3EZIh67og4p+KAAAxiMCegzyBb4gpMMKs0snHQ4AgDGIEvcTdtmBuwjpsML5a4v25wQAGAOthrA6IR3uEJPeoz8KAIDROHXlnC3XYA1COtwhSq9+ovQKAGAkYjFkdlGLIaxFSIdVxGq6rUAAAIYvFkPcZ8HahHRYgyFyAADDdf76Yr0YAqxNSIc1nPr4nC3ZAACGaHbxDYcT7kNIh3t4+oN/cHgAAIYgdtAxLA7uT0iHe4h+qVeUZAEADKQeFrdkFR3WQ0iH+zjxkeEmAACDeOaD16rlz2xxC+shpMN9xAXl6Q9ec5gAAPoQM35i1g+wPkI6rEP0T5264uICALARUeZuxg9sjJAO61SXaX2uTAsAYL1ito+2QdgYIR3WKcreDZEDAFifKHM/8eFpRws2SEiHDYgLjb3TAQDuTZk79E9Ihw2KC46ydwCAtSlzh/4J6bBB9k4HAFibMncYjJAOfVD2DgBwN2XuMDghHfqk7B0A4Hazi28oc4cBCenQJ2XvAABfOHXlXPXm5TOOCAxISIcBKHsHALhZ5v7MB685EjAEQjoMqPP+q8reAYBW61ycq5Y/cz8EwyCkw4DiguTJMQDQVic+isrC95x/GBIhHYbg1Md6sACA9jl/fbGaXTzpzMMQCekwJLNLppkCAO2hDx1GQ0iHIYmy9+hPBwBog9hu7fy1RecahkxIhyGKC5Vt2QCA0kWbn1Y/GA0hHYbs5UvztmUDAIpV96EvveEEw4gI6TACtmUDAErU60O33RqMjpAOI1D3p1+cc2gBgKLoQ4fRE9JhRGK/UP3pAEAp9KHDeAjpMELRn37qyjmHGADImj50GB8hHUYs+rbsnw4A5EofOoyXkA4jZv90ACBnEdD1ocP4COkwBnFhe/qD1xxqACArMV/n1Mda92CchHQYE8NWAICcnL16oZ6vA4yXkA5jFKvpMXgFACBlMU9Hux40Q0iHMfv2hR8aJAcAJCsGxUVANygOmiGkw5j1BsnFBRAAIDUGxUGzhHRoQFz4ZhftNQoApMWgOGiekA4NiSFyrxjGAgAkIu5NDIqD5gnp0KC4EJr4DgA0LQbbzi6p8oMUCOnQsLggmvgOADQl5uTEYFuD4iANQjo0LC6IJr4DAE0Q0CE9QjokwMR3AKAJMcjWJHdIi5AOiYgLZDzJBgAYh9mlk2bjQIKEdEhIBPWnP3jNKQEARirC+YkPTzvIkCAhHRITF01BHQAYlbNXL7jXgIQJ6ZCg+un2R55uAwDDFTvKxBwcIF1COiRqdlGfGAAwPCa5Qx6EdEhYlKIJ6gDAoAR0yIeQDombXXqjLk0DAOhXBHRbrUEehHRIXDzxri+sgjoA0IeozBPQIR9COmRAUAcA+qF1DvIjpEMmBHUAYCNipxgBHfIjpENGBHUAYD0inMdOMUB+hHTITAT1zsVX6ymtAAB3iof5UeYO5ElIhwwtfXr55jYqgjoAsEIE9LhHAPIlpEOmYkqroA4A9NgLHcogpEPGBHUAoBLQoShCOmROUAeAdusFdHuhQxmEdChAL6ib+g4A7fPMB68J6FAQIR0KIagDQPvEFPdTH59z5qEgQjoUxD7qANAeEdBjP3SgLEI6FEZQB4DyzS6dFNChUEI6FEhQB4ByRTg/8eFpZxgKJaRDoXpB3VN2AChHXNejzB0ol5AOBYugrl8NAMogoEM7COnQAoI6AORNQIf2ENKhJeLC7uIOAPkR0KFdhHRoERd5AMjLqSvnXLuhZYR0aJkI6t+68MNq+fNrTj0AJCx2aXlGQIfWEdKhhc5efa+e/C6oA0CaIqDX1+rPXKuhbYR0aKnz1xar3W9/z17qAJAYAR3aTUiHFuvtpR79bgBA8wR0QEiHloubgM7FV23RBgANE9CBSkgHemzRBgDNEdCBHiEduMXkdwAYPwEdWElIB27Tm/xuoBwAjF7MhRHQgZWEdOAuMfndQDkAGK2oYIu5MAI6sJKQDqyqN1DulUvzDhAADFkEdLNggNUI6cA9vXxpvuq8/6o+dQAYEgEduBchHbivUx+f06cOAEMgoAP3I6QD66JPHQAGI6AD6yGkA+vW61OfXTrpoAHABpz46LSADqyLkA5s2IkPT1ff+J9/p08dANYhwvnsogfcwPoI6UBfovx999vfq85eveAAAsAaIqBHmTvAegnpQN+i/P1bF16yTRsArEJAB/ohpAMDi23avnXhh9XSp5cdTABaL9rBYvtSAR3oh5AODMXZq+/VfeqmvwPQZhHQ691QPnY9BPojpANDs3L6u6FyALRNL6DH3BaAfgnpwNDF9Pf6JuW6mxQA2iGueQI6MAxCOjAScZPyjXf/rt4XFgBKJqADwySkAyMV+8IaKgdAqXoBPVq+AIZBSAdGzlA5AEoU09ujakxAB4ZJSAfGojdULrakMVQOgNxFQI990AGGTUgHxiq2pNn99vesqgOQrdjFREAHRkVIB8bOqjoAuYpwHruYAIyKkA40xqo6ALmIh8oxCDXK3AFGSUgHGmVVHYDUxfUpJrjHIFSAURPSgST0VtWtUACQkthiLSa42wMdGBchHUhGrKpHr5991QFIQW8PdNckYJyEdCA5vX3VX7k07+QA0Ah7oANNEdKBJMVN0cuX5qtH3v7b6uzVC04SAGNz4qPTtlgDGiOkA0mLEsNvXXipvlkyWA6AUYvrzeziSccZaIyQDmQhyg5jsFysbgDAsNliDUiFkA5kI0rgY3Uj+tWVwAMwLLZYA1IipAPZiW1wlMADMAwxwT0qtWyxBqRCSAey1SuBNwUegH6cunKuXkE3wR1IiZAOZG3lFPi42QKA9YgZJ52LrwroQHKEdKAIMQU+brZi6E+ULgLAWkxwB1ImpANFiaE/33j37+obsAjuANBjgjuQAyEdKFLcgMUU+OhXN1wOgKiyMsEdyIGQDhSr169uuBxAu8W2nRHQTXAHciCkA8VbOVxOiSNAu8T3fmzbaUAckAshHWiN6FGPXnVhHaAd4js/fgByIqQDrdML69+qexMv+AAAFMaAOCBnQjrQWjE8KEoghXWAchgQB+RuszMItN3NsP5edWjb3uqFXZ3q0LY9bT8kAFmKB66d91/Vfw5kzUo6QJeVdYB8nfjotAFxQBGspAPcwco6QF5izoj+c6AUQjrAGnphfXrLjjqsP7njsEMFkJAYEGf/c6A0yt0B7sPWbQDpiQFxu9/+noAOFEdIB1inXlj/0//x3eqVS/P1Cg4A4xcPTL/x7t/pPweKJKQDbFDcFL58ab5ewYnQHuEdgPGYXTpZf/cClGrTpqf3RpOlRkuADfrdH35fvXt9sZ4oHEF9avNk3b8OwPBF9dLj//yfq/n//d8dXaBkiwbHAQxBlF7Gz77Jmer4Q0cMmQMYoug/71x8VeUS0ArK3QGGKAYY9YbM6VsHGFw8AI0J7gI60BbK3QFG4JPPr1dnr16o5v7lvyqFB+hT9J8//7/+77q9CKAllLsDjNqdpfCPP3igmto06bgDrCGqkDoX56qzV99ziIDWEdIBxqRXCj+1NFk9vv1AdXznkWrf1hmHH2CF6D+P8nbbqwFtpdwdYMx6U+F/+q//VP3yyrnqK1/+o2r6Kzuqr3x5wqkAWi2qjh7/5/+kvB1oM+XuAE26c3X9OzsOV4e27XFOgNaJ78II6QBtJ6QDJCDKOnu96zFg7vjOv6yObj9g2BxQvBiu2Xn/1fqhJQDK3QGSE5Phf7X8TnXio9P1hPgvVZVyeKBI8R337f/H9moAKyh3B0hZTDaOn145/NEHD9Qr7AC5e+XSfPXypXnnEeAOQjpABlaWw8ee66bDA7mK7dWe+eC16tTH55xDgFUI6QCZubN/PVbXn9xxWGAHkhfbq3Uuvqq8HeAevjSx0HmpqqoXHSSAvAnsQMriweLs0hv2Pwe4tzNCOkCBBHYgFVHePrv4hu3VANZHSAcoXa+H3dA5YNxsrwawYWf0pAMUbmUPe+iF9ccfPFBNbZp0+oGROHXlXD0gTnk7wMYI6QAtExOV66nKH1TVvsmZW4FdWTwwLLNLJ6sTH552PAH6IKQDtFiUoMZP7FXcK4t/bNseq+xAX6L/vHNxrjp79T0HEKBPQjoAtdvK4rur7Ie27amObv9G/VeAezl79ULdf668HWAwQjoAq+qtsvdKVqOX/dC2vXVgVxoPrPTKpfm6IgeAwQnpAKzLrV727sT4COtCO7Sb8naA4RPSAdiwKGddLbRHWO8Fd6BsytsBRkNIB2Bgt4f2myWvEdb3TU7fCu0G0UE5lLcDjI6QDsBIRPlr/PR62qe37OgOo9vbXXG32g65Ud4OMHpCOgBjsfTp5fqnVyIfIrQ/unWm/qvgDmlT3g4wHkI6AI3pTZB/8/IXr+DO4P7o5LRSeWiY8naA8RHSAUjKasE9SuWnt3y1emzbnlt/b9UdRk95+//f3v2DyH2eeQB/HZsxROCsDxxyELDM06gBHgAAFnlJREFUFQc+iDaFA9Mk6yJXGJKTiimDLVCa40IsEOmCbZwuB5ZRrOaKrM7lFNkooOIar9xMocK7DjbkYMksGCxOYE8MMmS4cMc7+441Gu2/mfn9/30+IBwivPub97chfPd53ucBKJ6QDkDlTVvl54PCYeFd5R2yob0doBxCOgC1dVR4D2m6/NoTX5+0zAvwsJgr+5tfDX0EoFhCOgCNNA3us4PqwtyU+elud+BA/KVXrJ7HKycAlENIB6BV5qfMrz1xJvzo6RcmLfM/+rsXVNpprZuf3wk/3buuvR2gZEI6AK0WA8m797Ynf8LewXT5nzyzEX789AuTqjs0XRwOd2V44+B/AwCU7rHOoPd6COE1rwIAHhYD+8++9ZIKO421++VwUj3X3g5QGdsq6QBwhBhcLu1dD2v7By3xP/v7l9xhpzGu3b012X+uvR2gWoR0ADjBbEt8HDj3y2/37GmntmJ7e6yezw9VBKAahHQAWECcGv/Djz8S1qmluPv80t47k+GJAFTT17wXAFjcQVh/fdIOHyuTUHWxtT3+zAroANUmpAPACmIL/D9+8G+T9VVQRTGUf++PvwhvftL3fgBqQEgHgBXFO+u9P/16UlWHKom/PIoB3fR2gPoQ0gEgI7GqHgOR9nfKFn8G4y+N4i+PTG8HqBchHQAyFCuW//zxG4I6pYm7z7/34S8mvzQCoH6EdADIWAzqvT/9u2OlcHE4XAzohsMB1JeQDgA5iNPfr+xvOloKEUP5Dz9+w3A4gAYQ0gEgJ9c+vTXZSw15ms5CiL8YAqD+hHQAyJHKJnmJcw96/32wVcBwOIDmENIBIEexuhkHeUGWYodGvHt+8zP7+QGaRkgHgJyZsk2W4qyDH378uuFwAA0lpANAzlQ7ycJktdoffzGZdQBAcz3h3QJAvmLFM/559slnnDRLuXb31mS9mrvnAM2nkg4ABTB5m2VMV6tdGW4K6AAtIaQDQAEMj2NRNz+/Y7UaQAtpdweAAuze33fMnEpcrfbTvetmGQC0lJAOAAX4UCWdU4ir1S7tvWNyO0CLCekAUAD3iTlOrJ7HwXAmtwMgpANAQUx45zBxXkFsb9+9r9sCACEdAAojpDMvVs/f/KTvXAD4ipAOAFAw1XMAjiKkAwAU6NrdW5O95wBwGCEdAKAA8brDpb3r9p4DcCwhHQAgZ7F6Hu+fm/IPwEmEdACAnKieA7AoIR0AIAfv3tsOV/ZvqJ4DsBAhHQAgQ6O/3Z9Mbr/52R3HCsDChHQAgIzc/PzOJKCrngOwLCEdAGBFqucAZEVIBwBYgeo5AFkS0gGgIM8++YyjbhDVcwDyIKQDQEGE9OZQPQcgL0I6AMApqZ4DkDchHQAKoIpef6rnABRBSAeAAjz75Dcdc02pngNQJCEdAOAI797bDlf2b6ieA1AYIR0ACvCDp553zDWy/9d74dLe9fD+Fx+1/SgAKJiQDgAw49rdW+FXn/RVzwEohZAOAAX4zpmzjrniVM8BqAIhHQAKsPb4GcdcYarnAFSFkA4ABfi+O+mVtPvlcDK5fff+sO1HAUBFCOkAkDM70qspVs7f/KTf9mMAoGKEdADImR3p1fL+Fx+HK/ubqucAVJKQDgA5s36tGkZ/uz+pnl/79FbbjwKAChPSASBn2t3LF6vnl/bemUxwB4AqE9IBIGfa3csTq+dxMNzNz+609QgAqBkhHQByZrJ7Od69tx2u7N+wVg2AWhHSASBHWt2LF1vaL+1dD+9/8VHbPjoADSCkA0COtLoXazIY7u4t1XMAaktIB4AcmexejN0vh5O759aqAVB3QjoA5Ei7e76sVQOgaYR0AMiRdvf83Pz8Trgy3LRWDYBGEdIBIEcmu2cvhvIr+5vWqgHQSEI6AOREq3v24lC42N5uMBwADTUU0gEgJ1rds2MwHAAtsS+kA0BOTHZfncFwALRNDOkjbx0AsqfdfTVxMFysnmttB6BNYkjf8cYBIHva3ZcTB8Nd2rse3v/iozo+PgCsRLs7AOTEZPfFxNb233x6K7z5Sb9Ojw0AmRLSASAHWt0X8/4XH4dLe+/YeQ5A242EdADIgVb307HzHAAesmNwHADkwGT3k02mtt+9ZTAcAMx4Ytzt73QGPWcCABnS7n40re0AcDTt7gCQA+3uj9LaDgAncicdAPJgsvvDtLYDwMlip/s0pMdd6evODABWp9X9Aa3tALCYaUg3PA4AMqLV/aC1/dLe9fD+Fx9V4GkAoD60uwNAxto82X30t/vhN5/eCm9+0q/A0wBArWyHmZAe2903vD8AWN13zpxt5Sm+e297Es61tgPA8qYh/S/OEACy0bY76fHeeQznWtsBYCWTa+jupANAxs59vR2V9NjafmV4Y1JBBwBWthvm2t0BgBWda0mru5VqAJAPg+MAIEPfePxMo4/TvXMAyM2keK6SDgAZOnfm2UYep3vnAJC7B3fSx93+qDPoOXIAWNFawyrpsWIew7l75wCQu2GYa3eP1fR15w4A2HcOAMUad/uPhHQT3gFgRd9/6p9qf4RxIFwcDGcoHAAUZjj9RvOV9A3vAADayVA4ACjNoSH9L94HALRPHAp3ZX8z7N4fevsAUI4jK+kAwAr2//o/IYTna3GEJrYDQGXsTx/EnXQAyFAdWsXjM8bK+c3P7lTgaQCA2aL5VyF93O1vW8MGAKuJU9Gryjo1AKisQ9vdQ/qLs94bACwntpBXjXAOANU27vYfraQnQjoArCAOX4vV9LXHz5R+jMI5ANTCQ5Nb50P6bWvYAGA1f/jsTvjJM+X936mBcABQK8eGdLtXAGBFMSCXEdJjxfw/790WzgGgXm7PPq2QDgAZi23m1+7eCj/71ku5H238XgfhfLsWk+UBgEc8lMMfm//bzqD3f84MAFaz9sSZ8F/PvxbOfT2fUS8xmN/8/I41agBQfy/GbWvTT3FYSP+z4XEAsLoY1P/jH/41/PjpFzL5etNQ/ofP74TR/1Z31RsAcHrjbv+hXD7f7h7SEnUhHQBWFIN070+/ntxP/+W3e+HZJ59Z6AvufjmcDIGLd8xVzAGgkXbmP9RhIX03hHDe+weAbMTW9Pjn3Jmz4ftPPT9pgX/2yW8+8rVjGI/r23bv74cPvxyqlgNA850qpMde+Nf8MABAtuIO9fgHACDZnT+Irx1yMo8keQAAACBzj+TvRwbHBcPjAAAAIHfzQ+PCEZX0oJoOAAAAuTo0dx8V0h/piwcAAAAys1BI3z7ivwcAAABWd/uwr3BoSB93+0I6AAAA5GehSnpwLx0AAAByMRp3+wuHdNV0AAAAyN6RRfHjQvqh/fEAAADASo7M2yrpAAAAUKwj8/Yji9NndQa9D0II614WAAAAZGPc7R+ZxY+rpAfVdAAAAMjUsTn7pJDuXjoAAABk59icrZIOAAAAxdk67jsdG9LH3f7IvnQAAADIxJH70adOqqQH1XQAAADIxIn5+jQh/ffeBQAAAKzsxHx9Ykgfd/sx6Y+8CwAAAFhJJpX0oOUdAAAAVrIz7vaHJ32B04Z0Le8AAACwvFMVv1XSAQAAIH+nKn4/dtrH6Ax6H4QQ1r04AAAAWEhcvfb0af6F01bSoxveAQAAACxs67T/wiIhXcs7AAAALO7Uc95O3e4eDlre/xxCOOuFAAAAwOmMu/1TZ+9FKulhkRI9AAAAsFiOXjSku5cOAAAAp7fQSvOFQvq4298JIZy4fB0AAACYyLWSvvA3AAAAgJbaGnf7o0U++jIhXcs7AAAAnGyhVvew6HT3KVPeAQAA4Fijcbf/9KJHtEwlPXrbuwAAAIAjLXVVfNmQ7l46AAAAHG3hVvewbLt7OGh5fy+EsOGFAAAAwEOG427/uWWOZNlKejBADgAAAA61dPf5KiE9ftOFRskDAABACyw9x23pkJ52vbmbDgAAAA/sjLv94bLnsUolPWh5BwAAgIestA1tpZA+7va344V47wMAAADCyh3nq1bSg53pAAAAMLGVroYvLYuQvuldAAAAwOpF7JVDevotgaAOAABAm8WBcTurfv4sKunBADkAAABaLpOr4I9ldYadQe+DEMJ6Vl8PAAAAamI07vafzuJRs6qkBwPkAAAAaKnM8nBmIX3c7W+mcfMAAADQJpnNacuykh5U0wEAAGiZzXG3P8zqI2cd0k15BwAAoE0yHaSeaUhPvz0Q1AEAAGiD7XG3v53l58y6kh69kcPXBAAAgKrJ/Mp3ZivYZnUGvfdCCBt5fG0AAACogOG4238u68fIo5IeVNMBAABouFxyby6V9KCaDgAAQHPlUkUPOVbSg2o6AAAADZVb3s0tpKcJd5lOuQMAAICSjUIIW3k9Qp6V9KCaDgAAQMO8Pe72R3l9pFxDumo6AAAADRLD+dU8P07elfSgmg4AAEBD5FpFD0WEdNV0AAAAGiD3KnooqJIeVNMBAACouct5V9FDnnvS59mbDgAAQE3lthd9XlGV9KCaDgAAQE0VlmcLq6SHg2r670II54v8ngAAALCCwqrooeBKenS54O8HAAAAq7hY5OkVGtLH3f4whLBZ5PcEAACAJW2njWWFKbqSHlI1PfeJeAAAALCiwrvBCw/paWT920V/XwAAAFjA5rjb3yn6wMqopIe0AH5Y0vcGAACA44zK2lBWSkhP1XRD5AAAAKiit9NMtcIVuoJtXmfQey+EsOFHEgAAgIoodOXavLLa3adU0wEAAKiSUnNqqSE9XcK/WuYzAAAAQBJXrm2VeRhlV9JDuoxvJRsAAABlu1j2A5Qe0tMQudIPAgAAgFZ7o6xhcbNKHRw3yxA5AAAASlLqsLhZVWh3n1JNBwAAoAyVyaOVCempraCUZfEAAAC01ua429+uyoevUiU9BvXXQwg7FXgUAAAAmm9UtdXglQrpibZ3AAAAinAxDTOvjMqF9LQ7Xds7AAAAedoqeyf6YapYSY+uxul6FXgOAAAAmqeyq8ArGdJTu8GFCjwKAAAAzVO5NvepqlbStb0DAACQh0q2uU9VNqQH094BAADIVmXb3KcqHdIT094BAADIQmXb3KcqH9JT23ul9tYBAABQO1er3OY+VYdKegzqcdr7dgUeBQAAgPqpzcyzWoT05EK6PwAAAACLqHyb+1RtQno6UPfTAQAAWMTldI26FupUSQ/p/sDVCjwKAAAA1beVrk/XRq1CejgI6petZQMAAOAEwzp2Y9cupCfupwMAAHCcC3W5hz6rliF93O3X8jciAAAAFKJW99Bn1bWS7n46AAAAh6ndPfRZtQ3p4cH9dPvTAQAACGl+Wa27rmsd0pMLaSAAAAAA7TWq0z70o9Q+pKcXYJAcAABAu12s6z30WU2opIf0Ii5X4FEAAAAo3htpblntPdakH57OoPdWCOHVCjwKAAAAxYiD4i405awbUUmfMkgOAACgVWo/KG5eo0J6ciG9KAAAAJprMp+s7oPi5jWq3X2qM+idDSF8EEJYq8YTAQAAkLHvNmFQ3LwmVtJj23tcyfZiBR4FAACA7DVikvthGhnSw4OJ7426mwAAAEC4PO72N5t6DI0N6eEgqG9azQYAANAYm+Nu/2qTX2cj76TP6wx6vw0hvFKtpwIAAGABjVq1dpRGV9Knxt1+bHtvbDsEAABAw7XmOnMrKulTnUEvTnxfr8bTAAAAcAoxoL/YtFVrR2lFJX3Gi3aoAwAA1MaoTQE9tC2kpxcrqAMAAFRf6wJ6aFu7+1Rn0FsLIcTW97PVeCIAAABmTAN66wqsbWt3n0i/ibmQXjwAAADV0dqAHtpaSZ/qDHpxiNx7IYS1ajwRAABAq7U6oIe2h/QgqAMAAFRJDOjbbX4jrWx3n5V+Q/Oi1ncAAIBSXWx7QA8q6Q+oqAMAAJQmBvRNxy+kP0RQBwAAKNQoBfQtx35ASJ8jqAMAABSi9UPiDiOkH0JQBwAAyJWAfoTWD447zMwwOT8wAAAA2RLQj6GSfozOoLeWKurrlX1IAACA+hDQT6CSfoxxtz9SUQcAAMjEjoB+MpX0U0gV9d+GEM5X/mEBAACqZxrQR97N8YT0BXQGvRjUX6nNAwMAAJRPQF+AkL6gzqD3Vgjh1Vo9NAAAQDk2x93+RWd/ekL6EjqD3iup/R0AAIDDXR13+5edzWKE9CV1Br3zKajbpQ4AAPCwi+Nuf9OZLE5IX0Fn0FtPK9oEdQAAgIMVaxfG3f62s1iOkL4iu9QBAAAmhimgW7G2AnvSVzSzS10rBwAA0FYxmH9XQF+dSnqGOoPe6yGE1xrzgQAAAE5mgnuGhPSMGSgHAAC0iAFxGRPSc5AGyv3WPXUAAKChJtd+tbdnz530HKQfVPfUAQCAJoqT258T0POhkp6zzqD3agjhrUZ/SAAAoC2ujrv9y952foT0AqT299+FEM42/sMCAABNNEr3z7e83XwJ6QVJ+9TjPfXzrfjAAABAU+yk/edDbzR/QnrBtL8DAAA1or29YEJ6CbS/AwAAFae9vSSmu5cgTUH8runvAABABU2ntwvoJVBJL1ln0Duf7qqvtfogAACAssXq+Rvjbv+qN1EeIb0CDJUDAABKtpPa2+0+L5mQXiFpqNxrquoAAECBYvX8dQdeDUJ6xXQGvbOpqr7R9rMAAABypXpeQUJ6RamqAwAAOVI9ryghvcLcVQcAADIWJ7dfVj2vLiG9BtIE+LfsVQcAAJZkcntNCOk1karqsf391bafBQAAsJCtdPd85NiqT0ivmc6gt56q6gbLAQAAxxmmcL7tlOpDSK+pzqD3SgrrBssBAACzYsX8bYPh6klIrzEt8AAAwJytNBhu6GDqSUhvALvVAQCg9XZSONfaXnNCeoN0Br2NFNZNgQcAgHYYpqntm953MwjpDeS+OgAANN7k3nkI4aqp7c0ipDdUuq8e76r/XFgHAIBGuZqq58J5AwnpDTcT1l9r+1kAAEDNbaZwbihcgwnpLZGGy8Wg/krbzwIAAGpGOG8RIb1lhHUAAKgN4byFhPSWEtYBAKCyhPMWE9JbzoA5AACoDOEcIZ0DwjoAAJRiukptUzgnCOkcJu1Zj63wZx0QAADkYjgTzq1S4ytCOkfqDHobqbJ+3ikBAEAmtkMIN8bd/qbj5DBCOidKQ+Z+nobMaYUHAIDFxVD+9rjb33F2HEdI59TSvfXzKbCvOzkAADiWlnYWJqSzlM6gtz7TCq+6DgAAD2ymlvZtZ8KihHRWMlNdfzmEsOE0AQBoqdjGfkPVnFUJ6WQm3V1/JQV2k+EBAGi62M6+larm7pqTCSGdXKR2+JdTlV1gBwCgKUYpmP9+3O1veatkTUgnd2mV28vurwMAUFOCOYUR0imUCjsAADUhmFMKIZ3SpMAew/q/WOkGAEAFuGNO6YR0KiENndtIgX1DWzwAAAWJofx2/Oe42x86dMompFNJM1X2H1jtBgBAhmKFfDu1sdtjTuUI6dRCGj63IbQDALCgaSiP1fJtO8ypOiGdWpoJ7ee0xwMAkIxSKL+dgvmOUE7dCOk0QrrTvp4q7euq7QAArbCdQvluCuSGvVF7QjqNNRPcp+H9rLVvAAC1NEx/bqd/CuQ0lpBO66RW+WlgP5da5VXeAQDKt5Na1m/PBHMt67SKkA5JZ9BbS1X36T+/MbO/XYgHAFjdNITH8L0/E8SH1p/BASEdFpBa6Kct8+szA+tmA3045O8BAJpmfn3ZNHiHmQFuk/+sNR1OKYTw/2z0Q8ooseh4AAAAAElFTkSuQmCC;" parent="1" vertex="1">
                    <mxGeometry x="553.5" y="382.13" width="35.5" height="35.47" as="geometry"/>
                </mxCell>
                <mxCell id="31" value="LINE Messaging Service" style="text;html=1;strokeColor=none;fillColor=none;align=left;verticalAlign=middle;whiteSpace=wrap;rounded=0;" parent="1" vertex="1">
                    <mxGeometry x="592.07" y="384.13" width="104" height="30" as="geometry"/>
                </mxCell>
                <mxCell id="34" value="ECS cluster (with Fargate)" style="text;html=1;strokeColor=none;fillColor=none;align=left;verticalAlign=middle;whiteSpace=wrap;rounded=0;" parent="1" vertex="1">
                    <mxGeometry x="201" y="222.5" width="159" height="15" as="geometry"/>
                </mxCell>
                <mxCell id="43" value="" style="sketch=0;pointerEvents=1;shadow=0;dashed=0;html=1;strokeColor=none;fillColor=#505050;labelPosition=center;verticalLabelPosition=bottom;verticalAlign=top;outlineConnect=0;align=center;shape=mxgraph.office.concepts.web_page;" parent="1" vertex="1">
                    <mxGeometry x="554.04" y="280.5" width="37.03" height="40" as="geometry"/>
                </mxCell>
                <mxCell id="44" value="Tokyo Sports Facility Service" style="text;html=1;strokeColor=none;fillColor=none;align=left;verticalAlign=middle;whiteSpace=wrap;rounded=0;" parent="1" vertex="1">
                    <mxGeometry x="572.9100000000001" y="324.01" width="100.54" height="30" as="geometry"/>
                </mxCell>
                <mxCell id="45" value="" style="shape=image;verticalLabelPosition=bottom;labelBackgroundColor=#ffffff;verticalAlign=top;aspect=fixed;imageAspect=0;image=data:image/png,iVBORw0KGgoAAAANSUhEUgAAAlgAAAJYCAYAAAC+ZpjcAAAABHNCSVQICAgIfAhkiAAAAAlwSFlzAAAQnAAAEJwBJs06NAAAABl0RVh0U29mdHdhcmUAd3d3Lmlua3NjYXBlLm9yZ5vuPBoAACAASURBVHic7d15nCV1fe//1ywMkJExLGosWQZcEVGgfvEGRY0LGBI1eDUS9arxB2rw1kWj+IsY/WmuCLkPNaK33BCCawy4EfC6E3cxJuXCokFRh60QFIiDA8wwy/2jCmfr6TndXac+tbyej0c/emxnznn3Od2n3ny+db61aNOmTUhSE5I8XQTsCeyzg4+9gd2AXYFl23xs+7WZ/g7Aum0+1u7kf9/9tTuBm4Ff7eDj1jIrfEGU1IhFFixJO5Pk6d7AgcBKYH/gXmxfnPYB9gKWxKRcsA3ALVRla9si9kvgGmAV8PMyK24OyiipJyxYkkjy9J5U5enAHXzeIyZZZ91GXbZm+lxmxa+jgknqBguWNBJJnu4OHAIcWn8+kM0Fas+4ZIN0K5sL18+BK4DLgCvKrLgjMJeklliwpIGpz4M6iKpIPXyLzw8AFgdGE2wErgIupSpcd3/+med/ScNiwZJ6LMnTvdi6RB0KPAxYHplLc7YGuJytS9elZVbcEppK0rxZsKSeSPJ0CXAY8Oj641HAvqGhNG3XAd8Cvll/fL/Mig2xkSRNwoIldVSSpyuAI9lcqP4LTqbGbg3wr2wuXJeUWbE6NpKkmViwpI5I8vQANpepR1Mt93nOlGazkWpp8RvUpavMiqtjI0kCC5YUJsnT/YE/Ap5IVajuF5tIA3E9Vdm6GPhcmRXXBOeRRsmCJbUkydNlwGOAY6mK1SGxiTQSVwCfAz4LfL3MinXBeaRRsGBJU1Qv+x1bfzwBuEdsIo3cb4B/oSpbn3U5UZoeC5bUoHpK9Vg2l6qDYxNJs/oRddkCvuZ0S2qOBUtaoPo6fU8HnkY1pfKdfuqjNVTTrQuBT3m9RWlhLFjSPCR5+rvAccDxwJOApbGJpEatB74EnAdcUGbFfwbnkXrHgiVNqN6X6mlUpeoYYFlsIqkV64AvUJWtC913S5qMBUuaRZKny4GnUpWqY4FdYxNJodZSna91HnBRmRVrgvNInWXBkraR5OnuwJ9Qlao/AXaPTSR10h3A/6EqW/+nzIo7gvNInWLBkmpJnj4GeBHwX/FEdWku1gCfBN5XZsXXo8NIXWDB0qgleboP8ALgROAhwXGkIfgP4GzgA2VW/Co6jBTFgqXRSfJ0EdXlaV5E9U5AT1aXmrcOuAB4H3BxmRUebDQqFiyNRpKn9wVeCJwAHBQcRxqTnwHnAOeWWXFDdBipDRYsDVqSp0uorvv3IqoT1t2vSoqznurE+PdRXYh6Q3AeaWosWBqkJE9/D/hLqmnVvsFxJG3vOqqp1nvKrPhFdBipaRYsDUqSp4cArwCei3tWSX2wFvgI8PdlVlwRHUZqigVLg5Dk6ROAU6iWAxcFx5E0d5uAzwFvKbPiX6LDSAtlwVJvJXm6lGoz0FcChwfHkdSc7wFvBc4rs2J9dBhpPixY6p36moAvBk4G9guOI2l6rgXeAZzlNRDVNxYs9UaSp/sBL6N6R+CK4DiS2rOa6p2Hby+z4troMNIkLFjqvCRPHwacCjwLt1mQxmw9cD5wRpkVl0eHkWZjwVJnJXn6YOANVMVqcWwaSR2ykapovaHMiiujw0gzsWCpc5I8PQh4PdVWC0uC40jqrg1UWzz8bZkVP4sOI23JgqXOSPJ0f+B1wF/gUqCkya0H3g+8scyKa4KzSIAFSx2Q5GkCvIbq5HUvvCxpvtZRnQx/epkVZXQYjZsFS2GSPL038GrgJGC34DiShuNO4N3A35VZcVN0GI2TBUutS/J0b+BVQAYsD44jabjWADnw5jIrbo4Oo3GxYKk1SZ7uSnWdwFOBPYLjSBqP24AzqK53uDY6jMbBgqVWJHn6DODNwIHRWSSN1s+BV5VZ8YnoIBo+C5amKsnTw4AzgcdFZ5Gk2leBl5dZ8f3oIBouC5amoj6B/TTgBNwkVFL3bATOAV7rifCaBguWGpXk6TKqizC/Dq8XKKn7VgNvBN5RZsW66DAaDguWGpPk6VOBtwIPjM4iSXP0E+CVZVZcFB1Ew2DB0oIleXoI8Dbg6OgskrRAXwT+qsyKK6KDqN8sWJq3JE/3AN4EvBSvGShpODYA7wL+psyK26LDqJ8sWJqXJE+fQrVT8r7RWSRpSq4DTiqz4tPRQdQ/FizNSf3uwLcDfx6dRZJa8k/Ay3y3oebCt89rYkmePh/4IZYrSePy58AP69dAaSJOsLRTSZ6uBN4LHBMcRZKifQF4SZkVq6KDqNssWNqhJE8XU+1pdRpelFmS7rYGeC3V3lkbo8OomyxYmlGSp4cCZwOPjM4iSR31HeDEMisuiw6i7rFgaStJnu5K9V9mfw3sEhxHkrruLuB/AaeVWbE2Ooy6w4Kl30ry9Ajgw8DB0VkkqWd+BPy3Miu+Gx1E3WDB0t3nWp1CdT2uZcFxJKmv1lFdh/UtnpslC9bIJXm6L/BB4PHRWSRpIL4MPL/MiuuigyiO+2CNWJKnzwQuxXIlSU16PHBp/RqrkXKCNUJJnt4DeAfwwugskjRw5wInl1nxm+ggapcFa2SSPH0k8BHgAdFZJGkkrgKeW2bFd6KDqD0WrJFI8nQJcCrwemBpcBxJGpv1wN8CZ5RZsSE6jKbPgjUCSZ4eQLX9wlHRWSRp5L5BtZ3D1dFBNF2e5D5wSZ4eD/wAy5UkdcFRwA/q12YNmBOsgUrydCnwFuBl0VkkSTN6O3BKmRXro4OoeRasAUry9D7A+cBjo7NIkmb1NeBZZVbcGB1EzbJgDUySp0cCHweS6CySpImUwDPLrLgkOoia4zlYA5Lk6UnAV7BcSVKfJMBX6tdwDYQTrAFI8nQ34D3AC6KzSJIW5APAX5ZZcWd0EC2MBavnkjxdCXwSODw4iiSpGd8D/muZFauig2j+XCLssSRPjwEKLFeSNCSHA0X9Gq+ecoLVQ0meLqLalf2NWJIlaag2Aq+j2v3dg3XPWLB6JsnT5VS7sh8XnUWS1IoLqHZ/XxMdRJOzYPVIkqf3BT4NHBGdRZLUqu8CTymz4oboIJqMy0s9keTpw4BvY7mSpDE6Avh2fSxQD1iweiDJ06OBbwL7R2eRJIXZH/hmfUxQx1mwOi7J0xOAzwArorNIksKtAD5THxvUYZ6D1VH1OwVPA14TnUWS1EmnA6/1HYbdZMHqoCRPdwXOBZ4dnUWS1GkfBV5YZsXa6CDamgWrY5I83YvqLbmPic4iSeqFrwPHlVlxS3QQbWbB6pAkT+9Pdb7Vg6KzSJJ65cfAH5dZ8dPoIKp4kntHJHl6JNU2DJYrSdJcPYhqG4cjo4OoYsHqgCRPnwxcDOwTnUWS1Fv7ABfXxxQFs2AFS/L06cCFwO7RWSRJvbc7cGF9bFEgC1agJE+fA5wPLIvOIkkajGXA+fUxRkEsWEGSPD0R+BCwNDqLJGlwlgIfqo81CmDBCpDk6cuAs/DxlyRNz2LgrPqYo5Z5gG9Zkqd/A5wJLIrOIkkavEXAmfWxRy1yH6wWJXl6OnBqdA5J0iidUWaFl19riQWrBfV1Bc8ETo7OIkkatXcAL/f6hdNnwZqyJE8XU51v5ZXPJUldcA7w4jIrNkYHGTIL1hQleboU+CBetFmS1C0fBZ5fZsX66CBDZcGaknpy9WEsV5Kkbvoo8N+cZE2H7yKcgvqcq7OwXEmSuuvZVNs4+K72KbBgTceZeM6VJKn7TqA6ZqlhFqyG1Vsx+G5BSVJfnFwfu9QgC1aD6o3c3OdKktQ3p7oZabM8yb0h9aUIHLNKkvrs5WVWvD06xBBYsBpQX0zzLLz8jSSp3zZR7ZF1dnSQvrNgLVCSp88BPoTLrZKkYdgIPK/Min+MDtJnFqwFSPL06cD5wNLoLJIkNWg98KwyKz4VHaSvLFjzlOTpk4ELgWXRWSRJmoJ1wNPKrPh8dJA+smDNQ5KnRwIXA7tHZ5EkaYruAJ5YZsUl0UH6xoI1R0me3h/4NrBPdBZJklrwK+APyqz4aXSQPvHE7DlI8nQv4DNYriRJ47EP8Jn6GKgJWbAmlOTprsAFwIOis0iS1LIHARfUx0JNwII1gfpCmOcCj4nOIklSkMcA53px6MlYsCZzGtVVxyVJGrNnUx0TtROe5L4TSZ6eALijrSRJm51YZsU50SG6zII1iyRPj6Y6qd2NRCVJ2mw98MdlVnwxOkhXWbB2IMnThwHfBFZEZ5EkqYNWA48us+Ly6CBdZMGaQZKn96Xa62r/6CySJHXYNVR7ZN0QHaRrPMl9G0meLgc+jeVKkqSd2R/4dH3s1BYsWFuo33r6YeCI6CySJPXEEcCH3b5haxasrZ0KHBcdQpKknjmO6hiqmudg1ZI8PQb4LJZOSZLmYyNwbJkVX4gO0gUWLCDJ05VAAXidJUmS5u8WIC2zYlV0kGijn9Ykebob8EksV5IkLdRewCfrY+uojb5gAe8BDo8OIUnSQBxOdWwdtVEXrCRPTwJeEJ1DkqSBeUF9jB2t0Z6DleTpkcBXgGXBUSRJGqJ1wB+WWXFJdJAIoyxYSZ7eB/gukERnkSRpwErgiDIrbowO0rbRLREmeboUOB/LlSRJ05YA59fH3lEZXcEC3gI8NjqEJEkj8ViqY++ojGqJMMnT44F/is4hSdII/XmZFedFh2jLaApWkqcHAD8A7hmdRZKkEfo18IgyK66ODtKGUSwRJnm6hOoizpYrSZJi3JPqotBLooO0YRQFi+oClEdFh5AkaeSOYiQXhR78EmGSp48EvgmM7h0MkiR10Hrg0WVWfCc6yDQNumAleXoP4HvAA6KzSJKk37oKOLzMit9EB5mWoS8RvgPLlSRJXfMAqmP0YA12gpXk6TOBj0XnkCRJO/RnZVZ8PDrENAyyYCV5ui9wKbBndBZJkrRDtwIPL7PiuuggTRvcEmGSp4uBD2K5kiSp6/YEPlgfuwdlcN8QcArw+OgQkiRpIo+nOnYPyqCWCJM8PQK4BFgWnUWSJE1sHXBkmRXfjQ7SlMEUrCRPd6XakuHg6CySJGnOfkS1dcPa6CBNGNIS4WuxXEmS1FcHUx3LB2EQE6wkTw8FCmCX6CySJGne7gLSMisuiw6yUL2fYNXvPDgby5UkSX23C3D2EN5V2PtvADgZeGR0CEmS1IhHUh3be63XS4RJnq4ELgeWB0eRJEnNWQM8rMyKVdFB5qvvE6z3YrmSJGlollMd43urtwUrydPnA8dE55AkSVNxTH2s76VeLhEmeXpv4IfA3tFZJEnS1NwMPLTMipuig8xVXydYb8dyJUnS0O1Ndczvnd5NsJI8fQpwUXQOSZLUmqeWWfHp6BBz0auCleTpHlRLg/tGZ5EkSa25jmqp8LboIJPq2xLhm7BcSZI0NvtSdYDe6M0EK8nTQ4AfAEuis0iSpNZtAB5RZsUV0UEm0acJ1tuwXEmSNFZLqLpAL/SiYCV5+lTg6OgckiQp1NF1J+i8zi8RJnm6jOpyOA+MziJJksL9hOoyOuuig8ymDxOsk7FcSZKkygPpwcWgOz3Bqnds/wmwIjqLJEnqjNXAA7u8w3vXJ1inYbmSJElbW0HVETqrsxOsJE8PAwq6XwIlSVL7NgJpmRXfjw4yky6XlzPpdj5JkhRnMVVX6KROFpgkT58BPC46hyRJ6rTH1Z2hczq3RJjk6a7Aj4ADo7NIkqTO+zlwcJkVa6ODbKmLE6xXYLmSJEmTOZCqO3RKpyZYSZ7uTdVE94jOIkmSeuM24MAyK26ODnK3rk2wXoXlSpIkzc0eVB2iMzozwao3Ff0ZsDw6iyRJ6p01wEFd2Xy0SxOsV2O5kiRJ87Ocqkt0QicmWEmeJsBPgd2is0iSpN66E7h/mRVldJCuTLBeg+VKkiQtzG5UnSJc+AQrydP9qS7ovCw0iCRJGoJ1VBeCviYyRBcmWK/DciVJkpqxjKpbhAqdYCV5ehBwJbA0LIQkSRqa9cCDy6z4WVSA6AnW67FcSZKkZi2l6hhhwiZYSZ4+GLgCWBISQJIkDdkG4JAyK66MuPPICdYbsFxJkqTpWELVNUKETLCSPH0Y8APilyglSdJwbQQeUWbF5W3fcVTBOTXwviVJ0jgspuocrWt9gpXk6X5U1xz05HZJkjRt66muUXhtm3caMUV6GZYrSZLUjqVU3aNVrU6wkjxdAVwLrGjtTiVJ0titBvYrs2J1W3fY9gTrxViuJElSu1ZQdZDWtDbBSvJ0KdW5V/u1coeSJEmbXUt1Ltb6Nu6szQnW8ViuJElSjP2oukgr2ixYr2zxviRJkrbVWhdppWAlefoE4PA27kuSJGkHDq87ydS1NcE6paX7kSRJmk0rnWTqJ7kneXoIcBmwaKp3JEmStHObgEPLrLhimnfSxgTrFViuJElSNyyi6ibTvZNpTrCSPP09YBWw69TuRJIkaW7WAivLrPjFtO5g2hOsv8RyJUmSumVXqo4yNVObYCV5uoRqerXvVO5AkiRp/q6jmmJtmMaNT3OC9UdYriRJUjftS9VVpmKaBetFU7xtSZKkhZpaV5nKEmGSp/cFrgGWNn7jkiRJzVgP7F9mxQ1N3/C0JlgvxHIlSZK6bSlVZ2lc4xOsJE8XAVcBBzV6w5IkSc37GfCAMisaLUTTmGA9EcuVJEnqh4OoukujplGwPLldkiT1SePdpdElwiRP9wGuB5Y1dqOSJEnTtQ64X5kVv2rqBpueYL0Ay5UkSeqXZVQdpjFNF6wTG749SZKkNjTaYRorWEmePgZ4SFO3J0mS1KKH1F2mEU1OsDy5XZIk9VljXaaRk9yTPN0d+CWwfME3JkmSFGMNcK8yK+5Y6A01NcH6EyxXkiSp35ZTdZoFa6pgHd/Q7UiSJEVqpNMseIkwydPlVMuDuzcRSJIkKdAdVMuEaxZyI01MsJ6K5UqSJA3D7lTdZkGaKFguD0qSpCFZcLdZ0BJhkqcrgJuAXRcaRJIkqSPWAvcus2L1fG9goROsp2G5kiRJw7IrVceZt4UWLJcHJUnSEC2o48x7iTDJ098FbsSLO0uSpOFZB9ynzIr/nM8/XsgE6zgsV5IkaZiWUXWdeVlIwXJ5UJIkDdm8u868lgiTPN0b+AWwdL53LEmS1HHrgd8rs+Lmuf7D+U6wno7lSpIkDdtSqs4zZ/MtWAt666IkSVJPzKvzzHmJMMnTZcAtVFecliRJGrI1wF5lVqybyz+azwTrsViuJEnSOCyn6j5zMp+Cdew8/o0kSVJfzbn7WLAkSZJmN+fuM6dzsJI8PQBYNdc7kSRJ6rmVZVZcPelfnusEy+mVJEkaozl1IAuWJEnSzs2pA028RFhvz3AzcI95hJIkSeqz3wB7T7pdw1wmWI/BciVJksbpHlRdaCJzKVh/NPcskiRJgzHxMuFcCpbnX0mSpDGbeNg00TlYSZ7uD0z81kRJkqSBOqDMimt29pcmnWC5PChJkjRhJ5q0YD1xAUEkSZKGYqJONGnBevQCgkiSJA3FRJ1opwWrvjzO/RYcR5Ikqf/uV3ejWU0ywXJ6JUmStNlOu5EFS5IkaW4aKVhHNRBEkiRpKHbajWbdByvJ0xXArcz9otCSJElDtRHYs8yK1Tv6CzsrTkdO8HckSZLGZDFVR5r1L8zG868kSZK2N2tHsmBJkiTN3awdaYfnYCV5ugT4NbB8CqEkSZL6bA1wzzIrNsz0f842wToMy5UkSdJMllN1pRnNVrBcHpQkSdqxHXYlC5YkSdL8zKtgPWoKQSRJkoZih11pxpPckzzdC7h5mokkSZIGYO8yK27Z9os7mmA9fMphJEmShmDGzrSjgnXoFINIkiQNxYydyQmWJEnS/DnBkiRJatiMnWm7k9yTPF0E3IabjEqSJO3MGmCPMiu2KlQzTbAOwnIlSZI0ieVU3WkrMxUslwclSZImt113mqlgeYK7JEnS5LbrTk6wJEmSFsYJliRJUsO2605bvYswydPdgd8w+zUKJUmStNlG4B5lVtxx9xe2LVKHzPA1SZIk7dhiqg611Re25PlXkiRJc7dVh5ppgiVJkqS5mXWCdWCLQSRJkoZiqw5lwZIkSVq4WQvWyvZySJIkDcbKLf/HbwtWkqf3BPZsO40kSdIA7Fl3KWDrCdbK9rNIkiQNxsq7/7BlwfL8K0mSpPn7bZdygiVJktSMlXf/wQmWJElSM5xgSZIkNWzl3X9wgiVJktQMJ1iSJEkNW3n3HxYDJHm6N7BHVBpJkqQB2KPuVL+dYLk8KEmStHAHwuaCtTIuhyRJ0mCshM0Fa/+4HJIkSYOxP2wuWPcKDCJJkjQU94LNBWufwCCSJElDsQ9YsCRJkppkwZIkSWrYVgVr78AgkiRJQ+EES5IkqWF7Ayy67/8+YhFwF7AkNo8kSVLvbQCWLQb2xHIlSZLUhCXA7y7G5UFJkqQm7WPBkiRJapYFS5IkqWEWLEmSpIZZsCRJkhpmwZIkSWrYPotxF3dJkqQm7b0Y2C06hSRJ0oDsthjYNTqFJEnSgOy6GFgWnUKSJGlAllmwJEmSmmXBkiRJapgFS5IkqWHLPMldkiSpWZ7kLkmS1DCXCCVJkhpmwZIkSWqY52BJkiQ1zHOwJEmSGuYSoSRJUsMsWJIkSQ2zYEmSJDVs2VLgocCKGT72mODrewG7tB5bkiRpuu4CbgFW1x+3bfHn1Tv7+qJNmzbN+56TPF0E3Au4H5Bs8TnZ5mv7AIvmfUeSJEnN2AT8CrgeKLf4XG7ztV+WWTHvkrSggjWpJE93Ae7L1qXr/sBD6o/9sIBJkqSF2wRcC/xH/fFTti5ON5RZcde0Q7RSsHYmydPfAR7M5sJ198cDgd0Do0mSpG66A/gJm4vU3R9Xlllxe2Qw6EjB2pEkTxcDB7B16ToYOBy4R2A0SZLUjt8A3wN+xNZF6uoyKzZGBptNpwvWjtTF6yHA/1N//D5wGLBbZC5JkrQgdwLfB/4N+Pf64z+6XKR2pJcFayZJni4FDqEqW3cXr0NxGwpJkrpoHXAZm4vUvwFXlFmxPjRVQwZTsGaS5OmuwMPZPOV6DPCA0FCSJI3TVcDX2TydurTMirWxkaZn0AVrJkme7g88YYuP+8UmkiRpkK4H/uXujzIrrgnO06rRFaxtJXn6YOCJVGXrD4G9QwNJktRPNwNfoSpUF5dZcWVsnFijL1hbqjdOPYyqbD2RaknRdytKkrS931At+V1MVaq+v5CNOYfGgjWL+sT5RwJ/DPwp8LDYRJIkhboc+GfgM8B3hnJC+jRYsOYgydP7UxWtPwUeDSyJTSRJ0lRtAL5JVar+ucyKnwbn6Q0L1jwlebo38BSqsvVk4HdiE0mS1Ijbgc9TlapPl1lxc3CeXrJgNSDJ092Ao6nK1lOBe8cmkiRpTm4CLqIqVV8ss+LO4Dy9Z8FqWL3L/B8AxwHHA/vHJpIkaUbXAOcBFwDf7uNu6V1mwZqi+l2JjwOeBzwTWBGbSJI0cquBjwMfAr7qu/6mx4LVkiRPd6daQnw+cAyeIC9JascG4AvAB6lOVL8jOM8oWLACJHl6H+A5VJOtw4PjSJKG6XtUk6p/LLPixugwY2PBCpbk6SFUU63n4mV7JEkLcz3wEeCDZVZcER1mzCxYHVGfHP8E4C+APwOWhQaSJPXFOuBjwPuprvnnyeodYMHqoCRP7w2cCPwlsF9wHElSN10LvAc4u8yKm6LDaGsWrA5L8nQJ1b5a/53q2oiLYhNJkoJtorr23zuBi8qs2BCcRztgweqJJE8fDLyUagnR7R4kaVxWUy0BvqvMiiuDs2gCFqyeSfJ0OdW7D18KHBocR5I0XZcB7wI+VGbFmugwmpwFq8eSPH0s1fLh04FdguNIkppxF/Ap4J1lVnwtOozmx4I1AEme3g94JfASvOi0JPXV7cB7gbeWWXF9dBgtjAVrQJI83Qd4OZAB9wyOI0mazK+BHDizzIpfRYdRMyxYA5Tk6QqqpcO/Au4VHEeSNLNfAm+jWgpcHR1GzbJgDViSp78DvAg4Bdg3OI4kqXId8BbgfWVW3B4dRtNhwRqBJE+XUV2O59XA/YPjSNJY/RT4O6rL2KyLDqPpsmCNSL1x6fHAqcDDguNI0lhcDpwBnOfGoONhwRqhJE8XAccBbwIODo4jSUP1I+BvgAvKrPBgOzIWrBGrJ1ovAN6A1zyUpKZcS/W6+gEnVuNlwRJJnu5GtbXDqcBewXEkqa9uoVoKzMusuDM6jGJZsPRbSZ7eE/hr4GW4YakkTep24O3A/yqz4tfRYdQNFixtJ8nT+wL/P3AisDQ4jiR11XrgbOB/lllxQ3QYdYsFSzuU5OkDgdOAPwMWBceRpK7YBHwMeG2ZFT+JDqNusmBpp5I8Tan2bnlSdBZJCvYl4NVlVhTRQdRtFixNLMnTp1KdZ3BgdBZJatnPgZeVWXFRdBD1w+LoAOqP+oXlocD/BNYGx5GkNqyles17qOVKc+EES/OS5On9gf8NHBudRZKm5LPA/yiz4qfRQdQ/FiwtSJKnxwFnAgdEZ5GkhlwNvLzMiguig6i/XCLUgtQvQA+luuyOFy+V1GfrqF7LHmq50kI5wVJjkjx9ENWy4THRWSRpjr5AtRz44+ggGgYLlhqX5OkzgLfh9Q0ldd+1wF+VWfGJ6CAaFpcI1bj6hepg4O+BjcFxJGkmG6leow62XGkanGBpqpI8fRRwLvCg6CySVPsx8MIyK74VHUTD5QRLU1W/gD0CeCtOsyTF2kj1WvQIy5WmzQmWWpPk6ZFU06wHR2eRNDpXUk2tLokOonFwgqXW1C9shwFvwWmWpHZspHrNOcxypTY5wVIIp1mSWuDUSmGcYCmE0yxJU+TUSuGcYClckqd/QDXNekh0Fkm99x9UU6tvRwfRuDnBUrj6hfBw4J3RWST12juBwy1X6gInWOqUJE+fDpwD7BmdRVJv3AqcUGbFp6KDSHezYKlzkjzdH/go8KjoLJI671vAs8usuCY6iLQllwjVOfUL5eOAMwD/C0DSTDZRvUY8znKlLnKCpU5L8vRo4EPAfaKzSOqMZNg9SQAAEL1JREFUG4HnlVnxxegg0o44wVKn1S+gjwB8IZUE1WvBIyxX6joLljqvzIobgScDrwHWB8eRFGM91WvAk+vXBKnTXCJUryR5+iiqE+D3j84iqTXXUJ3I7gWa1RtOsNQr9QvsYcCF0VkkteJCqh3ZLVfqFQuWeqfMiluB44A34rsMpaHaRPU7flz9Oy/1ikuE6rUkT58JvB9YHhxFUnPWAH9RZsXHo4NI82XBUu8lefoI4AJgZXAUSQu3impq9YPoINJCuESo3qtfiH8f+Gp0FkkL8lXg9y1XGgILlgahzIpfAU8C3hWdRdK8vAt4Uv27LPWeS4QanCRPXwzkwC7RWSTt1F1AVmbFWdFBpCZZsDRISZ4eBXwCuHd0Fkk7dBPwjDIrvhEdRGqaBUuDleTpfsA/A4dHZ5G0ne8Bf1pmxbXRQaRp8BwsDVb9wv1o4GPRWSRt5WPAoy1XGjILlgatzIo7gOOBM6OzSAKq38Xj699NabBcItRoJHn6SuDNwKLoLNIIbQJeVWbFW6ODSG2wYGlUkjx9NtXO78uCo0hjso5qZ/aPRgeR2mLB0ugkefoE4FPAiugs0gisBp5eZsW/RAeR2mTB0iglefpw4LNAEp1FGrASOLbMikujg0ht8yR3jVL9gn8k8MPoLNJA/RA40nKlsbJgabTKrLgGOApwk0OpWd8Ajqp/x6RRsmBp1MqsuBU4mmrXd0kL9wng6Pp3SxotC5ZGr8yKO4FnUV2/UNL85cCz6t8padQ8yV3aQpKnpwF/E51D6qE3lVnx2ugQUlc4wZK2UB8g3hCdQ+qZN1iupK05wZJmkOTpqcDp0TmkHnhNmRVnRIeQusaCJe1AkqenUF1aR9LMXlVmxVuiQ0hdZMGSZpHk6cnA26NzSB30sjIr3hEdQuoqC5a0E0mengS8Ey8SLUF10eb/XmbFu6ODSF1mwZImkOTpicBZWLI0bpuAF5dZcXZ0EKnrLFjShJI8fQHwD/juW43TRuD/LbPiA9FBpD6wYElzkOTpc4EPAEuis0gt2gC8oMyKj0QHkfrCgiXNUZKnzwI+AiyNziK1YD3w3DIrzo8OIvWJSx3SHNUHmhOozkeRhmwTcILlSpo7C5Y0D2VWfBB4RXQOacpeUf+sS5ojC5Y0T2VWnAmcFp1DmpLT6p9xSfPgOVjSAiV5+i7gpOgcUoPeXWbFS6NDSH3mBEtauAw4LzqE1JDzqH6mJS2AEyypAUme7gJcCPxRdBZpAT4HPK3Miruig0h9Z8GSGpLk6e8AXwKOjM4izcMlwJPKrLg9Oog0BBYsqUFJnu4JfBU4NDqLNAeXAY8rs+LW6CDSUFiwpIYleXpf4BvAQdFZpAn8DDiqzIobooNIQ+JJ7lLD6gPVMcAvorNIO/EL4BjLldQ8C5Y0BWVW/BQ4FlgTnUXagTXAsfXPqqSGWbCkKSmz4vvAc4CN0VmkbWwEnlP/jEqaAguWNEVlVlwI/HV0Dmkbf13/bEqaEk9yl1qQ5OnZVBeIlqKdU2bFidEhpKFzgiW14yTgy9EhNHpfxss6Sa1wgiW1JMnTvYBvAw+MzqJR+gnwB2VW3BIdRBoDJ1hSS+oD21MAN3NU224FnmK5ktpjwZJaVGbFj4FnAF7rTW25C3hG/bMnqSUWLKllZVZ8GXhpdA6NxkvrnzlJLbJgSQHKrDgbeGt0Dg3eW+ufNUkts2BJcf4/wL2INC0XUv2MSQrguwilQEme7gH8G/Dg6CwalCuB3y+z4rboINJYOcGSAtUHwGcAt0dn0WDcTnVSu+VKCmTBkoKVWXEF8JLoHBqMl9Q/U5ICWbCkDiiz4sPAe6JzqPfeU/8sSQpmwZK64+XAv0eHUG/9O9XPkKQO8CR3qUOSPD0A+C6wV3QW9cotwBFlVlwdHURSxQmW1CH1AfJ5gP/lo0ltAp5nuZK6xYIldUyZFZ8B3hSdQ73xpvpnRlKHWLCkbno9cHF0CHXexVQ/K5I6xnOwpI5K8vRewPeA+0VnUSddDxxeZsUvo4NI2p4TLKmj6gPns4C7orOoc+4CnmW5krrLgiV1WJkV3wJeG51DnfPa+mdDUkdZsKTuewvwtegQ6oyvUf1MSOowz8GSeqDeH+tSYEV0FoVaDTzcLRmk7nOCJfVAfUA9OTqHwp1suZL6wQmW1CNJnn4ceEZ0DoX4RJkVz4wOIWkyTrCkfnkJcEN0CLXuBqrnXlJPWLCkHimz4mbghOgcat0J9XMvqScsWFLPlFnxWeDd0TnUmnfXz7mkHrFgSf10CvDj6BCauh9TPdeSesaCJfVQmRW3A88D1kdn0dSsB55XP9eSesaCJfVUmRXfAU6LzqGpOa1+jiX1kAVL6rc3AR6Eh+c7VM+tpJ5yHyyp55I8PQT4HrBLdBY14i7g8DIrrogOImn+nGBJPVcfiN8cnUONebPlSuo/C5Y0DG8ErooOoQW7iuq5lNRzFixpAMqsuBM4KTqHFuyk+rmU1HMWLGkgyqz4EvCh6Byatw/Vz6GkAbBgScPySsBLqvTPzVTPnaSBsGBJA1JmxS9x5+8+OqV+7iQNhNs0SAOU5OmXgT+MzqGJfKXMisdHh5DULCdY0jC9BFgbHUI7tZbquZI0MBYsaYDKrPgxcHp0Du3U6fVzJWlgLFjScP0d8KPoENqhH1E9R5IGyIIlDVSZFeuolp880bJ7NgEvqZ8jSQNkwZIGrMyKrwP/FJ1D2/mn+rmRNFAWLGn4Xg24O3h33En1nEgaMAuWNHBlVlwDvC06h37rbfVzImnALFjSOJwB3BQdQtxE9VxIGjgLljQCZVbcBrwuOod4Xf1cSBo4C5Y0HucAl0eHGLHLqZ4DSSNgwZJGosyKDXidwkin1M+BpBGwYEkjUmbF54HPRecYoc/Vj72kkbBgSeNzCuAkpT1ODqURsmBJI1NmxRXA+6JzjMj76sdc0ohYsKRxej2wOjrECKymeqwljYwFSxqhMivcj6kdZ9SPtaSRsWBJ43UmcH10iAG7nuoxljRCFixppMqsuBOnWNN0Rv0YSxohC5Y0bmcD10WHGKDrqB5bSSNlwZJGrMyKtcDp0TkG6PT6sZU0UhYsSecA10aHGJBr8ZI40uhZsKSRK7NiHU6xmnR6/ZhKGjELliSAfwCuiQ4xANdQPZaSRs6CJckpVnOcXkkCLFiSNvsH4OroED12NU6vJNUsWJIAKLPiLpxiLcTp9WMoSRYsSVs5F6dY83E11WMnSYAFS9IW6gnMadE5eug0p1eStmTBkrStDwCrokP0yCqqx0ySfsuCJWkr9STmzdE5euTNTq8kbcuCJWkm7wdujQ7RA7dSPVaStBULlqTtlFlxO/De6Bw98N76sZKkrViwJO1IDrj0tWN3UT1GkrQdC5akGZVZcT1wfnSODju/fowkaTsWLEmz+fvoAB3mYyNphyxYknaozIrvAl+NztFBX60fG0makQVL0s68LTpAB/mYSJqVBUvSzlwEXBUdokOuonpMJGmHLFiSZlVmxUbgzOgcHXJm/ZhI0g5ZsCRN4v248Si4saikCVmwJO1UmRVrgLOic3TAWfVjIUmzsmBJmtTYNx51Y1FJE7NgSZpImRXXARdE5wh0Qf0YSNJOWbAkzcU50QECjfl7lzRHFixJc/FF4NroEAGupfreJWkiFixJE6u3Jzg3OkeAc92aQdJcWLAkzdW5wKboEC3axDhLpaQFsGBJmpMyK1YBF0fnaNHF9fcsSROzYEmajzGd8D2m71VSQyxYkubjU8At0SFacAvV9ypJc2LBkjRnZVasBT4SnaMFH6m/V0maEwuWpPkaw9LZGL5HSVNgwZI0L2VW/AAoonNMUVF/j5I0ZxYsSQsx5AnPkL83SVNmwZK0EP8I3BEdYgruoPreJGleLFiS5q3Mil8Dn4zOMQWfrL83SZoXC5akhTovOsAUDPF7ktQiC5akhfoCsDo6RINWU31PkjRvFixJC1LvE3VhdI4GXejeV5IWyoIlqQkfiw7QoCF9L5KCWLAkNeHzDGOZcDXV9yJJC2LBkrRgA1omdHlQUiMsWJKaMoSltSF8D5I6wIIlqSl9XyZ0eVBSYyxYkhpRL61dFJ1jAS5yeVBSUyxYkprU5yW2PmeX1DEWLElN+hxwW3SIebiNKrskNcKCJakxPX43oe8elNQoC5akpvVxqa2PmSV1mAVLUtM+D9wRHWIO7sB3D0pqmAVLUqPKrLgT+Ep0jjn4Sp1ZkhpjwZI0DX2aCPUpq6SesGBJmoY+vSOvT1kl9cSiTZs2RWeQNEBJnq4CDojOsRNXl1mxMjqEpOFxgiVpWvowGXJ5UNJUWLAkTUsfyksfSqCkHrJgSZqWi4H10SFmsZ4qoyQ1zoIlaSrKrFgNXBKdYxaX1BklqXEWLEnT1OVlwi5nk9RzFixJ09Tlc5y6nE1Sz1mwJE3Td4FfRoeYwS+psknSVFiwJE1NmRWbgC9E55jBF+tskjQVFixJ09bFc51cHpQ0VRYsSdP2pegAM+hiJkkDYsGSNFVlVtwArIrOsYVVdSZJmhoLlqQ2fDM6wBa6lEXSQFmwJLXhW9EBttClLJIGyoIlqQ1dmhp1KYukgbJgSWrDZcBt0SGoMlwWHULS8FmwJE1dmRUbgX+NzgH8a51FkqbKgiWpLV1YmutCBkkjYMGS1JYunFzehQySRsCCJakt3wYil+c21hkkaeosWJJaUWbFauDywAiX1xkkaeosWJLaFLlE5/KgpNZYsCS1KfIkc09wl9QaC5akNjnBkjQKizZt2hSdQdKIJHl6I3Dvlu/2pjIr7tPyfUoaMSdYktr2g5Hcp6QRs2BJalvEpWq8PI6kVlmwJLXNgiVp8CxYktpmwZI0eBYsSW37Ie3u6L6xvk9Jao0FS1Kryqy4A7iqxbu8qr5PSWqNBUtShEsHel+SBFiwJMVo85woz7+S1DoLlqQIFixJg2bBkhTBgiVp0CxYkiL8DLi9hfu5vb4vSWqVBUtS68qs2Ahc0cJdXVHflyS1yoIlKUobS3cuD0oKYcGSFKWN7RPcokFSCAuWpChXDuQ+JGk7FixJUVYN5D4kaTsWLElRrh7IfUjSdixYkkLU1we8cYp3caPXIJQUxYIlKdKqnt62JM3KgiUp0qqe3rYkzcqCJSnSqp7etiTNyoIlKdKqnt62JM3KgiUp0qqe3rYkzcqCJSnSqp7etiTNyoIlKdI096lyDyxJYSxYksJMcS8s98CSFMqCJSnaqp7cpiRNzIIlKdqqntymJE3MgiUp2qqe3KYkTcyCJSnaVM7BmsJtStLELFiSot3ck9uUpIlZsCRFs2BJGhwLlqRov+rJbUrSxCxYkqI5wZI0OBYsSdEsWJIGx4IlKdp/AhsavL0N9W1KUhgLlqRQZVZsAm5p8CZvqW9TksJYsCR1QZNLei4PSgpnwZLUBRYsSYNiwZLUBRYsSYNiwZLUBU3uW+UeWJLCWbAkdYETLEmDYsGS1AUWLEmDYsGS1AUWLEmDYsGS1AV3dPS2JGleLFiSumBtR29LkubFgiWpC9Z19LYkaV4sWJK6oMmpkwVLUjgLlqQuaLIUuUQoKZwFS1IXuEQoaVAsWJK6wJPcJQ2KBUtSFzjBkjQoFixJXWDBkjQoFixJXeASoaRBsWBJ6gInWJIGxYIlqQssWJIGxYIlqQtcIpQ0KBYsSV3gBEvSoCyNDiBJVKXoJ1SvSbts83nLPwOsB+6qP2/557s/W7Akhfu/t2IcyyhqfJwAAAAASUVORK5CYII=;" parent="1" vertex="1">
                    <mxGeometry x="550" y="329.01" width="20.99" height="20.99" as="geometry"/>
                </mxCell>
                <mxCell id="49" value="" style="rounded=0;whiteSpace=wrap;html=1;fillColor=none;align=left;verticalAlign=top;strokeColor=#FF8000;dashed=1;" parent="1" vertex="1">
                    <mxGeometry x="200" y="260" width="190" height="80" as="geometry"/>
                </mxCell>
                <mxCell id="50" value="" style="sketch=0;outlineConnect=0;fontColor=#232F3E;gradientColor=none;fillColor=#D45B07;strokeColor=none;dashed=0;verticalLabelPosition=bottom;verticalAlign=top;align=center;html=1;fontSize=12;fontStyle=0;aspect=fixed;pointerEvents=1;shape=mxgraph.aws4.container_1;" parent="1" vertex="1">
                    <mxGeometry x="310.1" y="283.54" width="48" height="31" as="geometry"/>
                </mxCell>
                <mxCell id="51" value="Selenium" style="text;html=1;strokeColor=none;fillColor=none;align=left;verticalAlign=middle;whiteSpace=wrap;rounded=0;" parent="1" vertex="1">
                    <mxGeometry x="303.60999999999996" y="308.6" width="61.39" height="30" as="geometry"/>
                </mxCell>
                <mxCell id="52" value="" style="shape=image;verticalLabelPosition=bottom;labelBackgroundColor=#ffffff;verticalAlign=top;aspect=fixed;imageAspect=0;image=data:image/png,iVBORw0KGgoAAAANSUhEUgAAAOYAAADwCAYAAAAU5Rg9AAAMImlDQ1BpY2MAAEiJlVcHVFPLFp1bUklogQhICb2JUgQCSA0tgIBUwUZIAgklxoSgYkcfKvgsqIhiRZ+KKPosgIgNe3ko9v5RREV5igUbKn+SAPp0/f/XP2vNvfueOXPOPufOzJoBQCuWJ5XmoNoA5EryZHFhQazRKaksUhtAAB2QgS5g8/hyaWBsbBSA0v/+p7y/Aa2hXHVS+vq1/7+KjkAo5wOAxEKcLpDzcyHeDwDuwZfK8gAgdEK95eQ8KcREyBLoySBBiK2UOFON2UqcrsZRKpuEOA7EaQCQaTyeLBMATSUvVj4/E/rRXASxs0QglkDcCLEfX8QTQPwF4iG5uRMh1rKD2C79Bz+Z//CZPuCTx8scwOpcVEIOFsulObyp/2c5/rfk5ij6Y1jCRhPJwuOUOSvrlj0xUolpEJ+VpEfHQKwL8TWxQGWvxE9EivDEPvuPfDkH1gwwAUBpAl5wJMTGEFtIcqKj+vR+GeJQLsSw9miCOI+boB6LCmQT4/r8o1OE8pD4fsyTqWIpbYoV2YmBfT7Xi4Tcfp8NBaKEZDVP9HK+OCkaYk2I78mz4yP7bJ4XiDjR/TYyRZySM/znGMiQhcapbTCrXHl/Xpi3SMyN7sNReaKEcPVYbDyfp+JmAHGWUD46qp+nQBgcos4LKxRKEvv4Y6XSvKC4Pvst0pzYPnusUZgTptRbQNwsz4/vH9uVByebOl8cSPNiE9TccL0sXkSsmgPuAKIABwQDFlDAlg4mgiwgbu6s64Rf6p5QwAMykAmEwKlP0z8iWdUjgc94UAD+hkgI5APjglS9QpAP9V8HtOqnE8hQ9earRmSDJxDngkiQA78VqlGSgWhJ4DHUiH+Jzodcc2BT9v2iY2n164ghxGBiODGUaI8b4X64Dx4FnwGwueJs3Kuf13d7whNCC+ER4TqhlXB7grhQ9hNzFhgJWiHH0L7s0n/MDreBXt3xINwX+oe+cSZuBJzw4TBSIO4PY7tD7Y9cFQMZf69lny+KMwWlDKIEUOx+ZqDpoOk+4EVZqR9roeaVPlAtzkDPz3lwfqifAL4jf7bEFmD7sDPYcewc1ojVARZ2FKvHLmKHlXhgbjxWzY3+aHEqPtnQj/iXeLy+mMqqyZ2rnTucv/T1gTzhlDzlYuFMlE6ViTNFeaxAuFsLWVwJf+gQlquzixcAyr1fvbW8Zar2dIR5/rtu7nwAfKt6e3sPfddFtgOw7xUA1PvfdbZZcDmLADi7kq+Q5at1uPJBAFSgBVeKITCFe5cdzMgVeAAfEABCQASIAQkgBYyHdRbBeSoDk8F0MAcUgRKwFKwEa8AGsBlsB7vAXlAHGsFxcBpcAJfBdXAXzpV28AJ0gfegB0EQEkJHGIghYoZYI46IK8JG/JAQJAqJQ1KQNCQTkSAKZDoyFylBSpE1yCakCvkTOYgcR84hLcht5CHSgbxBPqMYSkP1UBPUBh2GstFANBJNQMehmegktACdhy5Gy9FKdCdaix5HL6DX0Vb0BdqNAUwDY2LmmBPGxjhYDJaKZWAybCZWjJVhlVgN1gD/9FWsFevEPuFEnIGzcCc4X8PxRJyPT8Jn4ovwNfh2vBY/iV/FH+Jd+DcCnWBMcCR4E7iE0YRMwmRCEaGMsJVwgHAKrp12wnsikcgk2hI94dpLIWYRpxEXEdcRdxOPEVuIbcRuEolkSHIk+ZJiSDxSHqmItJq0k3SUdIXUTvpI1iCbkV3JoeRUsoRcSC4j7yAfIV8hPyX3ULQp1hRvSgxFQJlKWULZQmmgXKK0U3qoOlRbqi81gZpFnUMtp9ZQT1HvUd9qaGhYaHhpjNIQa8zWKNfYo3FW46HGJ5ouzYHGoY2lKWiLadtox2i3aW/pdLoNPYCeSs+jL6ZX0U/QH9A/ajI0h2pyNQWaszQrNGs1r2i+1KJoWWsFao3XKtAq09qndUmrU5uibaPN0eZpz9Su0D6ofVO7W4eh46ITo5Ors0hnh845nWe6JF0b3RBdge483c26J3TbGBjDksFh8BlzGVsYpxjtekQ9Wz2uXpZeid4uvWa9Ln1d/eH6SfpT9Cv0D+u3MjGmDZPLzGEuYe5l3mB+HmQyKHCQcNDCQTWDrgz6YDDYIMBAaFBssNvgusFnQ5ZhiGG24TLDOsP7RriRg9Eoo8lG641OGXUO1hvsM5g/uHjw3sF3jFFjB+M442nGm40vGnebmJqEmUhNVpucMOk0ZZoGmGaZrjA9YtphxjDzMxObrTA7avacpc8KZOWwylknWV3mxubh5grzTebN5j0WthaJFoUWuy3uW1It2ZYZlissmyy7rMysRlpNt6q2umNNsWZbi6xXWZ+x/mBja5NsM9+mzuaZrYEt17bAttr2nh3dzt9ukl2l3TV7oj3bPtt+nf1lB9TB3UHkUOFwyRF19HAUO65zbBlCGOI1RDKkcshNJ5pToFO+U7XTw6HMoVFDC4fWDX05zGpY6rBlw84M++bs7pzjvMX5rouuS4RLoUuDyxtXB1e+a4XrNTe6W6jbLLd6t9fDHYcLh68ffsud4T7Sfb57k/tXD08PmUeNR4enlWea51rPm2w9dix7EfusF8EryGuWV6PXJ28P7zzvvd6vfJx8sn12+DwbYTtCOGLLiDZfC1+e7ybfVj+WX5rfRr9Wf3N/nn+l/6MAywBBwNaAp4H2gVmBOwNfBjkHyYIOBH3geHNmcI4FY8FhwcXBzSG6IYkha0IehFqEZoZWh3aFuYdNCzsWTgiPDF8WfpNrwuVzq7hdEZ4RMyJORtIi4yPXRD6KcoiSRTWMREdGjFw+8l60dbQkui4GxHBjlsfcj7WNnRR7aBRxVOyoilFP4lzipsediWfET4jfEf8+IShhScLdRLtERWJTklbS2KSqpA/Jwcmlya2jh42eMfpCilGKOKU+lZSalLo1tXtMyJiVY9rHuo8tGntjnO24KePOjTcanzP+8AStCbwJ+9IIaclpO9K+8GJ4lbzudG762vQuPoe/iv9CECBYIegQ+gpLhU8zfDNKM55l+mYuz+wQ+YvKRJ1ijniN+HVWeNaGrA/ZMdnbsntzknN255Jz03IPSnQl2ZKTE00nTpnYInWUFklbJ3lPWjmpSxYp2ypH5OPk9Xl68JB9UWGn+E3xMN8vvyL/4+Skyfum6EyRTLk41WHqwqlPC0IL/piGT+NPa5puPn3O9IczAmdsmonMTJ/ZNMty1rxZ7bPDZm+fQ52TPeevQufC0sJ3c5PnNswzmTd7XttvYb9VF2kWyYpuzveZv2EBvkC8oHmh28LVC78VC4rPlziXlJV8WcRfdP53l9/Lf+9dnLG4eYnHkvVLiUslS28s81+2vVSntKC0bfnI5bUrWCuKV7xbOWHlubLhZRtWUVcpVrWWR5XXr7ZavXT1lzWiNdcrgip2rzVeu3Dth3WCdVfWB6yv2WCyoWTD543ijbc2hW2qrbSpLNtM3Jy/+cmWpC1n/mD/UbXVaGvJ1q/bJNtat8dtP1nlWVW1w3jHkmq0WlHdsXPszsu7gnfV1zjVbNrN3F2yB+xR7Hn+Z9qfN/ZG7m3ax95Xs996/9oDjAPFtUjt1NquOlFda31KfcvBiINNDT4NBw4NPbSt0byx4rD+4SVHqEfmHek9WnC0+5j0WOfxzONtTROa7p4YfeLayVEnm09Fnjp7OvT0iTOBZ46e9T3beM773MHz7PN1Fzwu1F50v3jgL/e/DjR7NNde8rxUf9nrckPLiJYjV/yvHL8afPX0Ne61C9ejr7fcSLxx6+bYm623BLee3c65/fpO/p2eu7PvEe4V39e+X/bA+EHlv+z/tbvVo/Xww+CHFx/FP7rbxm978Vj++Ev7vCf0J2VPzZ5WPXN91tgR2nH5+Zjn7S+kL3o6i/7W+XvtS7uX+18FvLrYNbqr/bXsde+bRW8N3257N/xdU3ds94P3ue97PhR/NPy4/RP705nPyZ+f9kz+QvpS/tX+a8O3yG/3enN7e6U8GU91FMBgQzMyAHizDQB6CgCMy/D8MEZ9N1MJor5PqhD4T1h9f1OJBwA18KU8hnOOAbAHNpsA6Hs2AMojeEIAQN3cBlqfyDPcXNW+aPDGQvjY2/vWBABSAwBfZb29Pet6e79ugWRvA3BskvpOqBTlHXRjgBJdNxDMBj/JvwGcrXJQXuDutQAAACBjSFJNAAB6JgAAgIQAAPoAAACA6AAAdTAAAOpgAAA6mAAAF3CculE8AAAABmJLR0QAAAAAAAD5Q7t/AAAACXBIWXMAABYlAAAWJQFJUiTwAAAAB3RJTUUH5AUMBy4CI3G9eQAAMq1JREFUeNrtnXdgHNW1/z8z23fVe7UkW7Ka5W4wBmOwsWN6byH0FjqpL3nJ75EEEpKXByGmJrQQSAihBRI6OFRj3LAkW5Il2ZKt3stq+87M7w9JjkMwlq1dbdH9JvCHWc/cuXM/c8+599xzpKb+Bu3pXQ/TNNyAkJDQkUgjN6aAK0tvI8uWG5Ar6t9qf5kPut5EQxX9KyR0hGp2NlCcMoevJ14XGDA7HK2omoosyaJ3hYSOULIkEWuMD+T1JNGrQkKTkKopHJNxAidkrw0cmKJbhYQmA6VKbuxMriy9lVhDvABTSCjU0tCwGmK4ouQWCuJmB9Y0Ft0rJHRkkpA4I/9ClmeuDrzPKrpXSOjI/MqFqcdwQeFV6GW9AFNIKBz8ygxrDleX3kaCKSko9xBgCgkdpl9p1pm5tPgGihMrgnYfAaaQ0OGRyddmnM2q3NODehsBppDQYfiVc5IXcMns6zHKRgGmkFDIJ0pNJdmcztVl3yLFkh70+wkwhYQmYL/qZSNfn30tFcmLpuSOAkwhoUOasBorc07h5LxzkZAEmEJC4eBXzk4o57LimzDrLFN2XwGmkNBBDViNeFMSV5XeRqYtZ0rvLcAUEjqIdJKO82ddweK0Y6f83gJMIaGDmLDHZqzizIKLQ3JWWYApJPQfUKrkxxVxRekt2AyxIWmDAFNI6At+ZYwhlitLbiEvdlbI2iHAFBI6QBISZxZ8nWWZK0PaDgGmkNABfuWStOM4v/AKdJJegCkkFA5+ZZZtBleV3UacMSHk7RFgCgm/Eg2L3splJTdRFF8WFm0SYAoJAafkncuJ2SeHTXsEmELT3q+cm7yYi4quxRDko1wCTCGhCfqVqZZMrin7Fsnm1LBqmwBTaNr6lUadiUtmX09Z0vywa58AU2h6gqlpnJRzOl+bcdaUHeUSYAoJHcKvLEmcy6XFN2DSmcOyjQJMoWk3UyaaUri67HbSrVlh204BptC0kk7Wc0HRVSxMOTqs2ynAFJpGJqzK8VmrOT3/QqQwLzupF69LaLpAOTNuNpeX3IJVbwu79vW5u3m16S8AnJJ3ngBTaBr4lWjEGuO5qvQ2cmPyw659Q94BHqy+m3+2vYGEhNPvEKasUPRLRuacmd/g6IwVYdc2l9/Jk7Xr+LD9bXSSDoAeV6cAUyjaTViFo9OP55xZl+4f+OEin+rl2YZHeX3vC2ho+/9ckiQBplB0+5U5MQVcVXZbQKs9B+qD8UrTszzf+AcUTfmPIAcBplDU+pVWvY0rSm5mZlxx2LXtvdZ/8Me6h/Aqni+NPBJgCkWtTsu/gOOz1oRduz7r/IDf77yHEd8wkiQdxC8WEopCv3JBylIuLLoavWwIq7bt6N/Gg9V30+fu+cq0mAJMoajzK9Ot2VxddjuJpuSwalvTcD3rKu+izbH3kLlqBZhCUeVXmnRmvlH8TUoT54ZV2zqdbayr+jmNQzXIE1gdFmAKRRGZGmtmnMnqnDPCqlmDnj4eqv4llb2bJgSlAFMoqvzKsqQFfGP2NzHqTGHTLqd/hMdqfsMnne8dVqkFAaZQFEyUKsnmNK4uu51US0bYtMureHhm1yO81fK3wz6MLcAUinjPUi8buKjoGualLAmbVimawkt7nualPc+gauph/30BplCEm7AaJ2SfzCl554VNihANjbf2/Y0/1f8On+o9onYJMIUi2q8sSijl8pKbsOitYdOuTzre4/Ga3+DwjRzxx0KAKRShBqxGvDGRq0pvI8s2I2zaVdm7iYeqf8mAp29SdTUFmEIRKRmZc2ddzpK05WHTpsahWtZV3UWns3XSxW4FmEIRacIuy1zJWTMvCUm15y9Tm2Mf66ruomm4fsJ7lQJMoSiCUiUvdhZXlt5KTIiqPX9Rfe4eHqz+BTv6tgUESgGmUMT5lTZDDFeU3Ep+bGFYtGnEN8zvd/4fn3V9GNDZW4ApFDGSkDij4GKOy1oVFu3xKG6eqnuQ9a2vBXyrRoApFDF+5aLUZVxQeGXIqz0D+FU/zzc+yatNf0FFDfj1BZhCEeFXZtpyubrsduKNiWHRntf3vsCzDY/h13xBCWwQYE4zH03VVGRJRtPUf0sAFc5tNustXFZ8I7MTysOiTR+2v8WTtb/F7XcGLdpI5JWdRlBadFZOzjuHsqQFNA3X8/fm5xj2DIR9VvKTZ5zDypxTw6ItW3s28MiO/2XIOxjUrRoB5jSRLOm4oPBKLim+Hp2k54TstWTZZvBQ9d04/CNhWYputNrzEr4++7qwqPZcN1DN/VU/p9vVGfT9U2HKThMfbXnmSZw767L9CycSEmtyz+CykpswyqawM2s1TSXFksHVZbeTbE4LeXtaRppYV3Un++y7pySoQYAZ9VAqFMaXclXp7di+sCEvSzrOLLiY8wuvQCfpwgZODQ2DzsjXi65jTvLCkLenx9XJ/VU/p26gOmABBALM6exXahqJpmSuLf82OTF5X/obg2zk4qJrOTXv/PA5NqVprMw5jbV5Z4e8TcPeQR7Z8b9s6f5kSsP/BJjRiyV62cDFs69jceqyr/ylRW/lytJbOSF7LZqmhrTVqqZQnDiHy4pvxKyzhLQt43VFPmh/a8pjcgWYUWvCapyUexqn5V8woVXXOGMC35zzfZakLz+iE/eBmikTTMlcXXo7GdbskPafT/Xyl4bHeO0LdUUEmEKTmnXKkxZwecnNhzXrpJjTubnivylPmo+qKVPebp08unK8MPWYEPefyt+bnuP5xidRNH9IzGkBZtRBqZJqyeS68u+QZsk87L+fE5PPrXP/HwVxs6cUTlVTOS7zJM4ouCjER7k01re+xlN1D+A5SF0RAabQYQ6p0YTHlxXfOKnVzKKEMm6Z+2MyrDlTYtaqmkpBXBFXlN6CVR8T0j78rOtDfrfz19i/oq6IAFPosHVK3nmsnnHmpL/081OO4qaKH5JoSg4qnBoaMYY4riy9lRkxM0Padzv7P+eBCdQVEWAKHZZfuTBlKZcUX48xQFEyyzJXcm35t7EZYoO2ACIhcfbMSzgm48SQ9l/zcAPrqu6ibaQ5LLIiCDCjxK/Mss3g2vLvkGRKCSg0q3PP5LLiG4ISHaRqCkelHz8WkRS6as9dzjbWVd1Fw+DOKQsgEGBOA7/SqrdxZemtQTl9oZN0nDXzEs6bdXlAo4NUTSU7Jp+rSm8jzpgQsv4b9PTz0I5fsf0w6ooIMIUmNKudNfMSVmStDdo9DLKRr8++LmBJlTU0LHorlxffRGF8Scj6zukf4fGa3/Bxx7thk9RLgBklfuXSjBO4oPAq9HJwDwpZ9FauKr2NFVlfC8hi0Kl557Mie23I+s6revjTrt/xZsvfwvBcjQAzov3K/Lgirin7FnHG+Cm552h00H+xJO24I4ZT1RTmpxzFRbOvwRCias+KpvDynj/x0p6nx/ZqJQGmUGA8S7PewqXFN055trhUSzo3z/0RZUnzDjsAQdVU0ixZXF16e0AXqQ7XjH573ys8s+thvEdYV0SAKXSQAa6RbEqlInlRSO6fOxYdlB9XNOGZczT4wcQ3iq+nLGleyPpuQ8d6Hqu5d1J1RQSYQl8qSZIY8dvpdraHrA2zE8rHooOyJgSnpmmszj2D1blnhsx0rOzdzEM7Jl9XRIAp9OVgIjHsGeTJ2nV0OttC1o4FKUdz4wSig0arPc/jG8U3YNKZQ9LWxqE67q+6iw5HS9hDKcCM8Flza8+n/LbyZ3S7OkLWjmMzV3FN2bewGWK+dI9T01SSzKlcXXr7EQXVB0Ltjn3cX3Une4Z3hdVepQAzSiVLMp91fci6qrvodXeFbPZeM+MsLi2+AaNs/A849bKBCwuvZn7K0SFpX7+7hwer76Y6gHVFBJhCE4Lz04713F/1c/rdPSFpw2h00Dc49wvRQYqmcHzW18YOa0+9Xznis/P7mnvY2PVBRJivAsyoM2tlPm5/lweq72bA0xeSNhjHooNOy79gfxB9RfIirii9OSTVnj2Kmz/uepD3Wv4R1quvB5PIKxtFPucH7W+il/XcVPHDkJQSsOptXFv2HY5KPx6Hz05F8qKQ+JV+1c8Lu//AK3ueRUUVYAqFGE4k1rf+A52k58Y5/0XsFEUEHSiL3srS9BUh6wNNU3lj34v8uf7RoNUVEaas0BHh+U7LK/y+5h5GfMPT7uk/bH+bJ2qCW1dEgCl0pPMGb+x9icdqfoPDPzJtnnpbz6c8vON/GfKGfz0WAeY0nTU1VF5rfp4na9fh8jui/ol3De4YqyvSEXErsALMaeZvqqi82vQsT9U9iFtxRe2ztow0sa7yTvbaG6MCSgHmNIBT0RRe2vMMT+96GI/ijrpn7HV18UDVL6gdqIqoAAIBpoATRfPzQuNT/Kn+93gVT9Q827B3iEd2/i9buj+OmplSgDnN4PRrPv7a+AR/aXwcn+qN+Gdy+138oW4d77e9GfELPQLMaQ6nT/XybP2jPN/4B/yqL2Kfxaf6+EvjY/yj+fmIKFcvwBQ6JJxe1cMz9Y/w0p6n8av+iHsGVVP5e/Nz/DWEdUUEmEJBgdOjuHmq7kFeafozSgiKB01G69teH60r4ndHLZQCzGkMp9vv4sm6dfyj+bmQVPY6Em3q+pDf7/g1du9QSOuKCDCFggenJOHyOXm85j7e2PtiyGpiTlQ1/dt5oPoX9Lq7o24FVoAp9B9wOnx2fl9zL2+3/C3k1aQPpmZ7I+uq7qQ1TOqKCDCFpgBOGbt3iN/t+DXvtv4j7FY5u5zt3F91F/VhVFdEgCk0NYNAkhnyDvLwjl/xz9Y3wgbOQU8/D+/4FZ/3fDatoBRgCv0bnKMFdu7mo/Z3Qt4ep9/B47X38VHHO9PGfBVgCh0Uzn53Lw9U/5xPOtaHrB1e1cuf63/Hm/teRpqu70IMR6Evwtnr6ub+qjvZ2PXBlN9f0RT+tudPvLj7j2FbV0SAKRQyOLtdnayrvJMt3Z9M2X01NN5peZWnw7yuiABTKKRwdjrbuK/yp3zes3FK7vlpxz95dOc9OHz2aQ2lAFPokHC2O1r4TeVPqerbEtR7VfVt4cEdd0dEXREBplBYwNk60sS92+9gZ//nQbnH7qE61kVQXREBplCYwKljn303926/g9qBqoBeu93Rwrqqu9gzVDft9ioFmEIBgbNpuJ57t99B/eDOgFyz39PLQ9V3U923VUA5ncDU0NA0FVVTUTRl7B//BP4Z/a2qqWiaFrWHcY8Ezt1Dtdy7/Q52D9VN6lojPjuP7ryHT7veF+brl0gfXRCOQiQhoZcNWHQWbIZYYgxx2AwxWPU2zHorJtmEXjagl/XoJT0ao2n1/ZoPt9+Fy+/A4R9h2DvIiM+Ow2fHo7jxa6MHiyUkJEmaliuHsqSjfnAH926/g+8uuIuCuKLDvoZHcfP0rod4t+Xv0371NSrB1DQVFQ2dpCPWEEeaJYv8uFnkxxaRE5NPmiWTBFMSVr0No86EXtIjS7qv/EJrmoaiKfshdfjt9Lt76XC20jrSzF77btod++h2dTDis6Nqo7UxptNXX5Z01A5Ucu/2O/jegruYETtzwn9X0fy8sPspXtnz54itKyLAPMjMqGoqeklPqjWL4oQ5zE89mpKECjJtOcQa4icFiSRJ6CU9evSYdRYSTElk2/KoSF60f2DZvcO0O1uoH9hBdf826gd20O3qxKt6pg2ksqRjZ/827q28g+/Ov5OcmPwJfEhHM8Q/W/8ovgiuKyLA/MJL1VCJMyYyJ3khx2aspCJ5ERnWbPSyYcraoZP0JJiSSDAlUZY4j9MLLqLH1cmugWo2dX9MVd8WOp1t+FUfsiRHd/oLSUdV7xbuq/wp35n/MzJtuV/5+w873ubx2vtw+R1RmdluWoE57jumWtI5NnMVq3JOoyi+DKPOFBbt00k6MqzZZFizWZ61hm5XB5/3fMZHHe+ws38bw96hqAZUlmS29Wzkvsqf8q35PyXDmv2lv9vWs5FHdvyKIc+AWOyZyLg64dqlP9lr3x2WOVRUTSHBlMTavHO4Yc73WTvjbNKsWejk8PyeSJJEjCGOooRSjss8iYrkxRhkI33uHpx+O0TpgpEkSbQ59tHm2EtF8mJshph/++/1gzu5Z/v/0ObYJ6CcwESUH1cYnmCqmopeNnBs5ipuqvghp+WfT7I5LaISMOllPRnWbI5OX8HC1KUYZANdrnac/pGoBFSSJFpGmulwtjA3eTHWMThbRpq4d/v/0DhUI/YqDwPMsJt6VE0hzZrFxUXXsCb3TCx6W8SbekUJZcyKL2F17hm80vQXPu54F4dvOOoGqizJbOj8J26/i9UzzsCv+nl974vU9FcKKCPZx9TQmJ+ylGvKbqcsaX7UDdqSxLkUxpeyIvtr/LXhCar7tqJqSlQthEhIbO35lO29m/avoAvzNULB1NCQJR1rcs/gqtLbSDGnRW+HywaWpq+gNHEurze/wMtNf6LX1RldlaokeX+0lIDyCPswHKDUS3rOnXkpN1f8MKqhPFDxxkQunn0tP1lyH0vSjtvfF0JCIQdTG4vaOWfWZVxRegtWfcy0ewFlSfP578W/5uKia7DqbWGfeFloGoApIXFK3nlcVnwjZp1l2r6EeGMiV5Teyrfm/YRMW46YOYVCB6aqqSxNX8GVpbdi0Vun/YvQSTpW5pzK9eXfG/tICTgFmCGAMi92FteUf5t4Y6J4CweoJLGCeGMimibAFGBOsV9p1lu4tPgG8mMLxRv4gvYM1zPsHQRJBHgLMKcSTE3j+Kw1HJd5kuj9L6jT2cbTdQ/h9DvEyQsB5tTOlsnmVM6ZeWnYBKGHi9x+F0/VPUDtQJXY+xOa2gADTVNZnrWawviSKX1In+rFo7hHsxCMlTeXJRm9bMAgGzDIRgyyIWSb/Jqm8o+9z7G+9TVkYcIKTSWYGhoJpmTW5J4VdAA8ipvWkWbqB3fSOFRLu6OFAU8fLr9jf3oQWZLRSwbMegtWvY14YyLJ5jSybLnkxOSTZcsl2Zw2Jds4W3s28mz9Y/hVf9RXShYKMzBVTWV+ylHMCuJs6fDZ2dj1AetbX6NuoJoh7wDKWBlzaezf0v4PxYGfjPE/Gc0+YJRNxJsSybHlU5JYwZykhRQmlJJsTg2479fuaOGxmnsZ8PSKQG+hqQfTIBs5NnMVhiBlG9jRv41ndj3C9t7P8Cie/YeTdQcZ7NIhTN8eZyddzna29mzArLOQYc1mbvJijs44nvKkBQHZ5nH6Hfyhbt20K8oqFCZgqppKhjWb8qQFQTGRP2p/h4d3/JJOZzs6SXdQGA9HkiShQ7cf1L323TTbG3m75RUK4opYnrWa5ZlryInJO+I+ebXpWd5ve1Ms9giFBkwNjaKEMlIs6QG/9vbeTTxQ/Qt6XV0BAfJgGofHp3qpG6hi1+AOXmt+gZU5p7Am96zDBnRz90c81/gEiqoIv1IoNGBKSJQkVKCXAnu7Ye8gf6x7kB5XZ1Ch/E9IdWP+4T7+tOsR3m97g5PzzmVN7lkkm1MP+fdbR5p5rOa+qMh/c2A+Xw7w1b/4q38fDdM3L29YgWnSmcg/gsTAh9Km7o/Y2b99SqH8slm0dWQvj9fcx8ft73JR0TUck3HCQTP3OXwjPFH7W3YP1UUklOOHn0fXDQxY9TbijIkkmBJJMCYRa0zApo9BJ+uRkVA0Ba/qxa24cPpGGPIOMOjpZ8g7gNM/glfx7k/SLUz6KQRTQ8OqjyHNkhlgv1Vhc9dH+FQPOim0573HB1TtQCW/2vZD1sw4k4uKrvmPZ1Y1hZf3PMNHHe9G1CAch1En6Ug0JZMXW0hxQjmF8aVkx+SRbErFaojBpDN95btQNAWf6sXpczDo7afL2U6zvYGGwRr2DO+iy9mBW3EJSKcETE0j1hhHnDEhoNd1+EfYa98TVuaQLOlwKU7+tufP1A/u5KrS21mYunT/f/+0831e2P2H0XQiEWDGjc+M8aZEShPncXT6ciqSF5Nlyz2i/V2dpEOns2DWWUgypzAzbjbHZJyAoin0u3vZPVTL5u5P2NbzKW2OvfhUHzpJZjqWe5+CqUbDpo/FrDMH9KoexT2acS7MXtq4/1TTv527t36fc2ZdytzkJeyz7+ZP9b/bn2c23IGUJZnc2AKWZ67muMyTmBk3O2hhlDpJR6olnVRLOkszTqDH1cmW7g2sb3uNnf2f4/I7px2gU2DKgklnDni2dJ2kn9IM7Ecye/Z7enm85j4seisexYOi+sMaSk1TQZIoiCtiTe6ZrMhee9AEzsFUqiWDk/POYUX21/i8ZyOv7X2ez3s+w6O4p42Jq5+qQRpo081miCXDmk3TcEPYdu74M4+fFgnnbRFVU8aAOJeTZ5xLujUr5G2y6m0cm7mKhanH8Ennezzf+CSNg3UgEfUrulMTYIAa8HQZRtnIcZmr2dL9SdjnyQnnQaRpKnrZyPKs1VxUeDXFiRVh10aL3spJOadTkbSIvzY+yVv7Xsbpd0T17DklYPoU7/6Y1UDq+Kw1bOn+mPfb3hAhbZOYJS8quoa1M84J+xQv6dYsbpjzfcqS5vGHugdoG2mO2vcedDAlJFyKE5/qBQKbVT3GEMv15d/Dp/r4tPOfaJomomgOY4GnJHEu15d/j3kpSyJnwMoGVuWcRm5MAQ/v+BVVvZujsnKYHHwwR099OP2OoH1Fv7fgLi4tvoEkcwqKpoh8OYcyX9E4NnMlP1r8fxEF5YGanVDODxb9kuVZa6Iyq2DwiwpJo/9anrWa1CDEysLoqu+8lCVUJC9GkiQGPL04/Y7Ras8i9Os/tCb3TG6e+6OAB31MtWIMscxLOYoeVydN9oaoeM9TVlRo3JTtcLRQmjg3qPcpTZxLcUI5++x72Nj1ARs732fPcD0jPvtoGQbkaW/qrp1xDteXf5dYY3xUPE+iKZkb5/wQj+Lhk473omZBaEoWf/yqj93Du1jJqcG3zSUd+XFF5McVcXr+hewZrqeydzPV/VtpHm5gwNOHT/UhAVKUV3z+4pd4Vc5pXBdFUI4ryZzCTRU/wO4doqpvS1TAOWVBpvUDO/AoLkxTmHHdZoilInkRFcmL8Chuul0dNAzWUtP/ObsGd9Lu2Mewd/Bf6UaidEZVNZWj04/nm+XfIy7KoBxXhjWHGyt+wJ1bvkPbyN6Ih3OKAgxkmuwNtDn2MTOuOCQPatKZyY0pIDemgJU5p+DwjdDpbGXPcD0NQzU0DtbS5tjLoGcAr+oZA1WK+BU/VVMpjC/lxoofkDSBI2mRrNkJ5VxZcgv3br8Dl+KMaGtoys5jDnj62Nr9acjA/M/ZNIZZ8SX7C8q6/S563J002xtpGKyhfnAn++x76Pf04lXcaGMfmEh62ZqmkWhK5rry75AbUzAl93T5naPHuVQviupHGQvYN+iM2PQxWPUx6OXgDbvjs9ZQM1DJy3ueETPmxAaJyscd73Jy3jnEGOLCriPMesv+GXV55mq8iodedzfN9kbqBqqoHahi73AjA54+/Jo/Io4mybLMebMuZ1HqMUG7h6IptDn2sqNvG3UD1bSMNNHv7sWrelA0/1hUloRBNhBriCfDmsXshHIqkhdTlFAa8ApvetnABYVXUt23lYbBmog1aacMTFnSUT+4g63dG1iRvTbsO8aoM5FlyyXLlsuyjBPxKG46nW3UDVRT1beFuoEq2h0tYXt+UNUUjko7ntMLLgyKOe5TfVT3beHtllfY3rOJXncXiuZnf4YC+PcyD5pGF+00DNXwccd72AwxzE4oZ1XOaRybeRLxATwWmGbJ5MLCq/j15z/Gp3qIxFMpwd/HPEB+1YfdN8yyzBMjLhO7XtaTYEqiML6EZZknclzmauYkj2bL8yoeRvzDY6u9oQ9WH83hm8Qtc38cFBO2abiex2vu44+7HqZmoBKX34EkjX6cZGl0AW18/1g6MJXI2G8kScKneml3tLC5+yNq+ytJNKWQacsNWN9l2nLZM7SLZvvuiDuUnh9XOLVgSpJMj6uTNGsGxQlzItb+l5Cw6m3kxhRwdPrxHJd5EsWJFRhlI3bfMA7/SEjDAzVN4/SCCzkl79yAzpaKpvDPtte5r/KnbO35FL/m2w/akfTheEn4dmcLm7o/QtF8FCWUYZCNATFp402JfNr5T7yqN2LWBkIC5vjLbRlpYn7KUSSaUogGWfQ28mJnsSxzJUvTV5BhzcLuG2bQ04+i+ad0ZVfVVLJtM7ix4gfEm5ICdl2v6uXF3U/xaM099Ll70AXwKJ8syXhVD9V9Wxn2DjIneWFALKpkSzrN9gb2DNdHzKwZMjAlSWLYO0iPq5MlacdhCnBmg5Autkgy8aZEypMWcFzmKnJjZzLsHaLP3T26OjlFfXzWrEtYnrUmYOD4VR9/bXySp3c9hDtIh5UlJFRUGgZrcPhGmJeyZNLJwXWSDovexicd7+HXfBExa4YMzHE42xx78ape5qUsCeryeahk1lspjC/l2MyVpFuz6XF1MODp2z8Ig2PCqqRZs7iu/DskGJMCNlTe2vcKj9feh0f1BHVwS0hoaDQO1WLWWShPmj9payPRlMyOvm20O/ZFxKwZUjDHG9A4VIumaZQnzUcXhXDCaGBDccIcjk4/Hr1soHWkCZffGRTzVkXlpNwzWJ1zRsDeZ91ANeuqfsbgFOXAlZBQNZXdQ3UUJ84h05Y7qesZZCMuxcHm7o8jypQN2SdEQsKn+niu8XGe3vUwriAdCwsXpVuzuKbsW/x48T1UJC8eTZQcwONKGhoxhlhWZK0JGEAuv4M/1f+OTmf7lM42kiQx6O3n2fpHsfuGJ329RanLSLWkj+Y0ihS3KJQ3PxDO8TIH0SxZklmYegz/b8k9nJp3PnpJHzA4x0PvZgdwtXtj14ds7v4kJAm1dZKOqr4tbOz856SvlWHNoTRxHmoEndsMudE9aroovLn3ZX6+9XtU920l2pViTufGih9wacmNWHTWgBzslpBYlLoMqz4wWSJcfidv7n0Rj+IOWT95VS/vtvwdl985qevoZT0LU48JWcb+iARz/7CSJCp7N3Hn5m/zbMNjDHkHohpOs87CxUXXcG35t7EaYiY1c2po2AwxAc1GUD+4k5qBypAumMiSTN3gDpqG6yd9rdLEucQZEyIm20FYLVPJko4+dzdP1NzHTzd/iw0d60P6xQ6+uabn9PwLubzkJoyy6YgHjaZpZFpzmBE7M2Bt29qzAYfPHtItBgmJEe8QO/q3TfpamWOVwiPFzwy79WNpLBpke89Gfr71e/xy6w/Y2rMhagGVJR1nFlzM2TMvQTrC16GhMjO+mFhDYM5aehQ3tQOVYTG3qKjUD+5EnWSWRYveyqy44ojxMvXhPGDdiov3299kS88G5qcsYVXOaSxIXRqQas7hJINs5OKia2kZaeKTjvWHbT7KyBTGlwbM7Bz09NPuaAmTDXmJDkcrLr8TmyF2UrNvYXxpxPiZYb15OF6q3ekf4eOO99jc/TEz44o5LvMkjk5fQW5sAcYAxFWGg2KN8VxRcgt7huvpcLQeFmRGnSmgwerj1olZZw55QL6qqfg1P17Vg43YSV0rJyYfs86CW3ES7idOImJXfxxQv+rfX835pT1PU5JYwdL0FcxNXkKmLScgwc+h1Kz4Ys4s+DqP7rxnwv5mMMocZtpy+J/F9+IKiwGsEWOIJy4AVlKaJYNYYzwupyPsU8hEXLjNeObtAU8fn3Ss57POD0kyp1AYX8b8lKMoT15AbkwBsWF4GHsin6DVuWfwftsb1A1UT2jW1DSNmACXOTTIxrAslRAIqyTBlESXsy3so2YjNg5ufBbV0Oh1ddPt6mRj1/vEGGLJseVTklhBWdJ8ZsWXkGbJDNj+XrCVaErmazPOomGwZoKzpkasIR6L3oLQV8uss5BkSo2IBaCoCFCVJAkdozPpiM9O7UAlNQOV/L35OeKNiWTb8pgVX0Jx4hxmxs0mw5odlulNxnVMxom8tOcZWuxNh5w1NcCmj4l4M35KBrusJ9GUNNZrAswpn0mlMXNX1VT6Pb30urup7NuMXtITa4wnw5pNYXwJxQkVzIyfTaY1l3hjYtj4HanmDBalLmOffc+EZkyT3iyKKk1wdIyeUZUEmOFi8o4vlAx5Bxj09FE7UMXr0ovY9DGkW7OYFV9CWdJ8ihPmkGWbQYwhNnRtliQWpx3L63tfwK/6Dvl7naQXRSAmKJs+JiL6Sj/dXsyBMyrAiN+OfaiOhqFa3ml5lVhDHNkxeZQmzmNu8iKKEytIMadPeWjarLhiUs3ptE3gHKGAcuKy6G1HHMghwJxyUP81tId9Qwz1b2dn/3ZebfoL6dYsKpIXsSzjRCqSFwV09fOrlGROITe2gFbH3gk9hcBzYjLpTBGRbV8vXtXBZ1RF89M60kzLSBPrW19jZtxsVuacyvFZa0i1ZAS1HQbZSF7sLD7tfP+Qv43mysrB6NfxTAkCzAjW+KD3qV5qByrZNbiDN/e9xNkzL2VlzimYg1iLJdOaOyHoRvO5ipqgEwUTSYIwr6EqPrWHBenoTLp7aBfrqn7G/VV30esO3uHuFHMaeulQCakkfIoXVRTrndhMJOuRI8DsF2Ae4SzqU328sfcl7qv8Gf3unqDcJ8YYN5Yp7quhc/odY7Om0KGkampEnMkUpuykfFGJDR3rybLmcF359wKe7c+ss6CT9WjKwZd2JCQcfjsexRPwVKBqBOXI+ep3Nfpps/uG2dC5Hr/qD3u/PGzA1NAismyaJEm80/p3Tsw5NeAVsw2y8ZDHlCRg2DuEw28PWO1LRVN4ec8z1PZXRs3CkgZ0OdupH9wREc+kDwcgdZIOo2zCrbgiDlAJiSFPP1u6Pwk4mLIkHbovJIkRn51+dy+Z1pyAvZXK3s180PYmOjl6IopGyzKI85gTMpXSrJl8Y/b15McWUd2/jRd3P0W/uzfiCsHstTeiampA2+1XFVTUQw42t99Jh6OF8qT5AbmvTtIzO6GcTzreE1sx0w1MDQ2z3sJVpbexJvdMAOYkLyQvdhYPV/+SNsfeCIr/lBj2DuHX/BilwAWTexQ3fvXQizp+zc+eACSsOlBzkhZg1dsivjJzpCp0n0NNY+2Mszkx++R/++NlGSfyw0W/ojxp4djiQyRsA2jYDLEBT1vh8A/jn2Clqt1DtXgVT8DuXRhfSl7srIhKkizAnLQJq1CWNJ+Li6790uNKZUnz+dHiX7NmxpnoJEPYrw5KyMyMmx1wMPvdffgmEMQuI7PXvptuV0fA7h1rjOe4rJOmtFKZUAjB1DSNRFMKV5be+pVhbRnWbG6fdwc3zPk+6dYsVE0Jy/0nDY04Y3xQyql3udonlB1OkiT6Pb3UDVYH9P4rstaSbcuLmm0TAeZX3VDWcV7h5cxPOfqQvzXrLJw18xJ+dtT9nJB9CkbZNOk0hoGf/VWWZa6iKKEs4NdtHWme8MfIp/rY0v0JSgD7J9OWwyl554kFoGgHU9UUlmWcyBn5Fx3Wyy5KKOP7C3/OdxfcSWnivP0VoUItRVMoiCviwsKrAp5BwOG302JvmvDCi4xEdd9WupxtATTRJU7OO5t5KUsCCrxQGIGpaio5MQVcUXLzEeUHNessrMo5jbuWPsgNFT+gML4UCSlkA0bRFLJtM7i54r/Ji50V8Ot3OFrpdLZO2MeTJJkuZztbujcEtB3xxiSuKLmFNEtG2Ji0GlrUL0rJU9WRFr2Vy4pvpCBu9qSulWhK4ZyZ3+DuYx7h5rk/Ym7yYoyyCUVTpmTgaNrooChPms9/LbybhUHwLQFqB6qw+4YPa6tC1RTeb3sDh28koG2Zk7yQq0pvx2aICTkQqqZi1dvIGEtXqkXpqZqp2cfUYO2Mc1iR/bWAXTLZnMaZBRezKudUqvu2saHzPbb3bqbb2Y5X9Y4eHZbkgO3BjW/dJJvTWJ17BmfNvCSguVy/6C9u69mAoimHtdIrSzpqB6r4vHcjx2WeFFCT9qTc03H47TxR+1ucPseU+52apoIkUZG8iK/Pvo782EK29nzKozX3MOwdjLq91qCDqWoKc5IXcnHRNUHJ5BZjiOOYjBNYmn483a4OageqqezdxK7BHXQ4WhnxDeMfO68ojZ30Hz/B/mUvU0Nj9P/aWHggmHVWsmJmcHTaclZkrw1oOYIvU8tIEzVHGKfqVly81vw8i1KXYdFbA9Ym3ViNFZPOzBM1v2XA0zslASDjZmuqJYNT8s7jtPwLSTanAnBy3jn0ubv5Y92DUTdz6oP7lRvfGrmNFEt6UB9EkmTSrdmkW7M5IXstdt8wnY5Wmu2NNA3X0+7YR4+riyHvAE6/A5/qRVH9qGhomoYkScjIGHQGzDorccaE/dn0xvPTJplSpuSlbOhcT7+794hSYOgkme29m/is6wNO+ELwxuTh1HNK3nmkWTJ5oua37BrcgTSReN4jnCFVNBJNSRybeRJn5F9EYULpv91LQuLMgovZ0beNzd0fRVWmwKCCqZN1nF94JfOTl0z5g8Ua4ohNKNu/jaFoCm6/E4d/hBGfHZffiUdxjwKq+dFJegyyEZshhhhDLDGGOGz62IAf5TqU+tzdfND21iSC+SU8iosXdz/NvJSjSDQlB/YDiMSStOOYETOTl/c8wzstr9Lv6UVGmnQwgqZpqKjoJB0ZthyOSlvOSblnUJI4B5305e8hzpjAZSU30WRvoM/VFTUBEUEbdaqmsizjRE7PvzAsOksn6bAZYrEZYoPmGwZC77e9SfNww6RM5VFfs5LXmv/KJbOvD0r/p1uzuK78u6zIXstb+17ms64P6XF1omjK/rOqX/Vh0cYslXET1CAbSDQnUxhfylHpx7M4bRlZ1hkTshrKkuZx/qzLebTm3qgJhtAHE4QV2WuxGWIQmpg6nK281vw8iqZM2ofVNI2/NT3L3JQlzE1eHJT2ypJMaeJcihPm0ObYy+c9n/F570aahhsY8PTh9jtRxiK2pLH/yZKMTtZj1lmINyaSZskkL24WJQkVFCWUkW7NPuwKbhISp+SdR1XfVj7peDcqTNqggamhMeKzC9omKEXz8/LuZ9hrbwzIwpIkSfS7u/lD7f38ePE9JJmD5x/LkkxuTAG5MQWcmn8eg55+elxd9Lq7sI+dujHIRoyyEaPOhE0fQ7wpiQRjIjGGOIw606TbYDPEclnJjeweqqPT2Rbx0UpBNWVfbXqWwvgSypMWCPIOoY2dH/DmvpdHM7gFDBgdlX2beab+Yb5Z/v2AADCRBaJkcxrJ5jRgaiuGFcWXcVHRNTxYfXfE50AK2mdFlmSahhu4e+sP+LjjHTSRxe2gahlp4sm6+xk5zICCier1vS/yavNfpkUw+urcM1ietTrsYqoP+wN3wrVLf7LXvjso2aklSWLYO8i2nk/RyXpmxRejlw2CxAM06Onn/uq7qOrdEhTzS0JCURXqBqtJt2YyM66IaM7abpANzIidybaejQx5ByIi6/oXXcD8uMLggjkOp0dxs713E73uTmbGF0doUdnAa8Rn53c7f837bW8G1Scafwc7+z8n3ZJFftysqIYzwZSER3GxrXdjxEUEjYM5JR6yJEko2mge1p9uup0Nneun/WmFYe8Qv9/5f7y975UpGTyyJNPv7uX+6p/zXutrUe9axBkTIjpML+gz5r8ZVZJEr7ubTV0fMewdJC921hGdNIl0dbs6eWjHL3mn5VVGU6dMzQCSJAmn30Fl72YsBiuz4ksCnnUhHLTX3sgzux6hy9kuTNnDGRxe1UvNQCVVvVuw6m1k2nKnje9ZO1DFbyt/ymed74/1+dQOnHGztrJ3E27FSVFCWcATRYdKXtXL+21vsK7qLhoGayJyyyRkYI4vSEiMz54f0jTcQKIpJSR1KKdKbsXFW/v+xgPVv2D3UG1IN8ElScKv+anp386+kSby4woDHro31Wq2N/JE7X082/AYve7uiB1H42CGNK+sLMl4VA8ftL/F9t5NHJu5itPyz2d2QvlBYyMjsaPrB3bwXOMTbOj8J17FExaRKeP+1ycd79Fsb+SiwqtZmXNqQE+kTIX63D281/p3Xm16jnbHvtHDCFHwcZd+suk27YO2t0L+MOPHexJNKRyVfjyrc8+gLGleUMvcBVv77Ht4u+UV3m55hV5X51gfh5/Po2oqRp2RpekncEHhlZQkzg37wd3v6eXj9nd5fe8L7B6qC0gYY7i8ixXZXwuf2iXjBWMHvf28ue8lPu54l4rkhZyQtZYFqUuDXig2UPKrfvYM72J962t81PEOnY5WCPPU/LIk41f9fNj+Fjv6t3Fi9imsnXE2BXGzw2qwa2i0O1rY0LGe9a2v0ThchzJWICjaXKCwmTG/7CWomopBNpBty2Nh6lKWpC+nOGFO2PlDqqbS4+5kZ9/nbOhcz/beTaPnKSHijiGNn/pItaRzTMZKVuacwuyE8pBaLnbfMA2DO/m44102dX1Ep7Mt4OUowm3GDFswv9hYDQ2LzkJ2TD7lSQuYm7yIwvhSUi0ZIfGLnP4RupwdNAztZHvPJnb0f06Xsw2v6kUOYEqTkAE6djYyzhhPaeI8jsk4gXkpR5Fly8Uom4L8vhUGPP00DddT2buZz3s30jzciMM/sv+ESrQqosD8MkgNsoEEUzLZthkUxM1mVnwJM2IKSLGkE2eIx6y3THoBSUPDp3px+Z0Mewfpdnawb2QPTcMNNNsbaXfsY8gzgF/zR+2AGbdcdJKOJFMKs+JLKU+eT0lCBTkx+SSYkjDpzEf8IfKrflyKk0FPH+2OFpqHG2gYqmXPUB1drnZcfueoaRcFH7uI9DEPxx8af4A+dzc9rk62925CJ+kw6yzEGRNINCWTbE7df8oh1hiPRW/FrLOMnvWTJFRNwa/692d496k+vIobt+LG6Xcw4h1myDvAgKePAU8fQ55+Rnx2PKobdf9h4NHBEo2b9Af6/uPP1+fpoaeri8+6PsCss5BoTibdkkWGLYc0SwaJphRiDLGYdRZkSYeGil/1oWraWBVuLx7Fg1txYvcOM+Dppc/dTa+rmz5PN3bvEB7Fs//85qjvqGM6Sh8tgwbApThxOR10OlvHzsVrBwAkIx+wlD5+en78d2igoo6Fqh3w5+O7rpK0f/81WrZyJtPfXtVDp6OVdkcL9G4cW+CSkZEPWH3W/i1J1nif/6vc+nj//mtGFFnfowDMLxs4SAczeDRUTfvKo0/SARn0hCbQ35KM7ktM30PFQQv4JmAZii4QEhJgCgkJCTCFhASYQkJCAkwhIQGmkJCQAFNISIApJCQkwBQSEhJgCgkJMIWEhASYQkICTCEhIQGmkJAAU0hISIApJCQkwBQSEmAKCQkJMIWEBJhCQkICTCGhaQtmlBcWFhKKPGkgx0zDis5CQuGsGGMc8km5pzEjduYopkJCQiHVjNiZrMo5jf8PlO7RkCzi+FIAAAAldEVYdGRhdGU6Y3JlYXRlADIwMjAtMDUtMTJUMDc6NDY6MDIrMDA6MDBlOxHcAAAAJXRFWHRkYXRlOm1vZGlmeQAyMDIwLTA1LTEyVDA3OjQ2OjAyKzAwOjAwFGapYAAAACh0RVh0aWNjOmNvcHlyaWdodABDb3B5cmlnaHQgQXBwbGUgSW5jLiwgMjAxOVhLNdcAAAAXdEVYdGljYzpkZXNjcmlwdGlvbgBEaXNwbGF5FxuVuAAAABh0RVh0aWNjOm1hbnVmYWN0dXJlcgBEaXNwbGF5mRrp2QAAABF0RVh0aWNjOm1vZGVsAERpc3BsYXn4nJwgAAAAAElFTkSuQmCC;" parent="1" vertex="1">
                    <mxGeometry x="358.1" y="316.3" width="14" height="14.6" as="geometry"/>
                </mxCell>
                <mxCell id="53" value="script" style="text;html=1;strokeColor=none;fillColor=none;align=left;verticalAlign=middle;whiteSpace=wrap;rounded=0;" parent="1" vertex="1">
                    <mxGeometry x="233.02" y="310.1" width="43.09" height="27" as="geometry"/>
                </mxCell>
                <mxCell id="54" value="" style="sketch=0;outlineConnect=0;fontColor=#232F3E;gradientColor=none;fillColor=#D45B07;strokeColor=none;dashed=0;verticalLabelPosition=bottom;verticalAlign=top;align=center;html=1;fontSize=12;fontStyle=0;aspect=fixed;pointerEvents=1;shape=mxgraph.aws4.container_1;" parent="1" vertex="1">
                    <mxGeometry x="236.10000000000002" y="283.54" width="48" height="31" as="geometry"/>
                </mxCell>
                <mxCell id="55" value="" style="shape=image;verticalLabelPosition=bottom;labelBackgroundColor=#ffffff;verticalAlign=top;aspect=fixed;imageAspect=0;image=data:image/png,iVBORw0KGgoAAAANSUhEUgAAAgIAAAIACAMAAADHU/T1AAAABGdBTUEAALGPC/xhBQAAAAFzUkdCAK7OHOkAAAMAUExURUdwTDd0qTd4rv3NPDdsmf/TP//MOzNypv+/QP/aS7LJXDZunf3RQDZtnDdypDVtmzl1p//PPvzZSTZzpv/UQv/QQTd3rP7MO//LOjZ1qTd2qEFrqDZ1qjd4rzd3rTVrmDVunf/QPzd4rjd3qv/UPDVwoDZ1qv/RQDZunjZ4sDdvoP/QPzZ3rDZ3rjd3rf/QQf7LOf/QP//QP//PPvzURPzIODZ3rPzMPDZwpP/KOf/QPv/PQP/URjZ1qvzKOP/TQvzURjZvoP3LOv/RPfzKOPzLOvzTQzZ1qTd4r//MOjd4rzd4sP3NO/zJODZxozZvn//QPzd4rv/NPDZ2rDZ2rPzMOzVwoDZxofzSQjZ2qjZ3rf/NOzVxovzTQ/zKODd5rzd5sP7LOTZ1qzZwof3TQ/7RQf3UQv/KN//MOjZ1qjd5sDV4rvzJOPzMOzZxpDVqlv/aSv/VRf/cTf3VRP3KOf/XSP/LO/zVRDZunv/RQPzeTjd6sf/VRf3SQv3JOP3WRjVqlP/OPDZ0qf7JNzVwoTZvnzVplf/WRf7ZSv3LOf/NOzVwnzVqmDZunf3YSP3KODZxpDZsmjZwofzeTzd4sTNpk/3eT/3eUDVnlf3URf3VRf3eT/zeUDVwofzeTP/SQv/RQTdzpTdyo//TQzdxojd0p//QQDd2qv/URDdwoDd1qTdypP/PPzd1qDd3rP/XSP/YSTdvnv/VRf/WR//ZSv/LOjd4rjdxof/VRv/MO//OPv/NPDd2q//KOf/URTdzpjd0pv/OPTdvn//aS//WRv/PPjZtmzd4rTZunP/NPTh5sP/TRP/bTDZsmTdwoTh6sf/XR//JOP/QPzdwnzd3qzh5rzdunTZunf/MPDd3rf/cTTZrlzdzpDZrmDd0qDd5rzZtmv/dT//cTjZsmjZqlv/bTf/eUP/SQ//dTv/RQP/YSP/aTP/LOzZtnDh6sP/eTzdxozh6sjd2qf/fUDZqlTZsmP/ZSzdvnf/KODd4r//JNzh7sv/ZSf/KOjZql//IN0hhmJUAAACfdFJOUwBgYLRYDMAUAzABYLQ3YJAOLtgswcAzgnMnCQRKgiKQkBq1HQaQGDl/71haq3ZrEYgmNMD9/UP93HnACTCJ3yrZc5AU7dLsmJ9tkjqY+fmlRd19xbza8lL4pFoh1eLGzeag1b3OqrQ/U+ZU9/Pm7ZBSY26irh5gyGlK+NZA87+Q3E72qOU6t3WIumj7QcWZzM2bssz76Oyt97C7udrd4iZtHFwAACAASURBVHja7N1vaFvXGQZw26x4eE0Qc+diWzJUbp1okbS1C2pZJ5JQFht7JFUsEttzZs9pxmSD264f0uGWtiHboG1CGB60hWJFVhQrdpLGG3Y+GCcEM5eERSG2V4KzZDBBSaAmDhkhpIzJdhLff+fec6V7jnSk5/kQ8uka9P507rnnvOeqqKgQYqut8Nm7S7weh7++1e10BoPNzc0dXV1dgUBXV0fq/8Gg0+lurfc7PN42u6+isq66CBE+1bVN3R5/gzvYFeoZk2T6Ya4uZWL2pDSzqUysxBVodtc7vG2+yip8lqJ94yu6PY3OjtD03I2l3B+TRybg5EmVgEcEJo4fe5TQYbffawcFAb725d2ehubQhbmHyUzAMXnuHD9+PBR8rrjJhg86J1Pq8zT09V9YDjMBDxMK+ovLy/CZ59C473M4OxcurIaxgOMnlrJzj39XHT787KemrbGjP7GwwFPACoFjd1L/hNzechQhi2N/d0NnYinZELCc60evXz8aai3GaJCNiV+TI/XtT2RDgJRASsBy2p/zYRmBa/3tDa7E4+SAgKX01tuhgE+qZPXPGQHLCrbvwsoB81Q0yuqfUwKOnjh3rre+AkVi+fTn7VhczFTANDMB51ZyeEspSsUm5Q09ixwETGQo4OzZs9u2YyhgEHtwcVEQAakc2WPH6qGlKWvrWxRKQCrtazE1tC7dDwGIJCCVz9fiKdGa+DoeCCngyLlz7btwO8g8Nc4HggpI5eyRwz6UMMN1IEePtQKu8hSwlGtubCBkdA8IPBBdwLVrO7dgSpD2ENC4IJyAsyoBw8PDh7FMkOZacN+D/BAwPLxtPaaFacTbn4aAG4wFnEhLQCp7alFRszeBhgfpCLifowKGh3t3oaimUteRZwKGIxE/bgZmFgMC+ScgEvmzDZWlngh25qOASKS9BrWlFODKUQHXMxMQiRxAuzFVyvNWQCTSixUCmnlAZ/4KiER2/gEVNootkM8CIrd3YhwwSLUzvwVEo72VqLJu/PkuIBr9HFuHevEt5L2AaPQwOsp0JgKdBSAgGt2OShPTUBACotG3UWpCmhYKQ0B0Gx4LtFPWUSACotF2TAc0021GQE+Hu9HhcTQ6AwIKiI77UW6tQaCPWkDI71v5Gi3tv9Z1u3tEEzD+0RoUXHMQoBMQVB3WsnlCYgkYHz+I7gF1gnQC+jQ786s8+4USMD7+Q1RcmUoqAfcdpI7s2mahBIwfwIxQGQeNAJfO4Zxqv0gCxsexOKAMxdnhsU79lgvvrEACLmEYUKSGYgzoNNpk8wok4NIlDAOK6hkL2G+8puYQSMCldlRdvj1g/CxQQrG2EBRHwKU4OohUUwF9AW6ay9S5xBEQx46hbDrfbyTARddp4RVHQHwnJoTy2aDBmqCD0lKXMALicRwyk6TJSIDLRnmlYnEE4E4gncbZjXaGGqlvKSFhBMQPYKNAskdktDtM32TRKIyAeByniwgE1AIWAvSX8okjII7VIUndDDpEGugvVdUjjABMBqTTQYMusRIT12oWRkAcC4RaBLT7BJtMXKteGAHxj/AyMjUBQqeomRM4HmEExGdwukxFgNQrbGYdrVgcATMfo/QKAsRucTPXahNHwMz3UHo5AaKAaTNrKMXiCJjZgtLLCOicGLGZuJZXHAEz61F6KQG9M0NmXtTkEEfAeRB4nAqDU2N2E9dyiyMABKQE9M8Nekxcq0scASAgIaApYPXV0k76S9UJJOA8NgmkBPQEjPXQLwy0CSTgPM4USQjoChgba6O+lFMgASAgIWAgYCxIe6VakQSAgCaBOe2fmKDtGWkUSQAIaBEgCKCdENbtF0kACGgQmCP+zAzd0oBbKAGnQUBFgCxgLECzSGwXSwAIrKbcUMDYNMVxotpesQSAgJKAroDpacPTJLbDggkAAQUBAwHT0179i1QFRRMAAnIChgIMxoHSZuEEgICMAIWA6elW8pywIiCeABCQEqAScPVqF+FtQ9We/QIKAAEJAUoBqbRqdN2W2bsmRBQAAmoCNO8VnnDb5e33Nm/XhJgCQEBFgPbN0qHWkoqVWUGdzxPcPyGqABBYTaUpAStxhQKh/QL1CWoIAAEFAZNvl58V6LwAQQAIyAkI/PsC6Qo4/R2UXkKgEAXcAwEJgYIU8E8QWCVgpYBjwggAAQWBwhMAAqupsVDAHcYCItYJAAEZAWEE3LZOAAhICRSkABCQEChMASAgIVCYAr4CAQIBPQEn80kACBAIFI4AEFhNbWEKAAFNAtkVcISrABDQIlBQAkBAg0BhCfgSBFQECkwACJAJ5KmA0woBIKAiYCRglrGAa4wF3FMIAAElgYITAAKrqeMi4GiuCQABOYECFAACMgKFKAAEpATyQEDctAAQkBAoTAEgoCZQYAJAQEWg0AR8AwKPU5q5gOMCCgABBYHCEwACqykrzWJeypqAv4NAbuQlrjtDUgEgkGME+K0IPRIAArlFIAsCQCCnCGRDAAjkEoGsCACBHCKQHQEgkDsEuD8NgkCOEciWABDIFQJZEwACOUmApwAQyEUCXAWAQA4S4CsABHKPAGcBIJBzBAivk2Mm4N9KAi9/3zCbHyX1v32/ObRjw6ZnUULLCHAXoCLwxN/k+UKeW7dunVrNrVOXl/LXln3vvfEjlNEKAiYFzGQuwIiAroBTDwUsZ+O+Pz2f/U/SVu5r83ocqXhK0kyxJVlrMr3GLxWNmz48/JWSgEqAMQF6Act57XevZK/4Pk9Dh0v14+M3CvPV0iYE6BMwKWBqamrj3heyUP66toa+uYWFhQsQYF6ALgHzAqamLk/t+4Bv/SscHXOJRAIC0hSgRyAdAVNTZ86c2fd7bvUv9wcSy4GAdAXoEPhCRYBSQCpP/YxH/atKmhMJCKAT8CVJwH+IBDIRcObMxkPMHxLrHK4EBGQugEggMwFnRke3bmAKoKa+JwEBVgggEfg2UwGp7GU3EJQ29icgwBoBBAJWCBgd3f0qozmA5BYAAXQCviEK0CZAI+CyoYDRoY07yhgIsAcSEGCdAE0CBgJOUQoYnZyc/PQJy2eB7sQDCLBQgBYBCwVMTm7+pbUCSmT3AAjIXMA/1AQsFTA5udvKJQJb6yIEWCxATeBbc4uCRgKGht59xzIBTQEIsFyAmkBaAqbIAoaGWqzaNPD2Q4D1AowIWCAgZcCSPYPqxkUIYCDAgMAtcwsC2gJSBixYILA5IYCJAH0CFgkYmmzJeD5Q2wcBbAToErBKwNDQxa0ZNpXVBiCAkQA9AhYKuDi0OaOWshoIYCZAh0C6AkY1BKTyVAad5pWdEMBMAJmAxQIGB99KfwyAAIYCiARupbc5SBYwOPhhujvDmAmyFKBDwGoBgy3pLRVXNUMASwEkAgwEDA5uTmfbsBrrAWwFEAhYJmBIIiC96QDWBBkL+K8mAUYCBgd/a1pAGwQwFqBJIM0mIWMBg1vNthOWuyCA8kdH0xWgRSAzAZM6AkzfCmx9EMBawL/UBDJsEdEV8PXX5jaM3BDAXICaAFsBA7vNPBWUQAB7AYYELBYwMPC0ib0h9AlyEKBBgK2AgZZnqAk4IYCDADWBzJuEdAUMDFDPCEsoBMxBQKYC9Alksj2sJPBIwEDshbRuAxDASIAuASYCBgZ+QPk0AAFcBOgRYCRgYICqm7QJAvgI0CHATMDgTykElHVAAB8BZAIZt4iQBKTyjsm5IAQwFEAkYK0ABYHPjJsEOiGAk4B5AgFrGgQIg8BAeJ0RAQcE8BJAIMBYQPhJo16xHgjgJUCbAGsB4fAm6kEAAhgL0CTAXkD4Pf09YhcEcBOgRcC6JiGigPC7L+sR8EAAPwEaBNgKeEgg/CbV4wAEsBegJnDZ+s1BDQHh1/TeIwABHAUQCDAXEA6TN4vKAhDAUYA2AQ4Cwr8mv1QOAngKmN+lQYCHgBh5QuiEAJ4C5u1qAjwEpEI6U1DbDwE8Bcx/rCLASUB4r/6yEARwEjC/Rkkg7Taxi+YEhFu0e4mrOyGAq4D/lRsSYCTg5k3tt9V3QwBfAclKIgHWAmJPkieDzAUcg4BHApKlJALMBcRatA4Y2noggK+AT4oIBNgLiMU2ELqFZA8DTATcYSwgIo6A5PsEAla2iZEExN7Svg/kgYDb4ghIHtQmYGmbGElAbOt31feBfgjgKyD5R00CDBoENATEYus07gMQwFdA8nVlDV7hKCCmPmLqhADOApJvK2vwDEcBsX3q+4AVAk5CAL2ApHJ9uGgTRwGxF5Vvpe2GAN4CkjYlgXUs2sQIAtSPhY0QwFvAX1Q34w+YtIkRBMR+ofjrAREEHMknAeoHgqI3WW4OKgXc/LniZcMQwFtAcr2KwA6OAq5ceVG+RlwCAbwFqGeDRYd4CrhyRX7O3E0jYCzPBZzmKuCTKhWBz7gKGPmxrG/UBQGcBdw9qF6j38xVwMhPpH+7wgoBs4wFXGMs4B5jAfNJWdRTgWc3MhKgJLAiYKRF+lsl3lwQcDTPBcgGgeTdNSoCz7PdHlYKGBmRbhO0QgBvAe+rf1r+Dc4CRj5UrgpAAEcBd19XTwWe5ixgRLI4VAoBvAVo3AeKPuUsYORXklNEypeK5qGA+P/Zux+fKq8zDuDPwihIgyO5zYQL0qGoTKZoA1qDQEAEq/Jj/oCo4KrQoRkqYlFLtFIVpFG0SkRbdctsu4VpYqe9McBwpYWtpBvxzmR1zZZMU02nJl2Cc6bZst33Xri/3vPe+9573/Oc9748zz/AzTkf3l/ne56jLwEtjNBONZIAJ4H9rtjIVBKALOCx/H0AUjjGxJgXgcuXXceYTiMByALORgH7afAqx+VhmYDLrn1l3+cv4FcGF/DHgAQ8Psm4DxzgHBCQCxhyJoemkwBkAayHQahFFzAU4XwaJAHIAtoYAjIy0QUMVTsbDIW/gPfCSgDzItDAOSTEEDC0cLzPwDISgCuAdRGAXbgC7ASGxlsQrvYr4PecBXzEWcAtzgL+FZCAxyZWk58ivjExpoChN8ZfCEgAqgDW6wDMwlge9hbQ+9LY5+GQBfzG4AJ+p6mA03EsAgdECOgtGDuCggRgCnj8bWazt2oRAnrH3grnkgBMAcxnQed9AFdA79qxLQR6F3DJSAJOz2QSOK6pgH+oFNBb4lgomkYC8AQ8PsYUELmfe0yMJaC3t8n+539EAvAEpLGbve3ECQi4BIwTcJxU9LIfAX8xuIDPEQW0JbIJ1AoS0GvfWGgmAWgCWuLYAvaJEtAbb99LRgKQBHx5erpC08+3RQkYsG8nWUECkK4Bp00KAuZnYsTEWAIG7D3J14sV8FuDC/jSvwDYhRMTYwgYeNO+VMy9qej73BsKchTwd/4C8jLRAgLeAgbsO8yXkwAMAS0JisdAvCJOwNA2+6ZiQwv4WCcCOqIUBczKFCZgYGCh9HlwNQngL6DMrCggeo9AAQMDKbafsJkE8BZwdq+PI8F2osXEWAIGpJOqXiYBnAW0fNeHgCVFiCEhuYDhcttv+ElYHzAgVsDf1Ag4GefrcNBXkJeHvQQMbwEwkwCuAlqO+TwhuEGwgOHdADNJAEcBZ9PMPgUwbgO4AoZfAkiYUMfMIAsom+77nPjod0QLGF4FsIIE8BLQFgsxvglMESCg10PA8DyAJBLAR0BbK/ir8kzskJBMwPBKxyoRCdCynZwk4OxJk18AkFckYnnYU0DfIYC5JEBzAS35Uf4BQEq1DgT0RUgLhRNVwKd8BJze0QpqKrJWDwL6ngGYSgI0FNCy41giqBPwnC4E9C11I0ACQhRwti3fBDExggX8Sb0AO4G1ADkkQAMBLWX5sSr//fkJ+EUQAiQCy0lASAJa2nbsPRYHgVVKrcDlYffbQF9f7jiBsBJQUdVRc6qs7OQMRn3PR31HdT3vo3bY6/kdafnPVsbOjIEganG1bgT0bQMoDh8BFR0n8ytbk80Q5tWwXz8C+goBloWFgIqatKTpYIhKPZCpIwESgXW6F1Bak9+aCEap+bVCQ0LeAvrqAX6gbwGlpybHgXEqZud+vF5SagT0ldgI6FlAx2wjzb/tOXDPVbExMZmA2wsBpulWQEWxyVDzD5EHMq/eEB4Q8BRw+3aMnYAeBWzPjzMYgCNFV3Uo4HaqRECHAgwHIFsCoEcBt7NtzwL6E1CaZjAATe1FVwUJ6PUjoMdGQH8CahIMNf8x5W9nCuokpEJAT7QXAR0IODzbUPM/60A11lFDKpeHPQVkAazTmYBTUQZ6Aix3zr9eBfSUACzTlYDSvUaZ/ozX2vdkYh43FpyAnnqAYj0JuGCELwHZi9Pbf1ydiXzgXJACegoBlutIQE2wN4GYjKa8SUi1mFWz9r3WkL6zsX3XO7VFmcrnj+tkachNQM82NwLiBZQFvBiUmtdw5Pi5zq6Hd5z1laPujtUXzrpnrz+41UNbfeJRTz70qg+86sGDK+51U6prrhocHLw5GCYCXARydCMgLbDL7b7GXeeb738t1R1eAv4TsIBBdQLELg25CejJdRIIKwHZ5e2dzfel+tqLgIEE/AxFQM9agKk6EZCv+ktb4znH9OtCwE3VAm7oUkDPUoA5YXUNaDrSed9VQgVcMYSAvhMAc3UhoFjVw1/6ubv3uQl4MhEF9PQ8A7BeDwJOqXgXaGrvGh0NQMBdEqBCQE8EQJIOBFT5XxicdKZ5VJWAr3gJeCBSgMZLQ261CWCFeAEVyf4BjI6GgYBBlQI+E7w46FaPCgBM4leGKv2Fbh0A9Cvgmg4EDAUn4NEUgGThAmb4WW5rb8YW8OHEEfAoHiBKtIAq37uDGrpGQxZwjwQoCbDsBkgULOBorM/9l2P3AE8B9ye2gIB3D/sQYJFOLT4oNiWWo+oSEJyAL0QKEHXIRGACLHW2Yd4qVMAFs6/dd6PcBXwiVoCI5WEPAZbFUidyoWlxH28DTZ3hJyAMAgIuApIAywbbSK8RKaBGWcALXToQ8IHRBViybUO9TqCAW8pBsYZmHgIekgBPAYXSWOcI3DVWprwD944qAcJDQuIiIsGFhLwEWOzHU80RJ2BEcc9IoxABEyAk5CXAEiGN9npxe4cVLwKNoz4EUEhIOwGWldJwLxDXP0DpSWCnbgUYYXnYXYBllTTeJmEClF4H9jXrUMAVQwqQvg8DRAnrIZKk0KC7C0PAExIgVbl9yA8KElClsBPrPPs2QCEhjQR4EMizj/kPBXWSUsgMnwlIAIWEAl8cdK9I+5ivEdRLLCqQl4FwDgm9q6OQkJeAQsegF4vpJ3iKHRFrNpwAnQUEPGqjY9TniOkoyVwgiu7Uv4BrxhFg2eQY9kohAirMvm8DFBNDENAf7xh2k5C+wswvg03NFBJCFPDf/jcc424W0lm60ufbAIWE+MTEvAT0zx8b+K0CBBxl7R6ZdIdCQpxDQp4CSqLHRn71L/G7yzM/Dp+jkBCqgP6l4yO/TMAJE6zvQvsoJMQ9IuIhoP/Q+NDncxZwkXHGSKzyRYBCQlgC+qeMD/0CfAEVjK3EecYJCX2m15CQp4DxFwKAKL4C/sk4Z4j1afA4xcS0WBoKQEB/inPwt2ILuM5oKhLZTCEhjOVhNwG5rtGfhi3g+gKFD4MUEkIQYBkT0P+qa/RzsAVcZ3wV6KSQELKA8c/D9gQptoALjG/DFBLCFtBf5xp+E7KAEcbT4BEKCSGEhDwEZEW6hj/xIK6AkTTmfUCkgAdhI6BXKwGub4P2T8RBC/h5MAJGnpU3EpiwMTHMkJCHgP6V7hOQgytgRP5tMJ1CQigBAfdKd5+AJFwBI/LY4HEKCWELyFriPgFxH6EKqJA/CpynkBCygP4TnjOwGVNAt3wHQQr1ksIICXnUPM8pKA5OwF+DEtAtDws0hFtI6EZYhoQ8qtxzCr6FKaBbnhtsp5gYj15SPgQ8LUn1nIJkpoD3+QjoljebPEMxMYSQkAeBN73n4EVEAd1pyk+DFBPjGRFxE/A03nsOihEFdMtSY9n3KCaGLMA633sSkhAFdMvOo5xEMTFUAf1PrSdkV2JzKZ6A7skKLwQUE+MaE3MXYF0k/zazBk9At2yJoJF6SSGEhNwFWDfICczFEyC/CrRTTAxZwAlGeDMBT4D8KrCLYmIYERGXANZ9wPZaiCZATuAcxcRwBbDuAwA5aALkBDopJoYrYCOzv4dJWwHvKQuQEzhPMTHuMTF3Adbd7D5Pm7EEyAn8lGJi/ENCbgIKs9kE0hhLQ1wE3JIR6KJeUjgCxggUKDT9TMYSICfQTDEx/hERlwBrnlLz57eQBDAJUEwMT8DriqdA5CMJkBGIppgYpgBruiKBqFIcAQwCFBPjHRNzE7AtVfk4oHVqBVwKScDHMgIUE+MeE3MJsMb7OBawFUeADwIUE+MVEnIJUHojdFQVigBlAuEbE3tX5zExlwD28oCz9qIIUCRAMTF+ISHXRSDSJ4G4CgwBSgQoJoYgwDrF90HxMANDgAIBionxi4m5qj7DD4HppQgCfBOgIwc5xMSsql4HxpLEIbaUVCOATYBiYhxDQs7KTfVLIPkifwG/ZhGgmBjXgMB4bQH/tS5UAdf9CmARoJgYioDXVQgA00XuAhgEKCaGIiBrsRoCUMZXAJMAxcRQBFhXqhJgeyngLUCJAMXEOMXEnM+CkeoIQA5vAf4I0JGDfARYy1UKgLjtnAUoEKCYGLeAQEC3AftKAWcBbAIUE+MsQPVtQOpEWcVXAJMAxcQ4C8iqgwAq9hJXASwCFBPjLOCbVRBQzQhSwIgqAQwCFBPjFhMbExARExgB8wWeAuQEKCbGLybmEJCbAQHWAp4CFAmEUy+pcImJOQSUvAABVzFHAUoEKCbGS0BWeuACwFzFT4ACAYqJ8QgJSQK+iYdgKqGCm4B/MwlQTIybgAIIriZzE/BnFgHqJcUjJmYXcCgmSAJQxksAiwDFxLjExCQBEanBCgBzBycBDAIUE+MSE5MEvBq8AICoF/kIkBPQVUjIQDEx6S4QDaFUwnYuAnwQoJiYxgI2hSYA4FgpDwHKBCgmprGAeTEQaiWVchDwuRIBCglpKsBakg4aVOVR7QUoEZhwvaT4xsSshbNAk5p9VHMBCgQoJqatgI0bQKOqLNVaAJsAxcQ0DQhkTYkGzap1u8YCmAQoJqalgP9tqwMty3RYWwEsAhQS0lJA1qYM0Lamd2gqgEGAQkJaClhaB5pXYrGWAj6VESABGgYE6helAo+afFQ7AUoEDNRLSlxMrKRgCXCqhLc0E6BAgI4cDF1A1qYNwK8S00o1EsAmQCGhkAXUFzQB3zLVaCOASYBCQqGGhHIXZQD/mn1YCwEsAtRLKjQB9YfqYgCl4tK2hy6AQYBiYqGEhOoPbfl/e3fXmsgVxgE8sJjakIWVblHKUhCEWfDC6GaQ1DDZ+hIQlBXBVpAI0li90EIaYxrYuIRQUrOwtpct7DfY21z0Yi/7Abzrl+h9CV3S3YuNY+bMzBnf5jye//MNDs8vOp7553kSK4urB4+/mVaAkcASx8TezFmAOthohFYWXA++fj2dAEsCmCXFLUDVOsWCZ8WVWnv07OUUAqwILDwktP/Qqj63q68Y9cRQqzOq3qCkaVpp0DtPBpoxl7p/myv86buXkwqwILD4kND2CmryL4Rvf3s9kYB/TAm4EBICgWk/DB49fvbrDw4FmBJwIyYGAjOpL7787P7P9/nrEzYBV0JCICBEeV2MiYGAOARcCgmBgDAE3JolBQKiEHAtIgICghBwLyQEAmIQcDEmBgLCEHArJgYCohBwLSYGAoIQcC8mBgJiEHAxJgYCIhJYaEgIBAQksNiYGAiIR2DBMTEQEI7AomNiD7/X1fokdW/iOkHrGQSkmiV1idYbCcg1SwoEjAQkmyUFAgYCsk0TA4G7BJZqmhjPBAEQuENAbAHzmCWVRevHCEg4SwoExgjIuHIQBPQEpJwkBAI6AnLOkgKBEQFJVw6CgI7AMq4ctJ8mBgIjApJOEwMBUwKyTBMDATMC0sySCqD1bALyTBMDATYBiaaJgQCTgEwrB0GARUCqaWIgwCAg18pBEDASkGzhHAgYCMi2chAE7hKQSAAIMAkse0zMuGIABMYJSLhycAut1xOQceUgCOgJ/CfjujEQ0BOQcuEcCOgIyLlyEARGBKSIiRnXjYGAGQFaMbF2vRguKEohXKy3HS6cAwETAvMUMOvXw5rfpz+Iz685WTkIAmwChGJimabXcJRmhn/pZBGtNyFAQ8CbdJe5GdB7kOZdPw4CTAJkPgP6QbPjBPuci2dBgEVA5JDQmIANr8V5knyrh0GAQYBMTMzmDU+Aa/k0CBgJkImJ2TavyLN+HAQMBMjExGr2Z6pxrB0FgbsEyEREMhxLghMZ+8WzfrR+nAAZAXGuiaXbcdvVwyAwToBOTCzJd6qk7fJpEBgj4HJMzEFIqJXiO1WqZbd+HAT0BAjFxJK8x0raLaAHAR0BSjGxKO+xoiwBV29BgEWAUkRkwH+uqrUAEBiVh1JIyMGP+S1rASCg+8SkFBNT+M+lGF8OggC7PiUUE4sn+M+VUC0FgMCoYoSmiZWcHKxkKeDtBlp/e5FGJCb2ISq66uRgPUsB/4LA6FmA0ByZjpODdSwFgIDuHo3QJKG6k4OdWwoYgsBtrW3SmSXVmZDAO6MAENDVnugxsdG/jDh6FuhbCgABXf1BZ5rYZL8ImAJAQFcv6EwTi4f4jxXKWwoAAV0dEJomFnNw32EtAATuXAxQmSTkYDpMwFrAMIfO35b3lM4sKQfPgz2mgLcfBQxr6PyofqczTSx+xHuooGotAAT09aOwMTHjBAHulzt+GwHDJBo/qgqhaWJpD9+ZPGkbAUP8c7m+jglNE/M7+BCwEjAMo++6uiA0SahV4Xr3lbcTMIyh7/o3RZt0Zkn9terl+JHTsxWQD6Hv+qpTmibGcaezYStgOEDXx+o5qWliXbvjdO0F4HLQ8EAo7tJJ40jBuM2TXFhlBgTG6rqBpo/XNJKkCAAAAspJREFUiYgxMdNlU3HLHYMBDgE3aS+afqf2aa0bq5leD3hqVxyfAde4GGI8DdBaOagVTD7ONC4B1z603PiigNrSyT7jh73St3w5OBJQRcMZt8Rl4WJidksnq93I2O3GZfWKU8B1Ew1nXRESXDoZrya7jWgwGG10k1X16sru1dBHAYM19Jt1o3ZMdemk9X8NMQTcnKHd7Hv1MtmFcw4F9NFskzqQREA+il6b1atlF/CBwM0N/qfYvELHJJdOOhQwwMWgRQX3xIqJzUNAC18D1o+EuwSXTlr876hRwA2uBGxKOSW5boxfAB4EbKtQXmoB57gU4nhhdLrEAvqIi/FUbJeggHdcAqoJtJerfHu0lk5yC+h50Fze34bHrsXE5ibgPYEOvgUc3BEdChgQmFZADldCjupiU1QBf04mQM2iqU4fCp8ulYA0EsPOy3NIUwDz5WAviIZOUs1dEQT8Pb2AfAAXQhNW5NWmSDGxSQUMEBee5pXBvtgBAQ4BrQB+CUxV3otd2iGhczwFTP9t8EuZroABfgjM5rIwV6YZE8sgGzCzqhyW6cXEtC4eAmb6SeDfnbmAucbEqk0AmHUlsiWxY2K6/qsdBQ2by6+Dk3qZQlBQ81fQrLlVKrAveEgo3znBN8CcK5ZrCytArWZT6NAivhCUF3sCClB7WVwDLbC2/U+FCgq2Opf4+194HR0ctoUICqpVv4Lvf7fKF1g/dTUomK8mmxH0weUnA99BLhN3IyiY7mw1kAoXpTzPt+ql+MJCQqrWKZ7hx7+A94ex7sb6XnyuAlStn8s28P8AYn8gxMLFXL+Un7GAvNbLBc528MFP6BEhqLynUH9SSk8jQE1n+jX/5VkshfQf4QoFtwvhgD+Zq99bHZTarbi5gHy6XRqs9ju1nD8bPolVImj8UtZawhNJBY8q0R1fTFGU2LZvJ1qpBIOpCH7co+Sr/wHFUOkOcIFVEwAAAABJRU5ErkJggg==;" parent="1" vertex="1">
                    <mxGeometry x="266.91999999999996" y="315.54" width="16.19" height="16.13" as="geometry"/>
                </mxCell>
                <mxCell id="56" value="scrapes" style="endArrow=classic;html=1;rounded=0;strokeWidth=1;strokeColor=#666666;" parent="1" source="49" target="43" edge="1">
                    <mxGeometry width="50" height="50" relative="1" as="geometry">
                        <mxPoint x="420.6900000000003" y="395.68299037470274" as="sourcePoint"/>
                        <mxPoint x="795.02" y="285.4522026926335" as="targetPoint"/>
                    </mxGeometry>
                </mxCell>
                <mxCell id="58" value="" style="sketch=0;points=[[0,0,0],[0.25,0,0],[0.5,0,0],[0.75,0,0],[1,0,0],[0,1,0],[0.25,1,0],[0.5,1,0],[0.75,1,0],[1,1,0],[0,0.25,0],[0,0.5,0],[0,0.75,0],[1,0.25,0],[1,0.5,0],[1,0.75,0]];outlineConnect=0;fontColor=#232F3E;gradientColor=#F78E04;gradientDirection=north;fillColor=#D05C17;strokeColor=#ffffff;dashed=0;verticalLabelPosition=bottom;verticalAlign=top;align=center;html=1;fontSize=12;fontStyle=0;aspect=fixed;shape=mxgraph.aws4.resourceIcon;resIcon=mxgraph.aws4.fargate;" parent="1" vertex="1">
                    <mxGeometry x="199" y="259.5" width="20" height="20" as="geometry"/>
                </mxCell>
                <mxCell id="59" value="S3 with static page hosting" style="text;html=1;strokeColor=none;fillColor=none;align=left;verticalAlign=middle;whiteSpace=wrap;rounded=0;" parent="1" vertex="1">
                    <mxGeometry x="323.00000000000006" y="501.4" width="90.75" height="30" as="geometry"/>
                </mxCell>
                <mxCell id="60" value="" style="outlineConnect=0;dashed=0;verticalLabelPosition=bottom;verticalAlign=top;align=center;html=1;shape=mxgraph.aws3.cloud_2;fillColor=#F58534;gradientColor=none;strokeColor=#FFCC99;" parent="1" vertex="1">
                    <mxGeometry x="70" y="200" width="20" height="20" as="geometry"/>
                </mxCell>
                <mxCell id="66" value="Court Availability Check Task" style="text;html=1;strokeColor=none;fillColor=none;align=left;verticalAlign=middle;whiteSpace=wrap;rounded=0;" parent="1" vertex="1">
                    <mxGeometry x="218" y="265" width="182" height="10" as="geometry"/>
                </mxCell>
                <mxCell id="68" value="Applciation Status Check Task" style="text;html=1;strokeColor=none;fillColor=none;align=left;verticalAlign=middle;whiteSpace=wrap;rounded=0;" parent="1" vertex="1">
                    <mxGeometry x="221" y="363.25" width="182" height="10" as="geometry"/>
                </mxCell>
                <mxCell id="69" value="" style="sketch=0;outlineConnect=0;fontColor=#232F3E;gradientColor=none;fillColor=#D45B07;strokeColor=none;dashed=0;verticalLabelPosition=bottom;verticalAlign=top;align=center;html=1;fontSize=12;fontStyle=0;aspect=fixed;pointerEvents=1;shape=mxgraph.aws4.container_1;" parent="1" vertex="1">
                    <mxGeometry x="310.1" y="382.04" width="48" height="31" as="geometry"/>
                </mxCell>
                <mxCell id="70" value="Selenium" style="text;html=1;strokeColor=none;fillColor=none;align=left;verticalAlign=middle;whiteSpace=wrap;rounded=0;" parent="1" vertex="1">
                    <mxGeometry x="303.60999999999996" y="407.6" width="61.39" height="30" as="geometry"/>
                </mxCell>
                <mxCell id="71" value="" style="shape=image;verticalLabelPosition=bottom;labelBackgroundColor=#ffffff;verticalAlign=top;aspect=fixed;imageAspect=0;image=data:image/png,iVBORw0KGgoAAAANSUhEUgAAAOYAAADwCAYAAAAU5Rg9AAAMImlDQ1BpY2MAAEiJlVcHVFPLFp1bUklogQhICb2JUgQCSA0tgIBUwUZIAgklxoSgYkcfKvgsqIhiRZ+KKPosgIgNe3ko9v5RREV5igUbKn+SAPp0/f/XP2vNvfueOXPOPufOzJoBQCuWJ5XmoNoA5EryZHFhQazRKaksUhtAAB2QgS5g8/hyaWBsbBSA0v/+p7y/Aa2hXHVS+vq1/7+KjkAo5wOAxEKcLpDzcyHeDwDuwZfK8gAgdEK95eQ8KcREyBLoySBBiK2UOFON2UqcrsZRKpuEOA7EaQCQaTyeLBMATSUvVj4/E/rRXASxs0QglkDcCLEfX8QTQPwF4iG5uRMh1rKD2C79Bz+Z//CZPuCTx8scwOpcVEIOFsulObyp/2c5/rfk5ij6Y1jCRhPJwuOUOSvrlj0xUolpEJ+VpEfHQKwL8TWxQGWvxE9EivDEPvuPfDkH1gwwAUBpAl5wJMTGEFtIcqKj+vR+GeJQLsSw9miCOI+boB6LCmQT4/r8o1OE8pD4fsyTqWIpbYoV2YmBfT7Xi4Tcfp8NBaKEZDVP9HK+OCkaYk2I78mz4yP7bJ4XiDjR/TYyRZySM/znGMiQhcapbTCrXHl/Xpi3SMyN7sNReaKEcPVYbDyfp+JmAHGWUD46qp+nQBgcos4LKxRKEvv4Y6XSvKC4Pvst0pzYPnusUZgTptRbQNwsz4/vH9uVByebOl8cSPNiE9TccL0sXkSsmgPuAKIABwQDFlDAlg4mgiwgbu6s64Rf6p5QwAMykAmEwKlP0z8iWdUjgc94UAD+hkgI5APjglS9QpAP9V8HtOqnE8hQ9earRmSDJxDngkiQA78VqlGSgWhJ4DHUiH+Jzodcc2BT9v2iY2n164ghxGBiODGUaI8b4X64Dx4FnwGwueJs3Kuf13d7whNCC+ER4TqhlXB7grhQ9hNzFhgJWiHH0L7s0n/MDreBXt3xINwX+oe+cSZuBJzw4TBSIO4PY7tD7Y9cFQMZf69lny+KMwWlDKIEUOx+ZqDpoOk+4EVZqR9roeaVPlAtzkDPz3lwfqifAL4jf7bEFmD7sDPYcewc1ojVARZ2FKvHLmKHlXhgbjxWzY3+aHEqPtnQj/iXeLy+mMqqyZ2rnTucv/T1gTzhlDzlYuFMlE6ViTNFeaxAuFsLWVwJf+gQlquzixcAyr1fvbW8Zar2dIR5/rtu7nwAfKt6e3sPfddFtgOw7xUA1PvfdbZZcDmLADi7kq+Q5at1uPJBAFSgBVeKITCFe5cdzMgVeAAfEABCQASIAQkgBYyHdRbBeSoDk8F0MAcUgRKwFKwEa8AGsBlsB7vAXlAHGsFxcBpcAJfBdXAXzpV28AJ0gfegB0EQEkJHGIghYoZYI46IK8JG/JAQJAqJQ1KQNCQTkSAKZDoyFylBSpE1yCakCvkTOYgcR84hLcht5CHSgbxBPqMYSkP1UBPUBh2GstFANBJNQMehmegktACdhy5Gy9FKdCdaix5HL6DX0Vb0BdqNAUwDY2LmmBPGxjhYDJaKZWAybCZWjJVhlVgN1gD/9FWsFevEPuFEnIGzcCc4X8PxRJyPT8Jn4ovwNfh2vBY/iV/FH+Jd+DcCnWBMcCR4E7iE0YRMwmRCEaGMsJVwgHAKrp12wnsikcgk2hI94dpLIWYRpxEXEdcRdxOPEVuIbcRuEolkSHIk+ZJiSDxSHqmItJq0k3SUdIXUTvpI1iCbkV3JoeRUsoRcSC4j7yAfIV8hPyX3ULQp1hRvSgxFQJlKWULZQmmgXKK0U3qoOlRbqi81gZpFnUMtp9ZQT1HvUd9qaGhYaHhpjNIQa8zWKNfYo3FW46HGJ5ouzYHGoY2lKWiLadtox2i3aW/pdLoNPYCeSs+jL6ZX0U/QH9A/ajI0h2pyNQWaszQrNGs1r2i+1KJoWWsFao3XKtAq09qndUmrU5uibaPN0eZpz9Su0D6ofVO7W4eh46ITo5Ors0hnh845nWe6JF0b3RBdge483c26J3TbGBjDksFh8BlzGVsYpxjtekQ9Wz2uXpZeid4uvWa9Ln1d/eH6SfpT9Cv0D+u3MjGmDZPLzGEuYe5l3mB+HmQyKHCQcNDCQTWDrgz6YDDYIMBAaFBssNvgusFnQ5ZhiGG24TLDOsP7RriRg9Eoo8lG641OGXUO1hvsM5g/uHjw3sF3jFFjB+M442nGm40vGnebmJqEmUhNVpucMOk0ZZoGmGaZrjA9YtphxjDzMxObrTA7avacpc8KZOWwylknWV3mxubh5grzTebN5j0WthaJFoUWuy3uW1It2ZYZlissmyy7rMysRlpNt6q2umNNsWZbi6xXWZ+x/mBja5NsM9+mzuaZrYEt17bAttr2nh3dzt9ukl2l3TV7oj3bPtt+nf1lB9TB3UHkUOFwyRF19HAUO65zbBlCGOI1RDKkcshNJ5pToFO+U7XTw6HMoVFDC4fWDX05zGpY6rBlw84M++bs7pzjvMX5rouuS4RLoUuDyxtXB1e+a4XrNTe6W6jbLLd6t9fDHYcLh68ffsud4T7Sfb57k/tXD08PmUeNR4enlWea51rPm2w9dix7EfusF8EryGuWV6PXJ28P7zzvvd6vfJx8sn12+DwbYTtCOGLLiDZfC1+e7ybfVj+WX5rfRr9Wf3N/nn+l/6MAywBBwNaAp4H2gVmBOwNfBjkHyYIOBH3geHNmcI4FY8FhwcXBzSG6IYkha0IehFqEZoZWh3aFuYdNCzsWTgiPDF8WfpNrwuVzq7hdEZ4RMyJORtIi4yPXRD6KcoiSRTWMREdGjFw+8l60dbQkui4GxHBjlsfcj7WNnRR7aBRxVOyoilFP4lzipsediWfET4jfEf8+IShhScLdRLtERWJTklbS2KSqpA/Jwcmlya2jh42eMfpCilGKOKU+lZSalLo1tXtMyJiVY9rHuo8tGntjnO24KePOjTcanzP+8AStCbwJ+9IIaclpO9K+8GJ4lbzudG762vQuPoe/iv9CECBYIegQ+gpLhU8zfDNKM55l+mYuz+wQ+YvKRJ1ijniN+HVWeNaGrA/ZMdnbsntzknN255Jz03IPSnQl2ZKTE00nTpnYInWUFklbJ3lPWjmpSxYp2ypH5OPk9Xl68JB9UWGn+E3xMN8vvyL/4+Skyfum6EyRTLk41WHqwqlPC0IL/piGT+NPa5puPn3O9IczAmdsmonMTJ/ZNMty1rxZ7bPDZm+fQ52TPeevQufC0sJ3c5PnNswzmTd7XttvYb9VF2kWyYpuzveZv2EBvkC8oHmh28LVC78VC4rPlziXlJV8WcRfdP53l9/Lf+9dnLG4eYnHkvVLiUslS28s81+2vVSntKC0bfnI5bUrWCuKV7xbOWHlubLhZRtWUVcpVrWWR5XXr7ZavXT1lzWiNdcrgip2rzVeu3Dth3WCdVfWB6yv2WCyoWTD543ijbc2hW2qrbSpLNtM3Jy/+cmWpC1n/mD/UbXVaGvJ1q/bJNtat8dtP1nlWVW1w3jHkmq0WlHdsXPszsu7gnfV1zjVbNrN3F2yB+xR7Hn+Z9qfN/ZG7m3ax95Xs996/9oDjAPFtUjt1NquOlFda31KfcvBiINNDT4NBw4NPbSt0byx4rD+4SVHqEfmHek9WnC0+5j0WOfxzONtTROa7p4YfeLayVEnm09Fnjp7OvT0iTOBZ46e9T3beM773MHz7PN1Fzwu1F50v3jgL/e/DjR7NNde8rxUf9nrckPLiJYjV/yvHL8afPX0Ne61C9ejr7fcSLxx6+bYm623BLee3c65/fpO/p2eu7PvEe4V39e+X/bA+EHlv+z/tbvVo/Xww+CHFx/FP7rbxm978Vj++Ev7vCf0J2VPzZ5WPXN91tgR2nH5+Zjn7S+kL3o6i/7W+XvtS7uX+18FvLrYNbqr/bXsde+bRW8N3257N/xdU3ds94P3ue97PhR/NPy4/RP705nPyZ+f9kz+QvpS/tX+a8O3yG/3enN7e6U8GU91FMBgQzMyAHizDQB6CgCMy/D8MEZ9N1MJor5PqhD4T1h9f1OJBwA18KU8hnOOAbAHNpsA6Hs2AMojeEIAQN3cBlqfyDPcXNW+aPDGQvjY2/vWBABSAwBfZb29Pet6e79ugWRvA3BskvpOqBTlHXRjgBJdNxDMBj/JvwGcrXJQXuDutQAAACBjSFJNAAB6JgAAgIQAAPoAAACA6AAAdTAAAOpgAAA6mAAAF3CculE8AAAABmJLR0QAAAAAAAD5Q7t/AAAACXBIWXMAABYlAAAWJQFJUiTwAAAAB3RJTUUH5AUMBy4CI3G9eQAAMq1JREFUeNrtnXdgHNW1/z8z23fVe7UkW7Ka5W4wBmOwsWN6byH0FjqpL3nJ75EEEpKXByGmJrQQSAihBRI6OFRj3LAkW5Il2ZKt3stq+87M7w9JjkMwlq1dbdH9JvCHWc/cuXM/c8+599xzpKb+Bu3pXQ/TNNyAkJDQkUgjN6aAK0tvI8uWG5Ar6t9qf5kPut5EQxX9KyR0hGp2NlCcMoevJ14XGDA7HK2omoosyaJ3hYSOULIkEWuMD+T1JNGrQkKTkKopHJNxAidkrw0cmKJbhYQmA6VKbuxMriy9lVhDvABTSCjU0tCwGmK4ouQWCuJmB9Y0Ft0rJHRkkpA4I/9ClmeuDrzPKrpXSOjI/MqFqcdwQeFV6GW9AFNIKBz8ygxrDleX3kaCKSko9xBgCgkdpl9p1pm5tPgGihMrgnYfAaaQ0OGRyddmnM2q3NODehsBppDQYfiVc5IXcMns6zHKRgGmkFDIJ0pNJdmcztVl3yLFkh70+wkwhYQmYL/qZSNfn30tFcmLpuSOAkwhoUOasBorc07h5LxzkZAEmEJC4eBXzk4o57LimzDrLFN2XwGmkNBBDViNeFMSV5XeRqYtZ0rvLcAUEjqIdJKO82ddweK0Y6f83gJMIaGDmLDHZqzizIKLQ3JWWYApJPQfUKrkxxVxRekt2AyxIWmDAFNI6At+ZYwhlitLbiEvdlbI2iHAFBI6QBISZxZ8nWWZK0PaDgGmkNABfuWStOM4v/AKdJJegCkkFA5+ZZZtBleV3UacMSHk7RFgCgm/Eg2L3splJTdRFF8WFm0SYAoJAafkncuJ2SeHTXsEmELT3q+cm7yYi4quxRDko1wCTCGhCfqVqZZMrin7Fsnm1LBqmwBTaNr6lUadiUtmX09Z0vywa58AU2h6gqlpnJRzOl+bcdaUHeUSYAoJHcKvLEmcy6XFN2DSmcOyjQJMoWk3UyaaUri67HbSrVlh204BptC0kk7Wc0HRVSxMOTqs2ynAFJpGJqzK8VmrOT3/QqQwLzupF69LaLpAOTNuNpeX3IJVbwu79vW5u3m16S8AnJJ3ngBTaBr4lWjEGuO5qvQ2cmPyw659Q94BHqy+m3+2vYGEhNPvEKasUPRLRuacmd/g6IwVYdc2l9/Jk7Xr+LD9bXSSDoAeV6cAUyjaTViFo9OP55xZl+4f+OEin+rl2YZHeX3vC2ho+/9ckiQBplB0+5U5MQVcVXZbQKs9B+qD8UrTszzf+AcUTfmPIAcBplDU+pVWvY0rSm5mZlxx2LXtvdZ/8Me6h/Aqni+NPBJgCkWtTsu/gOOz1oRduz7r/IDf77yHEd8wkiQdxC8WEopCv3JBylIuLLoavWwIq7bt6N/Gg9V30+fu+cq0mAJMoajzK9Ot2VxddjuJpuSwalvTcD3rKu+izbH3kLlqBZhCUeVXmnRmvlH8TUoT54ZV2zqdbayr+jmNQzXIE1gdFmAKRRGZGmtmnMnqnDPCqlmDnj4eqv4llb2bJgSlAFMoqvzKsqQFfGP2NzHqTGHTLqd/hMdqfsMnne8dVqkFAaZQFEyUKsnmNK4uu51US0bYtMureHhm1yO81fK3wz6MLcAUinjPUi8buKjoGualLAmbVimawkt7nualPc+gauph/30BplCEm7AaJ2SfzCl554VNihANjbf2/Y0/1f8On+o9onYJMIUi2q8sSijl8pKbsOitYdOuTzre4/Ga3+DwjRzxx0KAKRShBqxGvDGRq0pvI8s2I2zaVdm7iYeqf8mAp29SdTUFmEIRKRmZc2ddzpK05WHTpsahWtZV3UWns3XSxW4FmEIRacIuy1zJWTMvCUm15y9Tm2Mf66ruomm4fsJ7lQJMoSiCUiUvdhZXlt5KTIiqPX9Rfe4eHqz+BTv6tgUESgGmUMT5lTZDDFeU3Ep+bGFYtGnEN8zvd/4fn3V9GNDZW4ApFDGSkDij4GKOy1oVFu3xKG6eqnuQ9a2vBXyrRoApFDF+5aLUZVxQeGXIqz0D+FU/zzc+yatNf0FFDfj1BZhCEeFXZtpyubrsduKNiWHRntf3vsCzDY/h13xBCWwQYE4zH03VVGRJRtPUf0sAFc5tNustXFZ8I7MTysOiTR+2v8WTtb/F7XcGLdpI5JWdRlBadFZOzjuHsqQFNA3X8/fm5xj2DIR9VvKTZ5zDypxTw6ItW3s28MiO/2XIOxjUrRoB5jSRLOm4oPBKLim+Hp2k54TstWTZZvBQ9d04/CNhWYputNrzEr4++7qwqPZcN1DN/VU/p9vVGfT9U2HKThMfbXnmSZw767L9CycSEmtyz+CykpswyqawM2s1TSXFksHVZbeTbE4LeXtaRppYV3Un++y7pySoQYAZ9VAqFMaXclXp7di+sCEvSzrOLLiY8wuvQCfpwgZODQ2DzsjXi65jTvLCkLenx9XJ/VU/p26gOmABBALM6exXahqJpmSuLf82OTF5X/obg2zk4qJrOTXv/PA5NqVprMw5jbV5Z4e8TcPeQR7Z8b9s6f5kSsP/BJjRiyV62cDFs69jceqyr/ylRW/lytJbOSF7LZqmhrTVqqZQnDiHy4pvxKyzhLQt43VFPmh/a8pjcgWYUWvCapyUexqn5V8woVXXOGMC35zzfZakLz+iE/eBmikTTMlcXXo7GdbskPafT/Xyl4bHeO0LdUUEmEKTmnXKkxZwecnNhzXrpJjTubnivylPmo+qKVPebp08unK8MPWYEPefyt+bnuP5xidRNH9IzGkBZtRBqZJqyeS68u+QZsk87L+fE5PPrXP/HwVxs6cUTlVTOS7zJM4ouCjER7k01re+xlN1D+A5SF0RAabQYQ6p0YTHlxXfOKnVzKKEMm6Z+2MyrDlTYtaqmkpBXBFXlN6CVR8T0j78rOtDfrfz19i/oq6IAFPosHVK3nmsnnHmpL/081OO4qaKH5JoSg4qnBoaMYY4riy9lRkxM0Padzv7P+eBCdQVEWAKHZZfuTBlKZcUX48xQFEyyzJXcm35t7EZYoO2ACIhcfbMSzgm48SQ9l/zcAPrqu6ibaQ5LLIiCDCjxK/Mss3g2vLvkGRKCSg0q3PP5LLiG4ISHaRqCkelHz8WkRS6as9dzjbWVd1Fw+DOKQsgEGBOA7/SqrdxZemtQTl9oZN0nDXzEs6bdXlAo4NUTSU7Jp+rSm8jzpgQsv4b9PTz0I5fsf0w6ooIMIUmNKudNfMSVmStDdo9DLKRr8++LmBJlTU0LHorlxffRGF8Scj6zukf4fGa3/Bxx7thk9RLgBklfuXSjBO4oPAq9HJwDwpZ9FauKr2NFVlfC8hi0Kl557Mie23I+s6revjTrt/xZsvfwvBcjQAzov3K/Lgirin7FnHG+Cm552h00H+xJO24I4ZT1RTmpxzFRbOvwRCias+KpvDynj/x0p6nx/ZqJQGmUGA8S7PewqXFN055trhUSzo3z/0RZUnzDjsAQdVU0ixZXF16e0AXqQ7XjH573ys8s+thvEdYV0SAKXSQAa6RbEqlInlRSO6fOxYdlB9XNOGZczT4wcQ3iq+nLGleyPpuQ8d6Hqu5d1J1RQSYQl8qSZIY8dvpdraHrA2zE8rHooOyJgSnpmmszj2D1blnhsx0rOzdzEM7Jl9XRIAp9OVgIjHsGeTJ2nV0OttC1o4FKUdz4wSig0arPc/jG8U3YNKZQ9LWxqE67q+6iw5HS9hDKcCM8Flza8+n/LbyZ3S7OkLWjmMzV3FN2bewGWK+dI9T01SSzKlcXXr7EQXVB0Ltjn3cX3Une4Z3hdVepQAzSiVLMp91fci6qrvodXeFbPZeM+MsLi2+AaNs/A849bKBCwuvZn7K0SFpX7+7hwer76Y6gHVFBJhCE4Lz04713F/1c/rdPSFpw2h00Dc49wvRQYqmcHzW18YOa0+9Xznis/P7mnvY2PVBRJivAsyoM2tlPm5/lweq72bA0xeSNhjHooNOy79gfxB9RfIirii9OSTVnj2Kmz/uepD3Wv4R1quvB5PIKxtFPucH7W+il/XcVPHDkJQSsOptXFv2HY5KPx6Hz05F8qKQ+JV+1c8Lu//AK3ueRUUVYAqFGE4k1rf+A52k58Y5/0XsFEUEHSiL3srS9BUh6wNNU3lj34v8uf7RoNUVEaas0BHh+U7LK/y+5h5GfMPT7uk/bH+bJ2qCW1dEgCl0pPMGb+x9icdqfoPDPzJtnnpbz6c8vON/GfKGfz0WAeY0nTU1VF5rfp4na9fh8jui/ol3De4YqyvSEXErsALMaeZvqqi82vQsT9U9iFtxRe2ztow0sa7yTvbaG6MCSgHmNIBT0RRe2vMMT+96GI/ijrpn7HV18UDVL6gdqIqoAAIBpoATRfPzQuNT/Kn+93gVT9Q827B3iEd2/i9buj+OmplSgDnN4PRrPv7a+AR/aXwcn+qN+Gdy+138oW4d77e9GfELPQLMaQ6nT/XybP2jPN/4B/yqL2Kfxaf6+EvjY/yj+fmIKFcvwBQ6JJxe1cMz9Y/w0p6n8av+iHsGVVP5e/Nz/DWEdUUEmEJBgdOjuHmq7kFeafozSgiKB01G69teH60r4ndHLZQCzGkMp9vv4sm6dfyj+bmQVPY6Em3q+pDf7/g1du9QSOuKCDCFggenJOHyOXm85j7e2PtiyGpiTlQ1/dt5oPoX9Lq7o24FVoAp9B9wOnx2fl9zL2+3/C3k1aQPpmZ7I+uq7qQ1TOqKCDCFpgBOGbt3iN/t+DXvtv4j7FY5u5zt3F91F/VhVFdEgCk0NYNAkhnyDvLwjl/xz9Y3wgbOQU8/D+/4FZ/3fDatoBRgCv0bnKMFdu7mo/Z3Qt4ep9/B47X38VHHO9PGfBVgCh0Uzn53Lw9U/5xPOtaHrB1e1cuf63/Hm/teRpqu70IMR6Evwtnr6ub+qjvZ2PXBlN9f0RT+tudPvLj7j2FbV0SAKRQyOLtdnayrvJMt3Z9M2X01NN5peZWnw7yuiABTKKRwdjrbuK/yp3zes3FK7vlpxz95dOc9OHz2aQ2lAFPokHC2O1r4TeVPqerbEtR7VfVt4cEdd0dEXREBplBYwNk60sS92+9gZ//nQbnH7qE61kVQXREBplCYwKljn303926/g9qBqoBeu93Rwrqqu9gzVDft9ioFmEIBgbNpuJ57t99B/eDOgFyz39PLQ9V3U923VUA5ncDU0NA0FVVTUTRl7B//BP4Z/a2qqWiaFrWHcY8Ezt1Dtdy7/Q52D9VN6lojPjuP7ryHT7veF+brl0gfXRCOQiQhoZcNWHQWbIZYYgxx2AwxWPU2zHorJtmEXjagl/XoJT0ao2n1/ZoPt9+Fy+/A4R9h2DvIiM+Ow2fHo7jxa6MHiyUkJEmaliuHsqSjfnAH926/g+8uuIuCuKLDvoZHcfP0rod4t+Xv0371NSrB1DQVFQ2dpCPWEEeaJYv8uFnkxxaRE5NPmiWTBFMSVr0No86EXtIjS7qv/EJrmoaiKfshdfjt9Lt76XC20jrSzF77btod++h2dTDis6Nqo7UxptNXX5Z01A5Ucu/2O/jegruYETtzwn9X0fy8sPspXtnz54itKyLAPMjMqGoqeklPqjWL4oQ5zE89mpKECjJtOcQa4icFiSRJ6CU9evSYdRYSTElk2/KoSF60f2DZvcO0O1uoH9hBdf826gd20O3qxKt6pg2ksqRjZ/827q28g+/Ov5OcmPwJfEhHM8Q/W/8ovgiuKyLA/MJL1VCJMyYyJ3khx2aspCJ5ERnWbPSyYcraoZP0JJiSSDAlUZY4j9MLLqLH1cmugWo2dX9MVd8WOp1t+FUfsiRHd/oLSUdV7xbuq/wp35n/MzJtuV/5+w873ubx2vtw+R1RmdluWoE57jumWtI5NnMVq3JOoyi+DKPOFBbt00k6MqzZZFizWZ61hm5XB5/3fMZHHe+ws38bw96hqAZUlmS29Wzkvsqf8q35PyXDmv2lv9vWs5FHdvyKIc+AWOyZyLg64dqlP9lr3x2WOVRUTSHBlMTavHO4Yc73WTvjbNKsWejk8PyeSJJEjCGOooRSjss8iYrkxRhkI33uHpx+O0TpgpEkSbQ59tHm2EtF8mJshph/++/1gzu5Z/v/0ObYJ6CcwESUH1cYnmCqmopeNnBs5ipuqvghp+WfT7I5LaISMOllPRnWbI5OX8HC1KUYZANdrnac/pGoBFSSJFpGmulwtjA3eTHWMThbRpq4d/v/0DhUI/YqDwPMsJt6VE0hzZrFxUXXsCb3TCx6W8SbekUJZcyKL2F17hm80vQXPu54F4dvOOoGqizJbOj8J26/i9UzzsCv+nl974vU9FcKKCPZx9TQmJ+ylGvKbqcsaX7UDdqSxLkUxpeyIvtr/LXhCar7tqJqSlQthEhIbO35lO29m/avoAvzNULB1NCQJR1rcs/gqtLbSDGnRW+HywaWpq+gNHEurze/wMtNf6LX1RldlaokeX+0lIDyCPswHKDUS3rOnXkpN1f8MKqhPFDxxkQunn0tP1lyH0vSjtvfF0JCIQdTG4vaOWfWZVxRegtWfcy0ewFlSfP578W/5uKia7DqbWGfeFloGoApIXFK3nlcVnwjZp1l2r6EeGMiV5Teyrfm/YRMW46YOYVCB6aqqSxNX8GVpbdi0Vun/YvQSTpW5pzK9eXfG/tICTgFmCGAMi92FteUf5t4Y6J4CweoJLGCeGMimibAFGBOsV9p1lu4tPgG8mMLxRv4gvYM1zPsHQRJBHgLMKcSTE3j+Kw1HJd5kuj9L6jT2cbTdQ/h9DvEyQsB5tTOlsnmVM6ZeWnYBKGHi9x+F0/VPUDtQJXY+xOa2gADTVNZnrWawviSKX1In+rFo7hHsxCMlTeXJRm9bMAgGzDIRgyyIWSb/Jqm8o+9z7G+9TVkYcIKTSWYGhoJpmTW5J4VdAA8ipvWkWbqB3fSOFRLu6OFAU8fLr9jf3oQWZLRSwbMegtWvY14YyLJ5jSybLnkxOSTZcsl2Zw2Jds4W3s28mz9Y/hVf9RXShYKMzBVTWV+ylHMCuJs6fDZ2dj1AetbX6NuoJoh7wDKWBlzaezf0v4PxYGfjPE/Gc0+YJRNxJsSybHlU5JYwZykhRQmlJJsTg2479fuaOGxmnsZ8PSKQG+hqQfTIBs5NnMVhiBlG9jRv41ndj3C9t7P8Cie/YeTdQcZ7NIhTN8eZyddzna29mzArLOQYc1mbvJijs44nvKkBQHZ5nH6Hfyhbt20K8oqFCZgqppKhjWb8qQFQTGRP2p/h4d3/JJOZzs6SXdQGA9HkiShQ7cf1L323TTbG3m75RUK4opYnrWa5ZlryInJO+I+ebXpWd5ve1Ms9giFBkwNjaKEMlIs6QG/9vbeTTxQ/Qt6XV0BAfJgGofHp3qpG6hi1+AOXmt+gZU5p7Am96zDBnRz90c81/gEiqoIv1IoNGBKSJQkVKCXAnu7Ye8gf6x7kB5XZ1Ch/E9IdWP+4T7+tOsR3m97g5PzzmVN7lkkm1MP+fdbR5p5rOa+qMh/c2A+Xw7w1b/4q38fDdM3L29YgWnSmcg/gsTAh9Km7o/Y2b99SqH8slm0dWQvj9fcx8ft73JR0TUck3HCQTP3OXwjPFH7W3YP1UUklOOHn0fXDQxY9TbijIkkmBJJMCYRa0zApo9BJ+uRkVA0Ba/qxa24cPpGGPIOMOjpZ8g7gNM/glfx7k/SLUz6KQRTQ8OqjyHNkhlgv1Vhc9dH+FQPOim0573HB1TtQCW/2vZD1sw4k4uKrvmPZ1Y1hZf3PMNHHe9G1CAch1En6Ug0JZMXW0hxQjmF8aVkx+SRbErFaojBpDN95btQNAWf6sXpczDo7afL2U6zvYGGwRr2DO+iy9mBW3EJSKcETE0j1hhHnDEhoNd1+EfYa98TVuaQLOlwKU7+tufP1A/u5KrS21mYunT/f/+0831e2P2H0XQiEWDGjc+M8aZEShPncXT6ciqSF5Nlyz2i/V2dpEOns2DWWUgypzAzbjbHZJyAoin0u3vZPVTL5u5P2NbzKW2OvfhUHzpJZjqWe5+CqUbDpo/FrDMH9KoexT2acS7MXtq4/1TTv527t36fc2ZdytzkJeyz7+ZP9b/bn2c23IGUJZnc2AKWZ67muMyTmBk3O2hhlDpJR6olnVRLOkszTqDH1cmW7g2sb3uNnf2f4/I7px2gU2DKgklnDni2dJ2kn9IM7Ecye/Z7enm85j4seisexYOi+sMaSk1TQZIoiCtiTe6ZrMhee9AEzsFUqiWDk/POYUX21/i8ZyOv7X2ez3s+w6O4p42Jq5+qQRpo081miCXDmk3TcEPYdu74M4+fFgnnbRFVU8aAOJeTZ5xLujUr5G2y6m0cm7mKhanH8Ennezzf+CSNg3UgEfUrulMTYIAa8HQZRtnIcZmr2dL9SdjnyQnnQaRpKnrZyPKs1VxUeDXFiRVh10aL3spJOadTkbSIvzY+yVv7Xsbpd0T17DklYPoU7/6Y1UDq+Kw1bOn+mPfb3hAhbZOYJS8quoa1M84J+xQv6dYsbpjzfcqS5vGHugdoG2mO2vcedDAlJFyKE5/qBQKbVT3GEMv15d/Dp/r4tPOfaJomomgOY4GnJHEu15d/j3kpSyJnwMoGVuWcRm5MAQ/v+BVVvZujsnKYHHwwR099OP2OoH1Fv7fgLi4tvoEkcwqKpoh8OYcyX9E4NnMlP1r8fxEF5YGanVDODxb9kuVZa6Iyq2DwiwpJo/9anrWa1CDEysLoqu+8lCVUJC9GkiQGPL04/Y7Ras8i9Os/tCb3TG6e+6OAB31MtWIMscxLOYoeVydN9oaoeM9TVlRo3JTtcLRQmjg3qPcpTZxLcUI5++x72Nj1ARs732fPcD0jPvtoGQbkaW/qrp1xDteXf5dYY3xUPE+iKZkb5/wQj+Lhk473omZBaEoWf/yqj93Du1jJqcG3zSUd+XFF5McVcXr+hewZrqeydzPV/VtpHm5gwNOHT/UhAVKUV3z+4pd4Vc5pXBdFUI4ryZzCTRU/wO4doqpvS1TAOWVBpvUDO/AoLkxTmHHdZoilInkRFcmL8Chuul0dNAzWUtP/ObsGd9Lu2Mewd/Bf6UaidEZVNZWj04/nm+XfIy7KoBxXhjWHGyt+wJ1bvkPbyN6Ih3OKAgxkmuwNtDn2MTOuOCQPatKZyY0pIDemgJU5p+DwjdDpbGXPcD0NQzU0DtbS5tjLoGcAr+oZA1WK+BU/VVMpjC/lxoofkDSBI2mRrNkJ5VxZcgv3br8Dl+KMaGtoys5jDnj62Nr9acjA/M/ZNIZZ8SX7C8q6/S563J002xtpGKyhfnAn++x76Pf04lXcaGMfmEh62ZqmkWhK5rry75AbUzAl93T5naPHuVQviupHGQvYN+iM2PQxWPUx6OXgDbvjs9ZQM1DJy3ueETPmxAaJyscd73Jy3jnEGOLCriPMesv+GXV55mq8iodedzfN9kbqBqqoHahi73AjA54+/Jo/Io4mybLMebMuZ1HqMUG7h6IptDn2sqNvG3UD1bSMNNHv7sWrelA0/1hUloRBNhBriCfDmsXshHIqkhdTlFAa8ApvetnABYVXUt23lYbBmog1aacMTFnSUT+4g63dG1iRvTbsO8aoM5FlyyXLlsuyjBPxKG46nW3UDVRT1beFuoEq2h0tYXt+UNUUjko7ntMLLgyKOe5TfVT3beHtllfY3rOJXncXiuZnf4YC+PcyD5pGF+00DNXwccd72AwxzE4oZ1XOaRybeRLxATwWmGbJ5MLCq/j15z/Gp3qIxFMpwd/HPEB+1YfdN8yyzBMjLhO7XtaTYEqiML6EZZknclzmauYkj2bL8yoeRvzDY6u9oQ9WH83hm8Qtc38cFBO2abiex2vu44+7HqZmoBKX34EkjX6cZGl0AW18/1g6MJXI2G8kScKneml3tLC5+yNq+ytJNKWQacsNWN9l2nLZM7SLZvvuiDuUnh9XOLVgSpJMj6uTNGsGxQlzItb+l5Cw6m3kxhRwdPrxHJd5EsWJFRhlI3bfMA7/SEjDAzVN4/SCCzkl79yAzpaKpvDPtte5r/KnbO35FL/m2w/akfTheEn4dmcLm7o/QtF8FCWUYZCNATFp402JfNr5T7yqN2LWBkIC5vjLbRlpYn7KUSSaUogGWfQ28mJnsSxzJUvTV5BhzcLuG2bQ04+i+ad0ZVfVVLJtM7ix4gfEm5ICdl2v6uXF3U/xaM099Ll70AXwKJ8syXhVD9V9Wxn2DjIneWFALKpkSzrN9gb2DNdHzKwZMjAlSWLYO0iPq5MlacdhCnBmg5Autkgy8aZEypMWcFzmKnJjZzLsHaLP3T26OjlFfXzWrEtYnrUmYOD4VR9/bXySp3c9hDtIh5UlJFRUGgZrcPhGmJeyZNLJwXWSDovexicd7+HXfBExa4YMzHE42xx78ape5qUsCeryeahk1lspjC/l2MyVpFuz6XF1MODp2z8Ig2PCqqRZs7iu/DskGJMCNlTe2vcKj9feh0f1BHVwS0hoaDQO1WLWWShPmj9payPRlMyOvm20O/ZFxKwZUjDHG9A4VIumaZQnzUcXhXDCaGBDccIcjk4/Hr1soHWkCZffGRTzVkXlpNwzWJ1zRsDeZ91ANeuqfsbgFOXAlZBQNZXdQ3UUJ84h05Y7qesZZCMuxcHm7o8jypQN2SdEQsKn+niu8XGe3vUwriAdCwsXpVuzuKbsW/x48T1UJC8eTZQcwONKGhoxhlhWZK0JGEAuv4M/1f+OTmf7lM42kiQx6O3n2fpHsfuGJ329RanLSLWkj+Y0ihS3KJQ3PxDO8TIH0SxZklmYegz/b8k9nJp3PnpJHzA4x0PvZgdwtXtj14ds7v4kJAm1dZKOqr4tbOz856SvlWHNoTRxHmoEndsMudE9aroovLn3ZX6+9XtU920l2pViTufGih9wacmNWHTWgBzslpBYlLoMqz4wWSJcfidv7n0Rj+IOWT95VS/vtvwdl985qevoZT0LU48JWcb+iARz/7CSJCp7N3Hn5m/zbMNjDHkHohpOs87CxUXXcG35t7EaYiY1c2po2AwxAc1GUD+4k5qBypAumMiSTN3gDpqG6yd9rdLEucQZEyIm20FYLVPJko4+dzdP1NzHTzd/iw0d60P6xQ6+uabn9PwLubzkJoyy6YgHjaZpZFpzmBE7M2Bt29qzAYfPHtItBgmJEe8QO/q3TfpamWOVwiPFzwy79WNpLBpke89Gfr71e/xy6w/Y2rMhagGVJR1nFlzM2TMvQTrC16GhMjO+mFhDYM5aehQ3tQOVYTG3qKjUD+5EnWSWRYveyqy44ojxMvXhPGDdiov3299kS88G5qcsYVXOaSxIXRqQas7hJINs5OKia2kZaeKTjvWHbT7KyBTGlwbM7Bz09NPuaAmTDXmJDkcrLr8TmyF2UrNvYXxpxPiZYb15OF6q3ekf4eOO99jc/TEz44o5LvMkjk5fQW5sAcYAxFWGg2KN8VxRcgt7huvpcLQeFmRGnSmgwerj1olZZw55QL6qqfg1P17Vg43YSV0rJyYfs86CW3ES7idOImJXfxxQv+rfX835pT1PU5JYwdL0FcxNXkKmLScgwc+h1Kz4Ys4s+DqP7rxnwv5mMMocZtpy+J/F9+IKiwGsEWOIJy4AVlKaJYNYYzwupyPsU8hEXLjNeObtAU8fn3Ss57POD0kyp1AYX8b8lKMoT15AbkwBsWF4GHsin6DVuWfwftsb1A1UT2jW1DSNmACXOTTIxrAslRAIqyTBlESXsy3so2YjNg5ufBbV0Oh1ddPt6mRj1/vEGGLJseVTklhBWdJ8ZsWXkGbJDNj+XrCVaErmazPOomGwZoKzpkasIR6L3oLQV8uss5BkSo2IBaCoCFCVJAkdozPpiM9O7UAlNQOV/L35OeKNiWTb8pgVX0Jx4hxmxs0mw5odlulNxnVMxom8tOcZWuxNh5w1NcCmj4l4M35KBrusJ9GUNNZrAswpn0mlMXNX1VT6Pb30urup7NuMXtITa4wnw5pNYXwJxQkVzIyfTaY1l3hjYtj4HanmDBalLmOffc+EZkyT3iyKKk1wdIyeUZUEmOFi8o4vlAx5Bxj09FE7UMXr0ovY9DGkW7OYFV9CWdJ8ihPmkGWbQYwhNnRtliQWpx3L63tfwK/6Dvl7naQXRSAmKJs+JiL6Sj/dXsyBMyrAiN+OfaiOhqFa3ml5lVhDHNkxeZQmzmNu8iKKEytIMadPeWjarLhiUs3ptE3gHKGAcuKy6G1HHMghwJxyUP81tId9Qwz1b2dn/3ZebfoL6dYsKpIXsSzjRCqSFwV09fOrlGROITe2gFbH3gk9hcBzYjLpTBGRbV8vXtXBZ1RF89M60kzLSBPrW19jZtxsVuacyvFZa0i1ZAS1HQbZSF7sLD7tfP+Qv43mysrB6NfxTAkCzAjW+KD3qV5qByrZNbiDN/e9xNkzL2VlzimYg1iLJdOaOyHoRvO5ipqgEwUTSYIwr6EqPrWHBenoTLp7aBfrqn7G/VV30esO3uHuFHMaeulQCakkfIoXVRTrndhMJOuRI8DsF2Ae4SzqU328sfcl7qv8Gf3unqDcJ8YYN5Yp7quhc/odY7Om0KGkampEnMkUpuykfFGJDR3rybLmcF359wKe7c+ss6CT9WjKwZd2JCQcfjsexRPwVKBqBOXI+ep3Nfpps/uG2dC5Hr/qD3u/PGzA1NAismyaJEm80/p3Tsw5NeAVsw2y8ZDHlCRg2DuEw28PWO1LRVN4ec8z1PZXRs3CkgZ0OdupH9wREc+kDwcgdZIOo2zCrbgiDlAJiSFPP1u6Pwk4mLIkHbovJIkRn51+dy+Z1pyAvZXK3s180PYmOjl6IopGyzKI85gTMpXSrJl8Y/b15McWUd2/jRd3P0W/uzfiCsHstTeiampA2+1XFVTUQw42t99Jh6OF8qT5AbmvTtIzO6GcTzreE1sx0w1MDQ2z3sJVpbexJvdMAOYkLyQvdhYPV/+SNsfeCIr/lBj2DuHX/BilwAWTexQ3fvXQizp+zc+eACSsOlBzkhZg1dsivjJzpCp0n0NNY+2Mszkx++R/++NlGSfyw0W/ojxp4djiQyRsA2jYDLEBT1vh8A/jn2Clqt1DtXgVT8DuXRhfSl7srIhKkizAnLQJq1CWNJ+Li6790uNKZUnz+dHiX7NmxpnoJEPYrw5KyMyMmx1wMPvdffgmEMQuI7PXvptuV0fA7h1rjOe4rJOmtFKZUAjB1DSNRFMKV5be+pVhbRnWbG6fdwc3zPk+6dYsVE0Jy/0nDY04Y3xQyql3udonlB1OkiT6Pb3UDVYH9P4rstaSbcuLmm0TAeZX3VDWcV7h5cxPOfqQvzXrLJw18xJ+dtT9nJB9CkbZNOk0hoGf/VWWZa6iKKEs4NdtHWme8MfIp/rY0v0JSgD7J9OWwyl554kFoGgHU9UUlmWcyBn5Fx3Wyy5KKOP7C3/OdxfcSWnivP0VoUItRVMoiCviwsKrAp5BwOG302JvmvDCi4xEdd9WupxtATTRJU7OO5t5KUsCCrxQGIGpaio5MQVcUXLzEeUHNessrMo5jbuWPsgNFT+gML4UCSlkA0bRFLJtM7i54r/Ji50V8Ot3OFrpdLZO2MeTJJkuZztbujcEtB3xxiSuKLmFNEtG2Ji0GlrUL0rJU9WRFr2Vy4pvpCBu9qSulWhK4ZyZ3+DuYx7h5rk/Ym7yYoyyCUVTpmTgaNrooChPms9/LbybhUHwLQFqB6qw+4YPa6tC1RTeb3sDh28koG2Zk7yQq0pvx2aICTkQqqZi1dvIGEtXqkXpqZqp2cfUYO2Mc1iR/bWAXTLZnMaZBRezKudUqvu2saHzPbb3bqbb2Y5X9Y4eHZbkgO3BjW/dJJvTWJ17BmfNvCSguVy/6C9u69mAoimHtdIrSzpqB6r4vHcjx2WeFFCT9qTc03H47TxR+1ucPseU+52apoIkUZG8iK/Pvo782EK29nzKozX3MOwdjLq91qCDqWoKc5IXcnHRNUHJ5BZjiOOYjBNYmn483a4OageqqezdxK7BHXQ4WhnxDeMfO68ojZ30Hz/B/mUvU0Nj9P/aWHggmHVWsmJmcHTaclZkrw1oOYIvU8tIEzVHGKfqVly81vw8i1KXYdFbA9Ym3ViNFZPOzBM1v2XA0zslASDjZmuqJYNT8s7jtPwLSTanAnBy3jn0ubv5Y92DUTdz6oP7lRvfGrmNFEt6UB9EkmTSrdmkW7M5IXstdt8wnY5Wmu2NNA3X0+7YR4+riyHvAE6/A5/qRVH9qGhomoYkScjIGHQGzDorccaE/dn0xvPTJplSpuSlbOhcT7+794hSYOgkme29m/is6wNO+ELwxuTh1HNK3nmkWTJ5oua37BrcgTSReN4jnCFVNBJNSRybeRJn5F9EYULpv91LQuLMgovZ0beNzd0fRVWmwKCCqZN1nF94JfOTl0z5g8Ua4ohNKNu/jaFoCm6/E4d/hBGfHZffiUdxjwKq+dFJegyyEZshhhhDLDGGOGz62IAf5TqU+tzdfND21iSC+SU8iosXdz/NvJSjSDQlB/YDiMSStOOYETOTl/c8wzstr9Lv6UVGmnQwgqZpqKjoJB0ZthyOSlvOSblnUJI4B5305e8hzpjAZSU30WRvoM/VFTUBEUEbdaqmsizjRE7PvzAsOksn6bAZYrEZYoPmGwZC77e9SfNww6RM5VFfs5LXmv/KJbOvD0r/p1uzuK78u6zIXstb+17ms64P6XF1omjK/rOqX/Vh0cYslXET1CAbSDQnUxhfylHpx7M4bRlZ1hkTshrKkuZx/qzLebTm3qgJhtAHE4QV2WuxGWIQmpg6nK281vw8iqZM2ofVNI2/NT3L3JQlzE1eHJT2ypJMaeJcihPm0ObYy+c9n/F570aahhsY8PTh9jtRxiK2pLH/yZKMTtZj1lmINyaSZskkL24WJQkVFCWUkW7NPuwKbhISp+SdR1XfVj7peDcqTNqggamhMeKzC9omKEXz8/LuZ9hrbwzIwpIkSfS7u/lD7f38ePE9JJmD5x/LkkxuTAG5MQWcmn8eg55+elxd9Lq7sI+dujHIRoyyEaPOhE0fQ7wpiQRjIjGGOIw606TbYDPEclnJjeweqqPT2Rbx0UpBNWVfbXqWwvgSypMWCPIOoY2dH/DmvpdHM7gFDBgdlX2beab+Yb5Z/v2AADCRBaJkcxrJ5jRgaiuGFcWXcVHRNTxYfXfE50AK2mdFlmSahhu4e+sP+LjjHTSRxe2gahlp4sm6+xk5zICCier1vS/yavNfpkUw+urcM1ietTrsYqoP+wN3wrVLf7LXvjso2aklSWLYO8i2nk/RyXpmxRejlw2CxAM06Onn/uq7qOrdEhTzS0JCURXqBqtJt2YyM66IaM7abpANzIidybaejQx5ByIi6/oXXcD8uMLggjkOp0dxs713E73uTmbGF0doUdnAa8Rn53c7f837bW8G1Scafwc7+z8n3ZJFftysqIYzwZSER3GxrXdjxEUEjYM5JR6yJEko2mge1p9uup0Nneun/WmFYe8Qv9/5f7y975UpGTyyJNPv7uX+6p/zXutrUe9axBkTIjpML+gz5r8ZVZJEr7ubTV0fMewdJC921hGdNIl0dbs6eWjHL3mn5VVGU6dMzQCSJAmn30Fl72YsBiuz4ksCnnUhHLTX3sgzux6hy9kuTNnDGRxe1UvNQCVVvVuw6m1k2nKnje9ZO1DFbyt/ymed74/1+dQOnHGztrJ3E27FSVFCWcATRYdKXtXL+21vsK7qLhoGayJyyyRkYI4vSEiMz54f0jTcQKIpJSR1KKdKbsXFW/v+xgPVv2D3UG1IN8ElScKv+anp386+kSby4woDHro31Wq2N/JE7X082/AYve7uiB1H42CGNK+sLMl4VA8ftL/F9t5NHJu5itPyz2d2QvlBYyMjsaPrB3bwXOMTbOj8J17FExaRKeP+1ycd79Fsb+SiwqtZmXNqQE+kTIX63D281/p3Xm16jnbHvtHDCFHwcZd+suk27YO2t0L+MOPHexJNKRyVfjyrc8+gLGleUMvcBVv77Ht4u+UV3m55hV5X51gfh5/Po2oqRp2RpekncEHhlZQkzg37wd3v6eXj9nd5fe8L7B6qC0gYY7i8ixXZXwuf2iXjBWMHvf28ue8lPu54l4rkhZyQtZYFqUuDXig2UPKrfvYM72J962t81PEOnY5WCPPU/LIk41f9fNj+Fjv6t3Fi9imsnXE2BXGzw2qwa2i0O1rY0LGe9a2v0ThchzJWICjaXKCwmTG/7CWomopBNpBty2Nh6lKWpC+nOGFO2PlDqqbS4+5kZ9/nbOhcz/beTaPnKSHijiGNn/pItaRzTMZKVuacwuyE8pBaLnbfMA2DO/m44102dX1Ep7Mt4OUowm3GDFswv9hYDQ2LzkJ2TD7lSQuYm7yIwvhSUi0ZIfGLnP4RupwdNAztZHvPJnb0f06Xsw2v6kUOYEqTkAE6djYyzhhPaeI8jsk4gXkpR5Fly8Uom4L8vhUGPP00DddT2buZz3s30jzciMM/sv+ESrQqosD8MkgNsoEEUzLZthkUxM1mVnwJM2IKSLGkE2eIx6y3THoBSUPDp3px+Z0Mewfpdnawb2QPTcMNNNsbaXfsY8gzgF/zR+2AGbdcdJKOJFMKs+JLKU+eT0lCBTkx+SSYkjDpzEf8IfKrflyKk0FPH+2OFpqHG2gYqmXPUB1drnZcfueoaRcFH7uI9DEPxx8af4A+dzc9rk62925CJ+kw6yzEGRNINCWTbE7df8oh1hiPRW/FrLOMnvWTJFRNwa/692d496k+vIobt+LG6Xcw4h1myDvAgKePAU8fQ55+Rnx2PKobdf9h4NHBEo2b9Af6/uPP1+fpoaeri8+6PsCss5BoTibdkkWGLYc0SwaJphRiDLGYdRZkSYeGil/1oWraWBVuLx7Fg1txYvcOM+Dppc/dTa+rmz5PN3bvEB7Fs//85qjvqGM6Sh8tgwbApThxOR10OlvHzsVrBwAkIx+wlD5+en78d2igoo6Fqh3w5+O7rpK0f/81WrZyJtPfXtVDp6OVdkcL9G4cW+CSkZEPWH3W/i1J1nif/6vc+nj//mtGFFnfowDMLxs4SAczeDRUTfvKo0/SARn0hCbQ35KM7ktM30PFQQv4JmAZii4QEhJgCgkJCTCFhASYQkJCAkwhIQGmkJCQAFNISIApJCQkwBQSEhJgCgkJMIWEhASYQkICTCEhIQGmkJAAU0hISIApJCQkwBQSEmAKCQkJMIWEBJhCQkICTCGhaQtmlBcWFhKKPGkgx0zDis5CQuGsGGMc8km5pzEjduYopkJCQiHVjNiZrMo5jf8PlO7RkCzi+FIAAAAldEVYdGRhdGU6Y3JlYXRlADIwMjAtMDUtMTJUMDc6NDY6MDIrMDA6MDBlOxHcAAAAJXRFWHRkYXRlOm1vZGlmeQAyMDIwLTA1LTEyVDA3OjQ2OjAyKzAwOjAwFGapYAAAACh0RVh0aWNjOmNvcHlyaWdodABDb3B5cmlnaHQgQXBwbGUgSW5jLiwgMjAxOVhLNdcAAAAXdEVYdGljYzpkZXNjcmlwdGlvbgBEaXNwbGF5FxuVuAAAABh0RVh0aWNjOm1hbnVmYWN0dXJlcgBEaXNwbGF5mRrp2QAAABF0RVh0aWNjOm1vZGVsAERpc3BsYXn4nJwgAAAAAElFTkSuQmCC;" parent="1" vertex="1">
                    <mxGeometry x="358.1" y="414.13" width="14" height="14.6" as="geometry"/>
                </mxCell>
                <mxCell id="72" value="script" style="text;html=1;strokeColor=none;fillColor=none;align=left;verticalAlign=middle;whiteSpace=wrap;rounded=0;" parent="1" vertex="1">
                    <mxGeometry x="233.02" y="408.6" width="43.09" height="27" as="geometry"/>
                </mxCell>
                <mxCell id="73" value="" style="sketch=0;outlineConnect=0;fontColor=#232F3E;gradientColor=none;fillColor=#D45B07;strokeColor=none;dashed=0;verticalLabelPosition=bottom;verticalAlign=top;align=center;html=1;fontSize=12;fontStyle=0;aspect=fixed;pointerEvents=1;shape=mxgraph.aws4.container_1;" parent="1" vertex="1">
                    <mxGeometry x="236.10000000000002" y="382.04" width="48" height="31" as="geometry"/>
                </mxCell>
                <mxCell id="74" value="" style="shape=image;verticalLabelPosition=bottom;labelBackgroundColor=#ffffff;verticalAlign=top;aspect=fixed;imageAspect=0;image=data:image/png,iVBORw0KGgoAAAANSUhEUgAAAgIAAAIACAMAAADHU/T1AAAABGdBTUEAALGPC/xhBQAAAAFzUkdCAK7OHOkAAAMAUExURUdwTDd0qTd4rv3NPDdsmf/TP//MOzNypv+/QP/aS7LJXDZunf3RQDZtnDdypDVtmzl1p//PPvzZSTZzpv/UQv/QQTd3rP7MO//LOjZ1qTd2qEFrqDZ1qjd4rzd3rTVrmDVunf/QPzd4rjd3qv/UPDVwoDZ1qv/RQDZunjZ4sDdvoP/QPzZ3rDZ3rjd3rf/QQf7LOf/QP//QP//PPvzURPzIODZ3rPzMPDZwpP/KOf/QPv/PQP/URjZ1qvzKOP/TQvzURjZvoP3LOv/RPfzKOPzLOvzTQzZ1qTd4r//MOjd4rzd4sP3NO/zJODZxozZvn//QPzd4rv/NPDZ2rDZ2rPzMOzVwoDZxofzSQjZ2qjZ3rf/NOzVxovzTQ/zKODd5rzd5sP7LOTZ1qzZwof3TQ/7RQf3UQv/KN//MOjZ1qjd5sDV4rvzJOPzMOzZxpDVqlv/aSv/VRf/cTf3VRP3KOf/XSP/LO/zVRDZunv/RQPzeTjd6sf/VRf3SQv3JOP3WRjVqlP/OPDZ0qf7JNzVwoTZvnzVplf/WRf7ZSv3LOf/NOzVwnzVqmDZunf3YSP3KODZxpDZsmjZwofzeTzd4sTNpk/3eT/3eUDVnlf3URf3VRf3eT/zeUDVwofzeTP/SQv/RQTdzpTdyo//TQzdxojd0p//QQDd2qv/URDdwoDd1qTdypP/PPzd1qDd3rP/XSP/YSTdvnv/VRf/WR//ZSv/LOjd4rjdxof/VRv/MO//OPv/NPDd2q//KOf/URTdzpjd0pv/OPTdvn//aS//WRv/PPjZtmzd4rTZunP/NPTh5sP/TRP/bTDZsmTdwoTh6sf/XR//JOP/QPzdwnzd3qzh5rzdunTZunf/MPDd3rf/cTTZrlzdzpDZrmDd0qDd5rzZtmv/dT//cTjZsmjZqlv/bTf/eUP/SQ//dTv/RQP/YSP/aTP/LOzZtnDh6sP/eTzdxozh6sjd2qf/fUDZqlTZsmP/ZSzdvnf/KODd4r//JNzh7sv/ZSf/KOjZql//IN0hhmJUAAACfdFJOUwBgYLRYDMAUAzABYLQ3YJAOLtgswcAzgnMnCQRKgiKQkBq1HQaQGDl/71haq3ZrEYgmNMD9/UP93HnACTCJ3yrZc5AU7dLsmJ9tkjqY+fmlRd19xbza8lL4pFoh1eLGzeag1b3OqrQ/U+ZU9/Pm7ZBSY26irh5gyGlK+NZA87+Q3E72qOU6t3WIumj7QcWZzM2bssz76Oyt97C7udrd4iZtHFwAACAASURBVHja7N1vaFvXGQZw26x4eE0Qc+diWzJUbp1okbS1C2pZJ5JQFht7JFUsEttzZs9pxmSD264f0uGWtiHboG1CGB60hWJFVhQrdpLGG3Y+GCcEM5eERSG2V4KzZDBBSaAmDhkhpIzJdhLff+fec6V7jnSk5/kQ8uka9P507rnnvOeqqKgQYqut8Nm7S7weh7++1e10BoPNzc0dXV1dgUBXV0fq/8Gg0+lurfc7PN42u6+isq66CBE+1bVN3R5/gzvYFeoZk2T6Ya4uZWL2pDSzqUysxBVodtc7vG2+yip8lqJ94yu6PY3OjtD03I2l3B+TRybg5EmVgEcEJo4fe5TQYbffawcFAb725d2ehubQhbmHyUzAMXnuHD9+PBR8rrjJhg86J1Pq8zT09V9YDjMBDxMK+ovLy/CZ59C473M4OxcurIaxgOMnlrJzj39XHT787KemrbGjP7GwwFPACoFjd1L/hNzechQhi2N/d0NnYinZELCc60evXz8aai3GaJCNiV+TI/XtT2RDgJRASsBy2p/zYRmBa/3tDa7E4+SAgKX01tuhgE+qZPXPGQHLCrbvwsoB81Q0yuqfUwKOnjh3rre+AkVi+fTn7VhczFTANDMB51ZyeEspSsUm5Q09ixwETGQo4OzZs9u2YyhgEHtwcVEQAakc2WPH6qGlKWvrWxRKQCrtazE1tC7dDwGIJCCVz9fiKdGa+DoeCCngyLlz7btwO8g8Nc4HggpI5eyRwz6UMMN1IEePtQKu8hSwlGtubCBkdA8IPBBdwLVrO7dgSpD2ENC4IJyAsyoBw8PDh7FMkOZacN+D/BAwPLxtPaaFacTbn4aAG4wFnEhLQCp7alFRszeBhgfpCLifowKGh3t3oaimUteRZwKGIxE/bgZmFgMC+ScgEvmzDZWlngh25qOASKS9BrWlFODKUQHXMxMQiRxAuzFVyvNWQCTSixUCmnlAZ/4KiER2/gEVNootkM8CIrd3YhwwSLUzvwVEo72VqLJu/PkuIBr9HFuHevEt5L2AaPQwOsp0JgKdBSAgGt2OShPTUBACotG3UWpCmhYKQ0B0Gx4LtFPWUSACotF2TAc0021GQE+Hu9HhcTQ6AwIKiI77UW6tQaCPWkDI71v5Gi3tv9Z1u3tEEzD+0RoUXHMQoBMQVB3WsnlCYgkYHz+I7gF1gnQC+jQ786s8+4USMD7+Q1RcmUoqAfcdpI7s2mahBIwfwIxQGQeNAJfO4Zxqv0gCxsexOKAMxdnhsU79lgvvrEACLmEYUKSGYgzoNNpk8wok4NIlDAOK6hkL2G+8puYQSMCldlRdvj1g/CxQQrG2EBRHwKU4OohUUwF9AW6ay9S5xBEQx46hbDrfbyTARddp4RVHQHwnJoTy2aDBmqCD0lKXMALicRwyk6TJSIDLRnmlYnEE4E4gncbZjXaGGqlvKSFhBMQPYKNAskdktDtM32TRKIyAeByniwgE1AIWAvSX8okjII7VIUndDDpEGugvVdUjjABMBqTTQYMusRIT12oWRkAcC4RaBLT7BJtMXKteGAHxj/AyMjUBQqeomRM4HmEExGdwukxFgNQrbGYdrVgcATMfo/QKAsRucTPXahNHwMz3UHo5AaKAaTNrKMXiCJjZgtLLCOicGLGZuJZXHAEz61F6KQG9M0NmXtTkEEfAeRB4nAqDU2N2E9dyiyMABKQE9M8Nekxcq0scASAgIaApYPXV0k76S9UJJOA8NgmkBPQEjPXQLwy0CSTgPM4USQjoChgba6O+lFMgASAgIWAgYCxIe6VakQSAgCaBOe2fmKDtGWkUSQAIaBEgCKCdENbtF0kACGgQmCP+zAzd0oBbKAGnQUBFgCxgLECzSGwXSwAIrKbcUMDYNMVxotpesQSAgJKAroDpacPTJLbDggkAAQUBAwHT0179i1QFRRMAAnIChgIMxoHSZuEEgICMAIWA6elW8pywIiCeABCQEqAScPVqF+FtQ9We/QIKAAEJAUoBqbRqdN2W2bsmRBQAAmoCNO8VnnDb5e33Nm/XhJgCQEBFgPbN0qHWkoqVWUGdzxPcPyGqABBYTaUpAStxhQKh/QL1CWoIAAEFAZNvl58V6LwAQQAIyAkI/PsC6Qo4/R2UXkKgEAXcAwEJgYIU8E8QWCVgpYBjwggAAQWBwhMAAqupsVDAHcYCItYJAAEZAWEE3LZOAAhICRSkABCQEChMASAgIVCYAr4CAQIBPQEn80kACBAIFI4AEFhNbWEKAAFNAtkVcISrABDQIlBQAkBAg0BhCfgSBFQECkwACJAJ5KmA0woBIKAiYCRglrGAa4wF3FMIAAElgYITAAKrqeMi4GiuCQABOYECFAACMgKFKAAEpATyQEDctAAQkBAoTAEgoCZQYAJAQEWg0AR8AwKPU5q5gOMCCgABBYHCEwACqykrzWJeypqAv4NAbuQlrjtDUgEgkGME+K0IPRIAArlFIAsCQCCnCGRDAAjkEoGsCACBHCKQHQEgkDsEuD8NgkCOEciWABDIFQJZEwACOUmApwAQyEUCXAWAQA4S4CsABHKPAGcBIJBzBAivk2Mm4N9KAi9/3zCbHyX1v32/ObRjw6ZnUULLCHAXoCLwxN/k+UKeW7dunVrNrVOXl/LXln3vvfEjlNEKAiYFzGQuwIiAroBTDwUsZ+O+Pz2f/U/SVu5r83ocqXhK0kyxJVlrMr3GLxWNmz48/JWSgEqAMQF6Act57XevZK/4Pk9Dh0v14+M3CvPV0iYE6BMwKWBqamrj3heyUP66toa+uYWFhQsQYF6ALgHzAqamLk/t+4Bv/SscHXOJRAIC0hSgRyAdAVNTZ86c2fd7bvUv9wcSy4GAdAXoEPhCRYBSQCpP/YxH/atKmhMJCKAT8CVJwH+IBDIRcObMxkPMHxLrHK4EBGQugEggMwFnRke3bmAKoKa+JwEBVgggEfg2UwGp7GU3EJQ29icgwBoBBAJWCBgd3f0qozmA5BYAAXQCviEK0CZAI+CyoYDRoY07yhgIsAcSEGCdAE0CBgJOUQoYnZyc/PQJy2eB7sQDCLBQgBYBCwVMTm7+pbUCSmT3AAjIXMA/1AQsFTA5udvKJQJb6yIEWCxATeBbc4uCRgKGht59xzIBTQEIsFyAmkBaAqbIAoaGWqzaNPD2Q4D1AowIWCAgZcCSPYPqxkUIYCDAgMAtcwsC2gJSBixYILA5IYCJAH0CFgkYmmzJeD5Q2wcBbAToErBKwNDQxa0ZNpXVBiCAkQA9AhYKuDi0OaOWshoIYCZAh0C6AkY1BKTyVAad5pWdEMBMAJmAxQIGB99KfwyAAIYCiARupbc5SBYwOPhhujvDmAmyFKBDwGoBgy3pLRVXNUMASwEkAgwEDA5uTmfbsBrrAWwFEAhYJmBIIiC96QDWBBkL+K8mAUYCBgd/a1pAGwQwFqBJIM0mIWMBg1vNthOWuyCA8kdH0xWgRSAzAZM6AkzfCmx9EMBawL/UBDJsEdEV8PXX5jaM3BDAXICaAFsBA7vNPBWUQAB7AYYELBYwMPC0ib0h9AlyEKBBgK2AgZZnqAk4IYCDADWBzJuEdAUMDFDPCEsoBMxBQKYC9Alksj2sJPBIwEDshbRuAxDASIAuASYCBgZ+QPk0AAFcBOgRYCRgYICqm7QJAvgI0CHATMDgTykElHVAAB8BZAIZt4iQBKTyjsm5IAQwFEAkYK0ABYHPjJsEOiGAk4B5AgFrGgQIg8BAeJ0RAQcE8BJAIMBYQPhJo16xHgjgJUCbAGsB4fAm6kEAAhgL0CTAXkD4Pf09YhcEcBOgRcC6JiGigPC7L+sR8EAAPwEaBNgKeEgg/CbV4wAEsBegJnDZ+s1BDQHh1/TeIwABHAUQCDAXEA6TN4vKAhDAUYA2AQ4Cwr8mv1QOAngKmN+lQYCHgBh5QuiEAJ4C5u1qAjwEpEI6U1DbDwE8Bcx/rCLASUB4r/6yEARwEjC/Rkkg7Taxi+YEhFu0e4mrOyGAq4D/lRsSYCTg5k3tt9V3QwBfAclKIgHWAmJPkieDzAUcg4BHApKlJALMBcRatA4Y2noggK+AT4oIBNgLiMU2ELqFZA8DTATcYSwgIo6A5PsEAla2iZEExN7Svg/kgYDb4ghIHtQmYGmbGElAbOt31feBfgjgKyD5R00CDBoENATEYus07gMQwFdA8nVlDV7hKCCmPmLqhADOApJvK2vwDEcBsX3q+4AVAk5CAL2ApHJ9uGgTRwGxF5Vvpe2GAN4CkjYlgXUs2sQIAtSPhY0QwFvAX1Q34w+YtIkRBMR+ofjrAREEHMknAeoHgqI3WW4OKgXc/LniZcMQwFtAcr2KwA6OAq5ceVG+RlwCAbwFqGeDRYd4CrhyRX7O3E0jYCzPBZzmKuCTKhWBz7gKGPmxrG/UBQGcBdw9qF6j38xVwMhPpH+7wgoBs4wFXGMs4B5jAfNJWdRTgWc3MhKgJLAiYKRF+lsl3lwQcDTPBcgGgeTdNSoCz7PdHlYKGBmRbhO0QgBvAe+rf1r+Dc4CRj5UrgpAAEcBd19XTwWe5ixgRLI4VAoBvAVo3AeKPuUsYORXklNEypeK5qGA+P/Zux+fKq8zDuDPwihIgyO5zYQL0qGoTKZoA1qDQEAEq/Jj/oCo4KrQoRkqYlFLtFIVpFG0SkRbdctsu4VpYqe9McBwpYWtpBvxzmR1zZZMU02nJl2Cc6bZst33Xri/3vPe+9573/Oc9748zz/AzTkf3l/ne56jLwEtjNBONZIAJ4H9rtjIVBKALOCx/H0AUjjGxJgXgcuXXceYTiMByALORgH7afAqx+VhmYDLrn1l3+cv4FcGF/DHgAQ8Psm4DxzgHBCQCxhyJoemkwBkAayHQahFFzAU4XwaJAHIAtoYAjIy0QUMVTsbDIW/gPfCSgDzItDAOSTEEDC0cLzPwDISgCuAdRGAXbgC7ASGxlsQrvYr4PecBXzEWcAtzgL+FZCAxyZWk58ivjExpoChN8ZfCEgAqgDW6wDMwlge9hbQ+9LY5+GQBfzG4AJ+p6mA03EsAgdECOgtGDuCggRgCnj8bWazt2oRAnrH3grnkgBMAcxnQed9AFdA79qxLQR6F3DJSAJOz2QSOK6pgH+oFNBb4lgomkYC8AQ8PsYUELmfe0yMJaC3t8n+539EAvAEpLGbve3ECQi4BIwTcJxU9LIfAX8xuIDPEQW0JbIJ1AoS0GvfWGgmAWgCWuLYAvaJEtAbb99LRgKQBHx5erpC08+3RQkYsG8nWUECkK4Bp00KAuZnYsTEWAIG7D3J14sV8FuDC/jSvwDYhRMTYwgYeNO+VMy9qej73BsKchTwd/4C8jLRAgLeAgbsO8yXkwAMAS0JisdAvCJOwNA2+6ZiQwv4WCcCOqIUBczKFCZgYGCh9HlwNQngL6DMrCggeo9AAQMDKbafsJkE8BZwdq+PI8F2osXEWAIGpJOqXiYBnAW0fNeHgCVFiCEhuYDhcttv+ElYHzAgVsDf1Ag4GefrcNBXkJeHvQQMbwEwkwCuAlqO+TwhuEGwgOHdADNJAEcBZ9PMPgUwbgO4AoZfAkiYUMfMIAsom+77nPjod0QLGF4FsIIE8BLQFgsxvglMESCg10PA8DyAJBLAR0BbK/ir8kzskJBMwPBKxyoRCdCynZwk4OxJk18AkFckYnnYU0DfIYC5JEBzAS35Uf4BQEq1DgT0RUgLhRNVwKd8BJze0QpqKrJWDwL6ngGYSgI0FNCy41giqBPwnC4E9C11I0ACQhRwti3fBDExggX8Sb0AO4G1ADkkQAMBLWX5sSr//fkJ+EUQAiQCy0lASAJa2nbsPRYHgVVKrcDlYffbQF9f7jiBsBJQUdVRc6qs7OQMRn3PR31HdT3vo3bY6/kdafnPVsbOjIEganG1bgT0bQMoDh8BFR0n8ytbk80Q5tWwXz8C+goBloWFgIqatKTpYIhKPZCpIwESgXW6F1Bak9+aCEap+bVCQ0LeAvrqAX6gbwGlpybHgXEqZud+vF5SagT0ldgI6FlAx2wjzb/tOXDPVbExMZmA2wsBpulWQEWxyVDzD5EHMq/eEB4Q8BRw+3aMnYAeBWzPjzMYgCNFV3Uo4HaqRECHAgwHIFsCoEcBt7NtzwL6E1CaZjAATe1FVwUJ6PUjoMdGQH8CahIMNf8x5W9nCuokpEJAT7QXAR0IODzbUPM/60A11lFDKpeHPQVkAazTmYBTUQZ6Aix3zr9eBfSUACzTlYDSvUaZ/ozX2vdkYh43FpyAnnqAYj0JuGCELwHZi9Pbf1ydiXzgXJACegoBlutIQE2wN4GYjKa8SUi1mFWz9r3WkL6zsX3XO7VFmcrnj+tkachNQM82NwLiBZQFvBiUmtdw5Pi5zq6Hd5z1laPujtUXzrpnrz+41UNbfeJRTz70qg+86sGDK+51U6prrhocHLw5GCYCXARydCMgLbDL7b7GXeeb738t1R1eAv4TsIBBdQLELg25CejJdRIIKwHZ5e2dzfel+tqLgIEE/AxFQM9agKk6EZCv+ktb4znH9OtCwE3VAm7oUkDPUoA5YXUNaDrSed9VQgVcMYSAvhMAc3UhoFjVw1/6ubv3uQl4MhEF9PQ8A7BeDwJOqXgXaGrvGh0NQMBdEqBCQE8EQJIOBFT5XxicdKZ5VJWAr3gJeCBSgMZLQ261CWCFeAEVyf4BjI6GgYBBlQI+E7w46FaPCgBM4leGKv2Fbh0A9Cvgmg4EDAUn4NEUgGThAmb4WW5rb8YW8OHEEfAoHiBKtIAq37uDGrpGQxZwjwQoCbDsBkgULOBorM/9l2P3AE8B9ye2gIB3D/sQYJFOLT4oNiWWo+oSEJyAL0QKEHXIRGACLHW2Yd4qVMAFs6/dd6PcBXwiVoCI5WEPAZbFUidyoWlxH28DTZ3hJyAMAgIuApIAywbbSK8RKaBGWcALXToQ8IHRBViybUO9TqCAW8pBsYZmHgIekgBPAYXSWOcI3DVWprwD944qAcJDQuIiIsGFhLwEWOzHU80RJ2BEcc9IoxABEyAk5CXAEiGN9npxe4cVLwKNoz4EUEhIOwGWldJwLxDXP0DpSWCnbgUYYXnYXYBllTTeJmEClF4H9jXrUMAVQwqQvg8DRAnrIZKk0KC7C0PAExIgVbl9yA8KElClsBPrPPs2QCEhjQR4EMizj/kPBXWSUsgMnwlIAIWEAl8cdK9I+5ivEdRLLCqQl4FwDgm9q6OQkJeAQsegF4vpJ3iKHRFrNpwAnQUEPGqjY9TniOkoyVwgiu7Uv4BrxhFg2eQY9kohAirMvm8DFBNDENAf7xh2k5C+wswvg03NFBJCFPDf/jcc424W0lm60ufbAIWE+MTEvAT0zx8b+K0CBBxl7R6ZdIdCQpxDQp4CSqLHRn71L/G7yzM/Dp+jkBCqgP6l4yO/TMAJE6zvQvsoJMQ9IuIhoP/Q+NDncxZwkXHGSKzyRYBCQlgC+qeMD/0CfAEVjK3EecYJCX2m15CQp4DxFwKAKL4C/sk4Z4j1afA4xcS0WBoKQEB/inPwt2ILuM5oKhLZTCEhjOVhNwG5rtGfhi3g+gKFD4MUEkIQYBkT0P+qa/RzsAVcZ3wV6KSQELKA8c/D9gQptoALjG/DFBLCFtBf5xp+E7KAEcbT4BEKCSGEhDwEZEW6hj/xIK6AkTTmfUCkgAdhI6BXKwGub4P2T8RBC/h5MAJGnpU3EpiwMTHMkJCHgP6V7hOQgytgRP5tMJ1CQigBAfdKd5+AJFwBI/LY4HEKCWELyFriPgFxH6EKqJA/CpynkBCygP4TnjOwGVNAt3wHQQr1ksIICXnUPM8pKA5OwF+DEtAtDws0hFtI6EZYhoQ8qtxzCr6FKaBbnhtsp5gYj15SPgQ8LUn1nIJkpoD3+QjoljebPEMxMYSQkAeBN73n4EVEAd1pyk+DFBPjGRFxE/A03nsOihEFdMtSY9n3KCaGLMA633sSkhAFdMvOo5xEMTFUAf1PrSdkV2JzKZ6A7skKLwQUE+MaE3MXYF0k/zazBk9At2yJoJF6SSGEhNwFWDfICczFEyC/CrRTTAxZwAlGeDMBT4D8KrCLYmIYERGXANZ9wPZaiCZATuAcxcRwBbDuAwA5aALkBDopJoYrYCOzv4dJWwHvKQuQEzhPMTHuMTF3Adbd7D5Pm7EEyAn8lGJi/ENCbgIKs9kE0hhLQ1wE3JIR6KJeUjgCxggUKDT9TMYSICfQTDEx/hERlwBrnlLz57eQBDAJUEwMT8DriqdA5CMJkBGIppgYpgBruiKBqFIcAQwCFBPjHRNzE7AtVfk4oHVqBVwKScDHMgIUE+MeE3MJsMb7OBawFUeADwIUE+MVEnIJUHojdFQVigBlAuEbE3tX5zExlwD28oCz9qIIUCRAMTF+ISHXRSDSJ4G4CgwBSgQoJoYgwDrF90HxMANDgAIBionxi4m5qj7DD4HppQgCfBOgIwc5xMSsql4HxpLEIbaUVCOATYBiYhxDQs7KTfVLIPkifwG/ZhGgmBjXgMB4bQH/tS5UAdf9CmARoJgYioDXVQgA00XuAhgEKCaGIiBrsRoCUMZXAJMAxcRQBFhXqhJgeyngLUCJAMXEOMXEnM+CkeoIQA5vAf4I0JGDfARYy1UKgLjtnAUoEKCYGLeAQEC3AftKAWcBbAIUE+MsQPVtQOpEWcVXAJMAxcQ4C8iqgwAq9hJXASwCFBPjLOCbVRBQzQhSwIgqAQwCFBPjFhMbExARExgB8wWeAuQEKCbGLybmEJCbAQHWAp4CFAmEUy+pcImJOQSUvAABVzFHAUoEKCbGS0BWeuACwFzFT4ACAYqJ8QgJSQK+iYdgKqGCm4B/MwlQTIybgAIIriZzE/BnFgHqJcUjJmYXcCgmSAJQxksAiwDFxLjExCQBEanBCgBzBycBDAIUE+MSE5MEvBq8AICoF/kIkBPQVUjIQDEx6S4QDaFUwnYuAnwQoJiYxgI2hSYA4FgpDwHKBCgmprGAeTEQaiWVchDwuRIBCglpKsBakg4aVOVR7QUoEZhwvaT4xsSshbNAk5p9VHMBCgQoJqatgI0bQKOqLNVaAJsAxcQ0DQhkTYkGzap1u8YCmAQoJqalgP9tqwMty3RYWwEsAhQS0lJA1qYM0Lamd2gqgEGAQkJaClhaB5pXYrGWAj6VESABGgYE6helAo+afFQ7AUoEDNRLSlxMrKRgCXCqhLc0E6BAgI4cDF1A1qYNwK8S00o1EsAmQCGhkAXUFzQB3zLVaCOASYBCQqGGhHIXZQD/mn1YCwEsAtRLKjQB9YfqYgCl4tK2hy6AQYBiYqGEhOoPbfl/e3fXmsgVxgE8sJjakIWVblHKUhCEWfDC6GaQ1DDZ+hIQlBXBVpAI0li90EIaYxrYuIRQUrOwtpct7DfY21z0Yi/7Abzrl+h9CV3S3YuNY+bMzBnf5jye//MNDs8vOp7553kSK4urB4+/mVaAkcASx8TezFmAOthohFYWXA++fj2dAEsCmCXFLUDVOsWCZ8WVWnv07OUUAqwILDwktP/Qqj63q68Y9cRQqzOq3qCkaVpp0DtPBpoxl7p/myv86buXkwqwILD4kND2CmryL4Rvf3s9kYB/TAm4EBICgWk/DB49fvbrDw4FmBJwIyYGAjOpL7787P7P9/nrEzYBV0JCICBEeV2MiYGAOARcCgmBgDAE3JolBQKiEHAtIgICghBwLyQEAmIQcDEmBgLCEHArJgYCohBwLSYGAoIQcC8mBgJiEHAxJgYCIhJYaEgIBAQksNiYGAiIR2DBMTEQEI7AomNiD7/X1fokdW/iOkHrGQSkmiV1idYbCcg1SwoEjAQkmyUFAgYCsk0TA4G7BJZqmhjPBAEQuENAbAHzmCWVRevHCEg4SwoExgjIuHIQBPQEpJwkBAI6AnLOkgKBEQFJVw6CgI7AMq4ctJ8mBgIjApJOEwMBUwKyTBMDATMC0sySCqD1bALyTBMDATYBiaaJgQCTgEwrB0GARUCqaWIgwCAg18pBEDASkGzhHAgYCMi2chAE7hKQSAAIMAkse0zMuGIABMYJSLhycAut1xOQceUgCOgJ/CfjujEQ0BOQcuEcCOgIyLlyEARGBKSIiRnXjYGAGQFaMbF2vRguKEohXKy3HS6cAwETAvMUMOvXw5rfpz+Iz685WTkIAmwChGJimabXcJRmhn/pZBGtNyFAQ8CbdJe5GdB7kOZdPw4CTAJkPgP6QbPjBPuci2dBgEVA5JDQmIANr8V5knyrh0GAQYBMTMzmDU+Aa/k0CBgJkImJ2TavyLN+HAQMBMjExGr2Z6pxrB0FgbsEyEREMhxLghMZ+8WzfrR+nAAZAXGuiaXbcdvVwyAwToBOTCzJd6qk7fJpEBgj4HJMzEFIqJXiO1WqZbd+HAT0BAjFxJK8x0raLaAHAR0BSjGxKO+xoiwBV29BgEWAUkRkwH+uqrUAEBiVh1JIyMGP+S1rASCg+8SkFBNT+M+lGF8OggC7PiUUE4sn+M+VUC0FgMCoYoSmiZWcHKxkKeDtBlp/e5FGJCb2ISq66uRgPUsB/4LA6FmA0ByZjpODdSwFgIDuHo3QJKG6k4OdWwoYgsBtrW3SmSXVmZDAO6MAENDVnugxsdG/jDh6FuhbCgABXf1BZ5rYZL8ImAJAQFcv6EwTi4f4jxXKWwoAAV0dEJomFnNw32EtAATuXAxQmSTkYDpMwFrAMIfO35b3lM4sKQfPgz2mgLcfBQxr6PyofqczTSx+xHuooGotAAT09aOwMTHjBAHulzt+GwHDJBo/qgqhaWJpD9+ZPGkbAUP8c7m+jglNE/M7+BCwEjAMo++6uiA0SahV4Xr3lbcTMIyh7/o3RZt0Zkn9terl+JHTsxWQD6Hv+qpTmibGcaezYStgOEDXx+o5qWliXbvjdO0F4HLQ8EAo7tJJ40jBuM2TXFhlBgTG6rqBpo/XNJKkCAAAAspJREFUiYgxMdNlU3HLHYMBDgE3aS+afqf2aa0bq5leD3hqVxyfAde4GGI8DdBaOagVTD7ONC4B1z603PiigNrSyT7jh73St3w5OBJQRcMZt8Rl4WJidksnq93I2O3GZfWKU8B1Ew1nXRESXDoZrya7jWgwGG10k1X16sru1dBHAYM19Jt1o3ZMdemk9X8NMQTcnKHd7Hv1MtmFcw4F9NFskzqQREA+il6b1atlF/CBwM0N/qfYvELHJJdOOhQwwMWgRQX3xIqJzUNAC18D1o+EuwSXTlr876hRwA2uBGxKOSW5boxfAB4EbKtQXmoB57gU4nhhdLrEAvqIi/FUbJeggHdcAqoJtJerfHu0lk5yC+h50Fze34bHrsXE5ibgPYEOvgUc3BEdChgQmFZADldCjupiU1QBf04mQM2iqU4fCp8ulYA0EsPOy3NIUwDz5WAviIZOUs1dEQT8Pb2AfAAXQhNW5NWmSDGxSQUMEBee5pXBvtgBAQ4BrQB+CUxV3otd2iGhczwFTP9t8EuZroABfgjM5rIwV6YZE8sgGzCzqhyW6cXEtC4eAmb6SeDfnbmAucbEqk0AmHUlsiWxY2K6/qsdBQ2by6+Dk3qZQlBQ81fQrLlVKrAveEgo3znBN8CcK5ZrCytArWZT6NAivhCUF3sCClB7WVwDLbC2/U+FCgq2Opf4+194HR0ctoUICqpVv4Lvf7fKF1g/dTUomK8mmxH0weUnA99BLhN3IyiY7mw1kAoXpTzPt+ql+MJCQqrWKZ7hx7+A94ex7sb6XnyuAlStn8s28P8AYn8gxMLFXL+Un7GAvNbLBc528MFP6BEhqLynUH9SSk8jQE1n+jX/5VkshfQf4QoFtwvhgD+Zq99bHZTarbi5gHy6XRqs9ju1nD8bPolVImj8UtZawhNJBY8q0R1fTFGU2LZvJ1qpBIOpCH7co+Sr/wHFUOkOcIFVEwAAAABJRU5ErkJggg==;" parent="1" vertex="1">
                    <mxGeometry x="266.91999999999996" y="414.04" width="16.19" height="16.13" as="geometry"/>
                </mxCell>
                <mxCell id="76" value="notifications" style="endArrow=classic;html=1;rounded=0;strokeColor=#666666;" parent="1" source="38" target="30" edge="1">
                    <mxGeometry x="0.3215" y="2" width="50" height="50" relative="1" as="geometry">
                        <mxPoint x="398.0044778135301" y="350" as="sourcePoint"/>
                        <mxPoint x="563.5" y="427.54772309296015" as="targetPoint"/>
                        <mxPoint as="offset"/>
                    </mxGeometry>
                </mxCell>
                <mxCell id="77" value="" style="sketch=0;points=[[0,0,0],[0.25,0,0],[0.5,0,0],[0.75,0,0],[1,0,0],[0,1,0],[0.25,1,0],[0.5,1,0],[0.75,1,0],[1,1,0],[0,0.25,0],[0,0.5,0],[0,0.75,0],[1,0.25,0],[1,0.5,0],[1,0.75,0]];outlineConnect=0;fontColor=#232F3E;gradientColor=#FF4F8B;gradientDirection=north;fillColor=#BC1356;strokeColor=#ffffff;dashed=0;verticalLabelPosition=bottom;verticalAlign=top;align=center;html=1;fontSize=12;fontStyle=0;aspect=fixed;shape=mxgraph.aws4.resourceIcon;resIcon=mxgraph.aws4.eventbridge;" vertex="1" parent="1">
                    <mxGeometry x="100" y="337.1" width="30" height="30" as="geometry"/>
                </mxCell>
                <mxCell id="78" value="" style="sketch=0;points=[[0,0,0],[0.25,0,0],[0.5,0,0],[0.75,0,0],[1,0,0],[0,1,0],[0.25,1,0],[0.5,1,0],[0.75,1,0],[1,1,0],[0,0.25,0],[0,0.5,0],[0,0.75,0],[1,0.25,0],[1,0.5,0],[1,0.75,0]];outlineConnect=0;fontColor=#232F3E;gradientColor=#60A337;gradientDirection=north;fillColor=#277116;strokeColor=#ffffff;dashed=0;verticalLabelPosition=bottom;verticalAlign=top;align=center;html=1;fontSize=12;fontStyle=0;aspect=fixed;shape=mxgraph.aws4.resourceIcon;resIcon=mxgraph.aws4.s3;" vertex="1" parent="1">
                    <mxGeometry x="279.29999999999995" y="500" width="31.4" height="31.4" as="geometry"/>
                </mxCell>
                <mxCell id="79" value="" style="sketch=0;points=[[0,0,0],[0.25,0,0],[0.5,0,0],[0.75,0,0],[1,0,0],[0,1,0],[0.25,1,0],[0.5,1,0],[0.75,1,0],[1,1,0],[0,0.25,0],[0,0.5,0],[0,0.75,0],[1,0.25,0],[1,0.5,0],[1,0.75,0]];outlineConnect=0;fontColor=#232F3E;gradientColor=#F78E04;gradientDirection=north;fillColor=#D05C17;strokeColor=#ffffff;dashed=0;verticalLabelPosition=bottom;verticalAlign=top;align=center;html=1;fontSize=12;fontStyle=0;aspect=fixed;shape=mxgraph.aws4.resourceIcon;resIcon=mxgraph.aws4.fargate;" vertex="1" parent="1">
                    <mxGeometry x="201" y="358.25" width="20" height="20" as="geometry"/>
                </mxCell>
                <mxCell id="82" value="EventBridge" style="text;html=1;strokeColor=none;fillColor=none;align=left;verticalAlign=middle;whiteSpace=wrap;rounded=0;" vertex="1" parent="1">
                    <mxGeometry x="80.00999999999999" y="369.13" width="79.99" height="15" as="geometry"/>
                </mxCell>
                <mxCell id="83" value="triggers" style="endArrow=classic;html=1;rounded=0;strokeColor=#666666;edgeStyle=orthogonalEdgeStyle;" edge="1" parent="1" source="77" target="49">
                    <mxGeometry x="0.1884" width="50" height="50" relative="1" as="geometry">
                        <mxPoint x="307.89014474244357" y="449" as="sourcePoint"/>
                        <mxPoint x="312.2164963814389" y="510" as="targetPoint"/>
                        <mxPoint as="offset"/>
                    </mxGeometry>
                </mxCell>
                <mxCell id="84" value="triggers" style="endArrow=classic;html=1;rounded=0;strokeColor=#666666;edgeStyle=orthogonalEdgeStyle;" edge="1" parent="1" source="77" target="38">
                    <mxGeometry x="0.1884" width="50" height="50" relative="1" as="geometry">
                        <mxPoint x="160" y="359.02812500000005" as="sourcePoint"/>
                        <mxPoint x="210" y="342.12187500000005" as="targetPoint"/>
                        <mxPoint as="offset"/>
                    </mxGeometry>
                </mxCell>
            </root>
        </mxGraphModel>
    </diagram>
</mxfile>